<svg width="33" height="28" viewBox="0 0 33 28" fill="none" xmlns="http://www.w3.org/2000/svg">
<mask id="mask0_3628_1083" style="mask-type:alpha" maskUnits="userSpaceOnUse" x="1" y="0" width="32" height="28">
<path d="M5.5165 1.22197C5.60068 0.743942 6.01597 0.395386 6.50135 0.395386H31.6794C32.3011 0.395386 32.7721 0.956574 32.6643 1.5688L28.2253 26.778C28.1411 27.2561 27.7258 27.6046 27.2405 27.6046H2.06238C1.44073 27.6046 0.969727 27.0434 1.07753 26.4312L5.5165 1.22197Z" fill="#D9D9D9"/>
</mask>
<g mask="url(#mask0_3628_1083)">
<path d="M9.45888 0.346558L11.3332 0.346558L6.49144 27.605L4.45563 27.6049L9.45888 0.346558Z" fill="white" fill-opacity="0.15"/>
<path d="M9.45888 0.346558L11.3332 0.346558L6.49144 27.605L4.45563 27.6049L9.45888 0.346558Z" fill="url(#paint0_linear_3628_1083)"/>
<path d="M11.2625 0.386581H33.0259L28.1413 27.6045H6.37787L11.2625 0.386581Z" fill="#4B69FF"/>
<path d="M5.78153 0.386571L9.49339 0.386571L4.58277 27.6046H0.870911L5.78153 0.386571Z" fill="#FDD607"/>
<path d="M18.6017 2.31921C18.4826 2.43839 18.3857 2.57993 18.3038 2.72891L18.2069 2.94494C18.2069 2.94494 18.1622 3.16096 18.1622 3.18331L18.2144 4.17405C18.2144 4.17405 18.2293 4.24109 18.2591 4.26344L18.6017 4.41987L18.4081 4.74763C18.4081 4.74763 18.3783 4.78488 18.3559 4.78488C18.3559 4.78488 17.9462 4.79233 17.7451 4.80722C17.3726 4.82212 16.5309 5.29887 15.9126 6.66206C15.3092 8.00291 15.2049 8.22639 15.2049 8.22639C15.19 8.24873 15.1677 8.27108 15.1379 8.26363H14.5718C14.5718 8.26363 14.4973 8.29343 14.4824 8.33067L13.6034 10.8932C13.6034 10.8932 13.6034 10.9751 13.6183 11.0049L14.2291 11.3997C14.2291 11.3997 14.2514 11.437 14.2514 11.4593L13.9311 12.4352C13.9311 12.4352 13.9162 12.4799 13.9088 12.4947L13.4842 12.8821C13.4842 12.8821 13.4618 12.9045 13.4544 12.9194C13.4544 12.9268 13.4544 12.9342 13.4469 12.9417L12.8659 14.4837C12.8659 14.4837 12.8361 14.5284 12.8063 14.5284H12.4785C12.3966 14.5284 12.3296 14.5954 12.3221 14.6773L12.1284 16.9791C12.1284 17.0164 12.121 17.0611 12.1135 17.0983L11.9571 18.0146C11.9571 18.0146 11.9422 18.0518 11.9273 18.0667L11.3835 18.4988C11.1377 18.7446 10.8472 18.8936 10.6386 19.5044L9.01469 23.2811C8.96999 23.3631 8.93275 23.512 8.9402 23.6089L8.87315 24.0186C8.87315 24.1005 8.98489 24.2272 8.94765 24.3017L8.27722 25.5084H10.5716L10.661 24.391L10.728 24.1601L13.9907 19.929C14.0801 19.8098 14.2067 19.6087 14.2663 19.4746L15.9424 15.6606C15.9647 15.6159 15.9945 15.5861 16.0392 15.5712L16.1435 15.534C16.2106 15.5117 16.2776 15.534 16.3223 15.5861C16.4713 15.7649 16.8139 16.3758 16.9778 16.6216C17.1194 16.8302 17.8047 17.8581 18.1101 18.2008C18.192 18.2976 18.4528 18.4019 18.5645 18.469C18.6017 18.4913 18.6166 18.5435 18.5943 18.5807L17.5887 20.4057L17.1864 22.5139C17.1715 22.566 17.1566 22.6181 17.1492 22.6703L16.7097 24.2048C16.7097 24.391 16.5756 24.4953 16.5607 24.7114L16.4564 25.501H20.3374C20.397 25.4265 20.4417 25.3371 20.4566 25.2402C20.4566 25.2402 20.4566 25.2328 20.4566 25.2253C20.4566 25.2253 20.4566 25.2253 20.4566 25.2179C20.4566 25.2105 20.4566 25.203 20.4566 25.1956C20.4566 25.1956 20.4566 25.1807 20.4566 25.1732C20.4566 25.1434 20.4491 25.1211 20.4417 25.1062C20.4417 25.1062 20.4417 25.0987 20.4342 25.0913C20.4342 25.0913 20.4342 25.0913 20.4342 25.0838C20.4193 25.0615 20.4044 25.054 20.4044 25.054C20.4044 25.054 20.3895 25.0466 20.3821 25.0466L19.2275 24.689C19.153 24.6667 19.0859 24.622 19.0412 24.5549L18.7284 24.0856C18.7284 24.0856 18.7209 24.0111 18.7433 23.9888L19.3467 23.378C19.3467 23.378 19.3839 23.3333 19.3914 23.3035L21.2462 18.7818C21.3356 18.4913 21.3058 18.171 21.2462 17.8283C21.2015 17.5751 20.5758 16.4949 20.4119 16.1895C20.2704 15.9288 19.369 14.3049 19.1604 13.925C19.1381 13.8803 19.1083 13.843 19.0636 13.8132C19.0338 13.7909 19.004 13.7686 18.9817 13.7388C18.9593 13.709 18.9444 13.6792 18.937 13.6419L18.8699 12.5171C18.8699 12.5171 18.8774 12.465 18.9072 12.465L19.2275 12.4352C19.2275 12.4352 19.2871 12.4128 19.302 12.383L20.4193 10.2153C20.4193 10.2153 20.4342 10.1483 20.4193 10.1185L20.1884 9.82795C20.1884 9.82795 20.1735 9.76836 20.1884 9.73856L20.5311 9.35866C20.5311 9.35866 20.5758 9.32141 20.6056 9.33631L21.5144 9.8652C21.5665 9.89499 21.6336 9.91734 21.6931 9.91734C21.9464 9.91734 22.3636 9.76091 22.5796 9.62683C22.6392 9.58958 22.6839 9.53744 22.7137 9.47784L23.1159 8.502C23.1383 8.45731 23.1979 8.46476 23.2053 8.50945L23.3096 9.0011C23.3171 9.03834 23.3469 9.06069 23.3841 9.05324L24.7026 8.74783C24.7026 8.74783 24.7622 8.70313 24.7547 8.66589L24.4419 7.31014C24.4419 7.31014 24.4419 7.27289 24.4493 7.25799L24.576 7.04942C24.576 7.04942 24.6058 6.99727 24.6132 6.96748L24.7696 6.23746C24.7696 6.23746 24.792 6.20766 24.8069 6.20766H28.4421C28.4942 6.20766 28.5315 6.17042 28.5315 6.11827V5.47765C28.5315 5.47765 28.5389 5.4553 28.5538 5.4553H29.9543C29.9543 5.4553 29.9989 5.43295 29.9989 5.41061V5.12009C29.9989 5.12009 29.9766 5.07539 29.9543 5.07539H28.5538C28.5538 5.07539 28.5315 5.06794 28.5315 5.05305C28.5315 4.97111 28.5315 4.68059 28.5315 4.62844C28.5315 4.55395 28.4793 4.49436 28.4197 4.49436C28.3825 4.49436 28.3527 4.51671 28.3303 4.5465C28.3229 4.5614 28.1888 4.76253 28.1069 4.88172C28.1069 4.88172 28.092 4.88916 28.0845 4.88916H21.7006C21.7006 4.88916 21.6559 4.86682 21.6559 4.84447L21.641 4.66569C21.641 4.66569 21.6633 4.61355 21.6931 4.621L22.0209 4.65079C22.0209 4.65079 22.0731 4.63589 22.0805 4.6061L22.3189 3.60791C22.3189 3.60791 22.3189 3.56322 22.2891 3.55577L22.0656 3.47383C22.0656 3.47383 22.0433 3.45893 22.0433 3.44403C22.006 3.2876 21.7229 2.30431 20.4789 1.9393H19.1679C18.9072 2.04359 18.6986 2.20002 18.5645 2.33411L18.6017 2.31921Z" fill="#F2EFEF"/>
</g>
<defs>
<linearGradient id="paint0_linear_3628_1083" x1="7.94058" y1="15.8146" x2="101.013" y2="15.8146" gradientUnits="userSpaceOnUse">
<stop stop-color="#18235B"/>
<stop offset="1" stop-color="#19256B"/>
</linearGradient>
</defs>
</svg>
