<svg width="32" height="32" viewBox="0 0 32 32" fill="none" xmlns="http://www.w3.org/2000/svg">
<g clip-path="url(#clip0_0_229)">
<path d="M31.417 29.627C31.417 30.615 30.616 31.417 29.627 31.417H2.37301C1.38501 31.417 0.583008 30.616 0.583008 29.627V2.37301C0.583008 1.38501 1.38401 0.583008 2.37301 0.583008H29.627C30.615 0.583008 31.417 1.38401 31.417 2.37301V29.627Z" fill="#F1EFEF"/>
<path d="M30.229 29.234C30.229 29.742 29.818 30.152 29.31 30.152H2.79199C2.28399 30.152 1.87299 29.741 1.87299 29.234V2.71501C1.87299 2.20801 2.28399 1.79601 2.79199 1.79601H29.31C29.818 1.79601 30.229 2.20801 30.229 2.71501V29.234Z" fill="#28397E"/>
<path d="M16.9137 21.6709C16.9137 22.1789 14.8016 30.153 14.4976 30.153H2.42299C2.11799 30.153 1.87299 29.742 1.87299 29.235V2.71501C1.87299 2.20801 2.11899 1.79601 2.42299 1.79601H16.9137C17.2177 1.79601 17.2147 3.20286 18.3223 3.20286L14.7747 15.3062L16.9137 21.6709Z" fill="#FAAC19"/>
<path d="M15.3423 2.07067C15.1962 2.21682 15.0774 2.39038 14.9769 2.57308L14.8582 2.83798C14.8582 2.83798 14.8034 3.10289 14.8034 3.13029L14.8673 4.34521C14.8673 4.34521 14.8856 4.42742 14.9221 4.45482L15.3423 4.64665L15.1048 5.04858C15.1048 5.04858 15.0683 5.09425 15.0409 5.09425C15.0409 5.09425 14.5385 5.10339 14.2918 5.12166C13.8351 5.13993 12.8029 5.72455 12.0447 7.3962C11.3048 9.04044 11.1769 9.31448 11.1769 9.31448C11.1586 9.34189 11.1312 9.36929 11.0947 9.36016H10.4005C10.4005 9.36016 10.3091 9.39669 10.2908 9.44237L9.21295 12.5847C9.21295 12.5847 9.21295 12.6852 9.23122 12.7217L9.98026 13.2059C9.98026 13.2059 10.0077 13.2515 10.0077 13.2789L9.61488 14.4756C9.61488 14.4756 9.59661 14.5304 9.58747 14.5487L9.06679 15.0237C9.06679 15.0237 9.03939 15.0511 9.03026 15.0693C9.03026 15.0785 9.03026 15.0876 9.02112 15.0967L8.30861 16.9876C8.30861 16.9876 8.27208 17.0424 8.23554 17.0424H7.83361C7.73313 17.0424 7.65092 17.1246 7.64178 17.2251L7.40428 20.0478C7.40428 20.0934 7.39514 20.1482 7.38601 20.1939L7.19418 21.3175C7.19418 21.3175 7.17591 21.3631 7.15764 21.3814L6.49081 21.9112C6.18936 22.2127 5.83311 22.3954 5.57734 23.1444L3.58598 27.7757C3.53117 27.8762 3.48549 28.0589 3.49463 28.1776L3.41242 28.68C3.41242 28.7805 3.54944 28.9358 3.50376 29.0272L2.68164 30.507H5.49513L5.60474 29.1368L5.68696 28.8536L9.68795 23.6651C9.79757 23.5189 9.95286 23.2723 10.0259 23.1079L12.0812 18.4309C12.1086 18.3761 12.1452 18.3396 12.2 18.3213L12.3279 18.2756C12.4101 18.2482 12.4923 18.2756 12.5471 18.3396C12.7298 18.5588 13.15 19.3078 13.351 19.6093C13.5245 19.8651 14.3649 21.1256 14.7394 21.5458C14.8399 21.6646 15.1596 21.7925 15.2967 21.8747C15.3423 21.9021 15.3606 21.966 15.3332 22.0117L14.1 24.2497L13.6067 26.8348C13.5885 26.8988 13.5702 26.9627 13.5611 27.0267L13.0221 28.9084C13.0221 29.1368 12.8577 29.2647 12.8394 29.5296L12.7115 30.4978H17.4707C17.5438 30.4065 17.5986 30.2969 17.6169 30.1781C17.6169 30.1781 17.6169 30.169 17.6169 30.1599C17.6169 30.1599 17.6169 30.1599 17.6169 30.1507C17.6169 30.1416 17.6169 30.1325 17.6169 30.1233C17.6169 30.1233 17.6169 30.1051 17.6169 30.0959C17.6169 30.0594 17.6077 30.032 17.5986 30.0137C17.5986 30.0137 17.5986 30.0046 17.5895 29.9954C17.5895 29.9954 17.5895 29.9954 17.5895 29.9863C17.5712 29.9589 17.5529 29.9498 17.5529 29.9498C17.5529 29.9498 17.5347 29.9406 17.5255 29.9406L16.1096 29.5022C16.0183 29.4748 15.9361 29.42 15.8813 29.3377L15.4976 28.7623C15.4976 28.7623 15.4885 28.6709 15.5159 28.6435L16.2558 27.8945C16.2558 27.8945 16.3015 27.8396 16.3106 27.8031L18.5851 22.2583C18.6948 21.9021 18.6582 21.5093 18.5851 21.0891C18.5303 20.7785 17.763 19.454 17.5621 19.0795C17.3885 18.7598 16.2832 16.7684 16.0274 16.3025C16 16.2477 15.9635 16.202 15.9087 16.1655C15.8721 16.1381 15.8356 16.1107 15.8082 16.0742C15.7808 16.0376 15.7625 16.0011 15.7534 15.9554L15.6712 14.5761C15.6712 14.5761 15.6803 14.5121 15.7169 14.5121L16.1096 14.4756C16.1096 14.4756 16.1827 14.4482 16.201 14.4116L17.5712 11.7534C17.5712 11.7534 17.5895 11.6712 17.5712 11.6347L17.288 11.2784C17.288 11.2784 17.2698 11.2054 17.288 11.1688L17.7082 10.703C17.7082 10.703 17.763 10.6573 17.7996 10.6756L18.914 11.3241C18.9779 11.3607 19.0602 11.3881 19.1332 11.3881C19.4438 11.3881 19.9554 11.1962 20.2203 11.0318C20.2933 10.9861 20.3481 10.9222 20.3847 10.8491L20.878 9.65247C20.9054 9.59766 20.9784 9.60679 20.9876 9.6616L21.1155 10.2645C21.1246 10.3102 21.1611 10.3376 21.2068 10.3284L22.8237 9.95391C22.8237 9.95391 22.8967 9.8991 22.8876 9.85343L22.5039 8.19091C22.5039 8.19091 22.5039 8.14524 22.5131 8.12697L22.6684 7.8712C22.6684 7.8712 22.7049 7.80726 22.714 7.77072L22.9059 6.87552C22.9059 6.87552 22.9333 6.83898 22.9515 6.83898H27.4093C27.4732 6.83898 27.5189 6.79331 27.5189 6.72936V5.94378C27.5189 5.94378 27.528 5.91637 27.5463 5.91637H29.2636C29.2636 5.91637 29.3184 5.88897 29.3184 5.86157V5.50531C29.3184 5.50531 29.291 5.4505 29.2636 5.4505H27.5463C27.5463 5.4505 27.5189 5.44137 27.5189 5.4231C27.5189 5.32262 27.5189 4.96637 27.5189 4.90242C27.5189 4.81108 27.4549 4.738 27.3819 4.738C27.3362 4.738 27.2997 4.7654 27.2722 4.80194C27.2631 4.82021 27.0987 5.06685 26.9982 5.213C26.9982 5.213 26.9799 5.22214 26.9708 5.22214H19.1424C19.1424 5.22214 19.0876 5.19473 19.0876 5.16733L19.0693 4.9481C19.0693 4.9481 19.0967 4.88415 19.1332 4.89329L19.5352 4.92983C19.5352 4.92983 19.5991 4.91156 19.6082 4.87502L19.9005 3.65097C19.9005 3.65097 19.9005 3.59616 19.864 3.58703L19.59 3.48655C19.59 3.48655 19.5626 3.46828 19.5626 3.45001C19.5169 3.25818 19.1698 2.0524 17.6443 1.6048H16.0366C15.7169 1.73268 15.4611 1.92451 15.2967 2.08894L15.3423 2.07067Z" fill="#F2EFEF"/>
</g>
<defs>
<clipPath id="clip0_0_229">
<rect width="32" height="32" fill="white"/>
</clipPath>
</defs>
</svg>
