<svg width="694" height="64" viewBox="0 0 694 64" fill="none" xmlns="http://www.w3.org/2000/svg">
<path d="M97.1817 49.0513C95.0177 54.1335 90.0296 57.4321 84.5068 57.4321H53.737C48.7961 57.4321 45.4616 52.3823 47.4029 47.8361L56.3424 26.9065C58.5091 21.8324 63.4946 18.5406 69.0105 18.5406H99.7804C104.723 18.5406 108.056 23.5918 106.114 28.1366L97.1817 49.05V49.0513ZM87.1136 46.4792L95.3066 27.2859H62.2256L66.4564 29.3869L58.2634 48.5707H83.9466C85.3263 48.5707 86.5723 47.747 87.1136 46.4778V46.4792Z" fill="white"/>
<path d="M127.521 18.542L114.827 48.5518L137.812 48.5572C139.198 48.5572 140.449 47.7268 140.987 46.4495L151.075 22.7276C152.158 20.1825 154.656 18.5312 157.423 18.5352L163.974 18.5433L151.032 49.027C148.872 54.116 143.88 57.4199 138.352 57.4199H110.163C105.219 57.4199 101.886 52.3661 103.83 47.8213L114.566 22.7236C115.65 20.1879 118.142 18.5447 120.899 18.5447H127.522L127.521 18.542Z" fill="white"/>
<path d="M228.481 57.4321H221.954L234.82 27.2819C234.317 27.2819 220.598 27.2846 220.598 27.2846L224.356 18.542H263.853L261.241 24.7341C260.618 26.2139 258.841 27.2846 257.104 27.2846H245.865L234.818 53.2411C233.737 55.7822 231.242 57.4321 228.48 57.4321H228.481Z" fill="white"/>
<path d="M353.236 57.4321H341.634L336.849 48.5707H316.316L314.319 53.2478C313.236 55.7862 310.743 57.4321 307.984 57.4321H301.363L317.963 18.542H354.886C359.826 18.542 363.161 23.5918 361.221 28.1366L354.065 44.9035C353.116 47.1287 350.93 48.572 348.511 48.572L353.236 57.4335V57.4321ZM356.866 38.1673L350.72 27.2846L320.282 27.3116L324.494 29.3504L320.006 39.9226H343.076C344.458 39.9226 345.706 39.0963 346.246 37.8244L350.718 27.286L356.866 38.1673Z" fill="white"/>
<path d="M298.75 34.6946H273.745L276.031 29.341L271.722 27.2819H305.155C306.535 27.2819 307.782 26.4583 308.324 25.1891L311.158 18.542H274.019C271.26 18.542 268.768 20.1893 267.684 22.7263L254.919 52.6348C253.949 54.9072 255.615 57.4321 258.086 57.4321H292.282C293.664 57.4321 294.912 56.6058 295.452 55.3339L298.323 48.5707H267.783L270.492 42.2692H293.23C294.607 42.2692 295.851 41.4483 296.395 40.1832L298.75 34.6946Z" fill="white"/>
<path d="M9.48471 26.8701C11.6622 21.8162 16.6369 18.5433 22.138 18.5433L54.8343 18.5474L51.9966 25.1945C51.4553 26.4637 50.2093 27.2873 48.8296 27.2873H15.1654L19.6068 29.3882L11.4273 48.572H42.0204L39.1314 55.3406C38.5901 56.6098 37.3441 57.4335 35.9644 57.4335H6.89547C1.95727 57.4335 -1.3758 52.3904 0.557355 47.8456L9.48471 26.8701Z" fill="white"/>
<path d="M167.771 53.2451C166.688 55.7835 164.195 57.4321 161.435 57.4321H154.816L171.416 18.542L179.709 18.5352C180.986 18.5352 182.159 19.24 182.755 20.3702L195.999 45.4341L205.731 22.7249C206.815 20.1946 209.301 18.5528 212.054 18.5501L218.777 18.542L203.054 55.3406C202.512 56.6085 201.266 57.4321 199.887 57.4321H192.846C191.571 57.4321 190.4 56.7273 189.804 55.5999L177.046 31.5148L167.769 53.2451H167.771Z" fill="white"/>
<path d="M613.569 46.6197H610.094L600.644 46.6062L595.951 57.4321H585.098L601.725 18.542H612.551L604.715 36.9008L630.427 19.1523C631.002 18.7554 631.684 18.542 632.383 18.542H648.658L619.85 38.5859L632.85 57.4335H620.958L613.569 46.621" fill="white"/>
<path d="M484.242 57.4321H477.715L490.58 27.2819C490.078 27.2819 476.358 27.2846 476.358 27.2846L480.117 18.542H519.614L517.002 24.7341C516.378 26.2139 514.602 27.2846 512.864 27.2846H501.626L490.579 53.2411C489.498 55.7822 487.003 57.4321 484.241 57.4321H484.242Z" fill="white"/>
<path d="M581.672 18.542H592.802L587.079 32.0009L577.401 54.7857C576.776 56.2669 574.914 57.4227 573.174 57.4227H565.073L581.671 18.5434L581.672 18.542Z" fill="white"/>
<path d="M560.243 57.4321H548.641L543.855 48.5707H523.322L521.326 53.2478C520.243 55.7862 517.75 57.4321 514.99 57.4321H508.37L524.969 18.542H561.892C566.833 18.542 570.168 23.5918 568.228 28.1366L561.072 44.9035C560.123 47.1287 557.937 48.5721 555.518 48.5721L560.243 57.4335V57.4321ZM563.873 38.1673L557.726 27.2846L527.289 27.3116L531.501 29.3505L527.013 39.9226H550.083C551.465 39.9226 552.713 39.0963 553.253 37.8244L557.725 27.286L563.873 38.1673Z" fill="white"/>
<path d="M681.06 34.6946H656.056L658.341 29.341L654.032 27.2819H687.466C688.845 27.2819 690.093 26.4583 690.634 25.1891L693.469 18.542H656.33C653.571 18.542 651.079 20.1893 649.995 22.7263L637.229 52.6348C636.26 54.9073 637.926 57.4321 640.396 57.4321H674.592C675.975 57.4321 677.222 56.6058 677.762 55.3339L680.634 48.5707H650.093L652.803 42.2693H675.54C676.917 42.2693 678.162 41.4483 678.706 40.1832L681.06 34.6946Z" fill="white"/>
<path d="M453.515 42.3516L450.861 48.5707H419.521C418.144 48.5707 416.9 49.3903 416.356 50.6554L413.444 57.4321H448.835C454.352 57.4321 459.339 54.139 461.505 49.0635L464.099 42.9849C466.039 38.4401 462.705 33.3903 457.764 33.3903H434.585L436.287 29.3856L431.956 27.2846H468.522C469.903 27.2846 471.152 26.4597 471.692 25.1878L474.516 18.542H439.128C433.597 18.542 428.603 21.85 426.445 26.943L425.003 30.3456L423.973 32.7719C422.045 37.3154 425.378 42.353 430.314 42.353H453.515H432.845" fill="white"/>
<path d="M422.304 8.62617C422.273 8.62617 422.246 8.59996 422.246 8.56876C422.249 8.3516 422.255 7.58278 422.256 7.438C422.256 7.23831 422.116 7.0773 421.942 7.0773C421.84 7.0773 421.751 7.13222 421.692 7.21709C421.662 7.25952 421.303 7.78247 421.082 8.10323C421.07 8.1207 421.051 8.13068 421.03 8.13068H403.569C403.5 8.13068 403.444 8.07577 403.443 8.00712L403.408 7.53535C403.406 7.45547 403.479 7.39307 403.558 7.40805L404.45 7.49291C404.528 7.49916 404.598 7.44923 404.617 7.37435L405.267 4.73715C405.281 4.676 405.247 4.61359 405.189 4.59237L404.584 4.36647C404.549 4.35274 404.523 4.32404 404.514 4.28784C404.404 3.82855 403.51 0.758269 399.2 0.071824C397.104 -0.261414 395.73 0.633461 394.997 1.34736C394.671 1.66438 394.402 2.03506 394.193 2.43943L393.935 3.00606C393.913 3.04975 393.813 3.58143 393.813 3.6301L393.949 6.24733C393.949 6.33719 393.992 6.42081 394.061 6.47573L395.007 6.88385L394.485 7.74877C394.467 7.81242 394.41 7.85611 394.344 7.85611C394.344 7.85611 393.232 7.88481 392.684 7.90728C391.656 7.94846 389.367 9.20279 387.68 12.8097C386.023 16.3518 385.75 16.9421 385.75 16.9421C385.716 17.0095 385.644 17.052 385.568 17.0482L384.028 17.0532C383.933 17.0532 383.832 17.1293 383.792 17.2155L381.398 23.9963C381.358 24.0824 381.382 24.2122 381.445 24.2846L383.115 25.3292C383.162 25.3679 383.182 25.4291 383.168 25.4865L382.295 28.0638C382.284 28.1212 382.263 28.1774 382.233 28.2285L381.075 29.2482C381.045 29.2744 381.017 29.3069 381.001 29.3431C380.992 29.363 380.985 29.3843 380.979 29.4055L379.385 33.488C379.364 33.5603 379.298 33.609 379.223 33.609L378.329 33.614C378.104 33.614 377.917 33.7875 377.897 34.0109L377.362 40.1128C377.352 40.2201 377.338 40.3274 377.32 40.4348L376.898 42.856C376.881 42.9122 376.85 42.9621 376.809 43.0033L375.32 44.1403C374.638 44.7918 373.724 45.9812 373.277 46.8112L368.319 57.2739C368.199 57.496 368.103 57.8792 368.109 58.1326L368.462 58.7603C368.467 58.985 368.377 59.976 368.273 60.1757L366.612 63.0787C366.575 63.1498 366.572 63.2335 366.605 63.3071L366.687 63.4956L366.936 63.9911L371.977 63.9985C372.289 64.0273 372.635 63.6266 372.645 63.1973L372.919 59.7401L372.848 59.2196L382.46 47.9345C382.711 47.6287 383.052 47.0895 383.223 46.7326L387.804 36.6281C387.857 36.517 387.953 36.4322 388.071 36.3935L388.361 36.2999C388.537 36.2425 388.729 36.2986 388.848 36.4409C389.248 36.9227 390.191 38.524 390.651 39.1917C391.031 39.7458 392.915 42.4729 393.738 43.3715C393.965 43.6186 394.666 43.8994 394.979 44.0904C395.082 44.1528 395.115 44.2851 395.057 44.3887L392.312 49.2113L391.099 54.9063C391.057 55.0386 391.024 55.1759 391.004 55.3131L389.907 59.2683C389.914 59.7675 389.531 60.0296 389.499 60.6187L389.1 63.5093C389.095 63.5979 389.166 63.6728 389.255 63.6728L396.037 63.7102H396.042C396.051 63.7102 396.52 63.704 396.798 63.6928C396.85 63.6903 396.94 63.6815 396.999 63.674C397.903 63.5592 398.521 63.4357 398.942 63.2934C398.961 63.2871 398.979 63.2809 398.998 63.2734C399.29 63.1698 399.48 63.055 399.603 62.9277C399.834 62.6868 400.101 62.391 400.141 62.0104C400.142 61.9954 400.143 61.9816 400.145 61.9667C400.145 61.9579 400.145 61.9479 400.146 61.9392C400.146 61.918 400.146 61.898 400.146 61.8768C400.146 61.8743 400.146 61.8706 400.146 61.8681C400.146 61.8493 400.143 61.8306 400.141 61.8132C400.132 61.737 400.115 61.6796 400.095 61.6334C400.095 61.6334 400.095 61.6334 400.095 61.6322C400.095 61.6309 400.093 61.6297 400.092 61.6284C400.086 61.6135 400.078 61.601 400.071 61.5885C400.066 61.581 400.062 61.5735 400.056 61.566C400.017 61.5124 399.98 61.4924 399.975 61.4899C399.956 61.4787 399.936 61.4687 399.915 61.4612L396.765 60.5114C396.563 60.449 396.387 60.3242 396.262 60.1545L395.416 58.9039C395.375 58.8165 395.394 58.7117 395.463 58.6443L397.11 57.0205C397.166 56.9669 397.21 56.9007 397.238 56.8283L402.312 44.8605C402.55 44.1004 402.471 43.2455 402.312 42.3418C402.195 41.6741 400.485 38.8048 400.038 38.0122C399.645 37.3133 397.192 33.0237 396.61 32.0077C396.544 31.8929 396.458 31.7906 396.349 31.7157C396.272 31.662 396.196 31.5934 396.133 31.521C396.071 31.4486 396.026 31.3637 396.001 31.2714L395.807 28.2922C395.79 28.2273 395.835 28.1624 395.902 28.1574L396.785 28.0838C396.869 28.0763 396.944 28.0276 396.982 27.954L400.04 22.209C400.082 22.1304 400.08 22.0343 400.033 21.9582L399.408 21.1831C399.365 21.112 399.364 21.0221 399.405 20.9497L400.342 19.9375C400.381 19.8676 400.468 19.8439 400.538 19.8826L403.028 21.2867C403.179 21.3716 403.35 21.4215 403.524 21.4215C404.214 21.4165 405.352 21.0084 405.944 20.6464C406.1 20.5503 406.229 20.4143 406.314 20.252L407.535 17.3977C407.551 17.3615 407.605 17.3665 407.613 17.4052L407.953 18.9927C407.976 19.0926 408.063 19.1487 408.163 19.1263L411.76 18.3263C411.855 18.305 411.914 18.2114 411.894 18.1166L411.046 14.5333C411.034 14.4847 411.043 14.4335 411.071 14.3911L411.42 13.8481C411.464 13.7807 411.496 13.7071 411.516 13.631L411.94 11.6977C411.951 11.6478 411.995 11.6116 412.046 11.6116L421.995 11.6241C422.135 11.6241 422.244 11.5167 422.244 11.3757V9.68579C422.244 9.65459 422.27 9.62838 422.301 9.62838H426.138C426.205 9.62838 426.261 9.57347 426.261 9.50482V8.74349C426.261 8.6761 426.206 8.61993 426.138 8.61993H422.3L422.304 8.62617Z" fill="white"/>
</svg>
