<svg width="1196" height="64" viewBox="0 0 1196 64" fill="none" xmlns="http://www.w3.org/2000/svg">
<path d="M951.47 46.2084H945.751L930.197 46.1862L922.473 63.9978H904.608L931.977 0.0133667H949.795L936.899 30.2184L979.219 1.01746C980.165 0.364356 981.288 0.0133667 982.439 0.0133667H1009.23L961.809 32.9908L983.207 64H963.634L951.47 46.2106" fill="white"/>
<path d="M1176.71 39.1864H1128.31L1123.94 49.4184H1171.25C1175.31 49.4184 1178.06 53.5725 1176.46 57.3112L1173.6 63.9978H1099.53L1110.54 38.2112C1114.1 29.8608 1122.31 24.4427 1131.39 24.4427H1172.31L1176.59 14.3973H1120.7L1126.85 0.0133667H1183.76C1191.89 0.0133667 1197.38 8.32159 1194.19 15.799L1187.14 32.3044C1185.36 36.4807 1181.25 39.1886 1176.71 39.1886V39.1864Z" fill="white"/>
<path d="M159.957 50.2093C156.396 58.5708 148.185 63.9978 139.095 63.9978H88.4488C80.3163 63.9978 74.8279 55.6896 78.0232 48.21L92.7373 13.7753C96.3036 5.42926 104.507 0.0133667 113.589 0.0133667H164.235C172.37 0.0133667 177.856 8.32381 174.66 15.8012L159.957 50.2093ZM143.386 45.9774L156.871 14.3995H102.421L109.385 17.8561L95.8992 49.4184H138.173C140.444 49.4184 142.495 48.0633 143.386 45.9752V45.9774Z" fill="white"/>
<path d="M209.895 0.0133409L189.001 49.3873L226.833 49.3962C229.115 49.3962 231.175 48.03 232.059 45.9285L248.664 6.89984C250.444 2.71018 254.559 -0.00665212 259.11 1.2233e-05L269.893 0.0133409L248.591 50.167C245.036 58.5397 236.819 63.9756 227.72 63.9756H181.322C173.185 63.9756 167.699 55.6607 170.899 48.1833L188.57 6.89095C190.354 2.71907 194.456 0.0133409 198.994 0.0133409H209.895Z" fill="white"/>
<path d="M376.072 63.9978H365.329L386.505 14.3928C385.678 14.3928 363.096 14.3973 363.096 14.3973L369.284 0.0133667H434.295L429.996 10.2009C428.969 12.6356 426.045 14.3973 423.185 14.3973H404.687L386.505 57.1024C384.725 61.2832 380.618 63.9978 376.072 63.9978Z" fill="white"/>
<path d="M738.604 63.9978H727.861L749.037 14.3928C748.21 14.3928 725.628 14.3973 725.628 14.3973L731.816 0.0133667H796.828L792.528 10.2009C791.502 12.6356 788.577 14.3973 785.718 14.3973H767.219L749.037 57.1024C747.257 61.2832 743.151 63.9978 738.604 63.9978Z" fill="white"/>
<path d="M898.97 0.0133667H917.288L907.869 22.1568L891.94 59.6438C890.911 62.0807 887.847 63.9822 884.983 63.9822H871.648L898.97 0.0133667Z" fill="white"/>
<path d="M581.415 63.9978H562.319L554.442 49.4184H520.645L517.359 57.1135C515.577 61.2899 511.473 63.9978 506.931 63.9978H496.034L523.356 0.0133667H584.13C592.263 0.0133667 597.751 8.32159 594.558 15.799L582.779 43.385C581.217 47.0459 577.62 49.4206 573.638 49.4206L581.415 64V63.9978ZM587.39 32.3021L577.273 14.3973L527.173 14.4417L534.106 17.7961L526.72 35.19H564.692C566.967 35.19 569.02 33.8305 569.909 31.7379L577.271 14.3995L587.39 32.3021Z" fill="white"/>
<path d="M863.699 63.9978H844.603L836.726 49.4184H802.929L799.643 57.1135C797.861 61.2899 793.757 63.9978 789.215 63.9978H778.318L805.642 0.0133667H866.416C874.549 0.0133667 880.037 8.32159 876.844 15.799L865.065 43.385C863.503 47.0459 859.906 49.4206 855.924 49.4206L863.701 64L863.699 63.9978ZM869.674 32.3021L859.557 14.3973L809.458 14.4417L816.39 17.7961L809.004 35.19H846.976C849.251 35.19 851.305 33.8305 852.193 31.7379L859.555 14.3995L869.674 32.3021Z" fill="white"/>
<path d="M491.732 26.5886H450.576L454.338 17.7805L447.245 14.3928H502.275C504.546 14.3928 506.599 13.0377 507.49 10.9496L512.157 0.0133667H451.027C446.485 0.0133667 442.383 2.72354 440.599 6.89764L419.588 56.105C417.992 59.8437 420.734 63.9978 424.801 63.9978H481.086C483.362 63.9978 485.415 62.6383 486.304 60.5457L491.03 49.4184H440.761L445.221 39.0509H482.646C484.913 39.0509 486.961 37.7003 487.857 35.6188L491.732 26.5886Z" fill="white"/>
<path d="M1062.56 26.5886H1021.4L1025.17 17.7805L1018.07 14.3928H1073.1C1075.37 14.3928 1077.43 13.0377 1078.32 10.9496L1082.98 0.0133667H1021.85C1017.31 0.0133667 1013.21 2.72354 1011.43 6.89764L990.415 56.105C988.82 59.8437 991.562 63.9978 995.628 63.9978H1051.91C1054.19 63.9978 1056.24 62.6383 1057.13 60.5457L1061.86 49.4184H1011.59L1016.05 39.0509H1053.47C1055.74 39.0509 1057.79 37.7003 1058.68 35.6188L1062.56 26.5886Z" fill="white"/>
<path d="M15.6115 13.713C19.1956 5.40036 27.3837 0.0133432 36.4384 0.0155647L90.2554 0.022229L85.5847 10.9584C84.6937 13.0466 82.6428 14.4017 80.3719 14.4017H24.9617L32.2721 17.8583L18.809 49.4206H69.1641L64.409 60.5567C63.518 62.6449 61.4671 64 59.1962 64H11.3497C3.22161 64 -2.26453 55.7029 0.917388 48.2255L15.6115 13.713Z" fill="white"/>
<path d="M276.144 57.109C274.362 61.2853 270.258 63.9977 265.716 63.9977H254.821L282.141 0.0133045L295.791 0.00219727C297.893 0.00219727 299.824 1.16179 300.806 3.02115L322.604 44.2579L338.622 6.89536C340.406 2.73236 344.499 0.0310761 349.03 0.0266332L360.095 0.0133045L334.216 60.5567C333.325 62.6426 331.274 63.9977 329.003 63.9977H317.415C315.315 63.9977 313.389 62.8381 312.407 60.9832L291.409 21.357L276.139 57.109H276.144Z" fill="white"/>
<path d="M688.029 39.1864L683.661 49.4184H632.074C629.808 49.4184 627.762 50.7668 626.866 52.8483L622.073 63.9978H680.325C689.407 63.9978 697.615 58.5797 701.179 50.2292L705.45 40.2283C708.643 32.7509 703.154 24.4427 695.022 24.4427H656.87L659.672 17.8538L652.544 14.3973H712.729C715.002 14.3973 717.057 13.04 717.946 10.9473L722.595 0.0133667H664.347C655.243 0.0133667 647.024 5.45592 643.471 13.8352L641.098 19.4333L639.403 23.4252C636.23 30.9004 641.716 39.1886 649.839 39.1886H688.029H654.006" fill="white"/>
</svg>
