<svg width="333" height="64" viewBox="0 0 333 64" fill="none" xmlns="http://www.w3.org/2000/svg">
<path d="M65.1993 20.4662C63.7464 23.875 60.3999 26.0876 56.6966 26.0876H36.0531C32.7393 26.0876 30.5005 22.7022 31.8041 19.6525L37.8022 5.61656C39.2551 2.21482 42.6016 0.00683594 46.3002 0.00683594H66.9437C70.2599 0.00683594 72.4963 3.39459 71.1927 6.44193L65.1993 20.4662ZM58.4456 18.7432L63.9423 5.8707H41.748L44.5862 7.27896L39.0895 20.1445H56.3211C57.2469 20.1445 58.0818 19.5919 58.4456 18.7409V18.7432Z" fill="white"/>
<path d="M85.5536 0.00721765L77.0369 20.1332L92.4565 20.1379C93.387 20.1379 94.2265 19.5806 94.5857 18.7249L101.353 2.81674C102.079 1.11004 103.755 0.00255493 105.612 0.00488649L110.008 0.00954882L101.325 20.4526C99.8771 23.866 96.526 26.081 92.818 26.081H73.9049C70.5887 26.081 68.3523 22.6909 69.6559 19.6436L76.8597 2.81208C77.5873 1.11237 79.2593 0.00954882 81.1087 0.00954882H85.5513L85.5536 0.00721765Z" fill="white"/>
<path d="M153.288 26.088H148.909L157.539 5.86874C157.204 5.86874 147.999 5.86874 147.999 5.86874L150.52 0.00488281H177.019L175.268 4.15738C174.85 5.15063 173.656 5.86874 172.493 5.86874H164.953L157.542 23.2761C156.817 24.9805 155.142 26.0857 153.29 26.0857L153.288 26.088Z" fill="white"/>
<path d="M236.986 26.0876H229.202L225.991 20.1445H212.215L210.877 23.2804C210.151 24.9825 208.477 26.0876 206.625 26.0876H202.183L213.318 0.00683594H238.089C241.403 0.00683594 243.642 3.39225 242.341 6.44193L237.539 17.687C236.902 19.1792 235.436 20.1468 233.812 20.1468L236.982 26.0899L236.986 26.0876ZM239.421 13.1661L235.298 5.86837L214.878 5.88702L217.705 7.25331L214.694 14.3436H230.172C231.1 14.3436 231.937 13.7887 232.299 12.9353L235.3 5.86837L239.426 13.1661H239.421Z" fill="white"/>
<path d="M6.3636 5.59091C7.82348 2.20083 11.163 0.00683594 14.8523 0.00683594H36.7877L34.8848 4.4671C34.521 5.31812 33.6861 5.8707 32.7602 5.8707H10.1742L13.1546 7.27896L7.66723 20.1445H28.1917L26.2538 24.684C25.89 25.535 25.0551 26.0876 24.1293 26.0876H4.62622C1.31235 26.0876 -0.924099 22.7045 0.374861 19.6572L6.3636 5.59091Z" fill="white"/>
<path d="M112.556 23.2782C111.831 24.9803 110.157 26.0854 108.305 26.0854H103.865L115 0.00466322L120.565 0C121.421 0 122.209 0.473305 122.61 1.23106L131.495 18.0392L138.025 2.80952C138.752 1.11215 140.42 0.0116571 142.267 0.00932555L146.777 0.00466322L136.229 24.6842C135.865 25.5352 135.03 26.0878 134.105 26.0878H129.382C128.526 26.0878 127.74 25.6145 127.342 24.859L118.783 8.70603L112.559 23.2782H112.556Z" fill="white"/>
<path d="M200.431 10.8392H183.656L185.191 7.24865L182.299 5.86837H204.729C205.655 5.86837 206.492 5.31579 206.854 4.46477L208.756 0.00683594H183.841C181.989 0.00683594 180.317 1.11199 179.589 2.81403L171.026 22.8724C170.375 24.3972 171.492 26.0899 173.151 26.0899H196.093C197.022 26.0899 197.859 25.535 198.22 24.6817L200.146 20.1468H179.657L181.474 15.9197H196.728C197.651 15.9197 198.486 15.3695 198.852 14.5208L200.431 10.8392Z" fill="white"/>
<path d="M180.348 56.7533H178.02L171.687 56.7443L168.543 63.9989H161.27L172.412 37.938H179.666L174.416 50.2406L191.645 38.347C192.031 38.0809 192.488 37.938 192.956 37.938H203.863L184.558 51.3697L193.269 63.9998H185.3L180.348 56.7542" fill="white"/>
<path d="M93.685 63.9989H89.311L97.9322 43.7948C97.5957 43.7948 88.4019 43.7966 88.4019 43.7966L90.9204 37.938H117.388L115.638 42.0874C115.22 43.0791 114.029 43.7966 112.865 43.7966H105.334L97.9313 61.1904C97.2067 62.8933 95.5349 63.9989 93.6841 63.9989H93.685Z" fill="white"/>
<path d="M158.975 37.938H166.432L162.598 46.957L156.112 62.2255C155.693 63.2181 154.446 63.9926 153.28 63.9926H147.851L158.974 37.9389L158.975 37.938Z" fill="white"/>
<path d="M144.614 63.9989H136.84L133.633 58.0607H119.873L118.535 61.195C117.81 62.896 116.139 63.9989 114.29 63.9989H109.854L120.977 37.938H145.72C149.031 37.938 151.265 41.3219 149.965 44.3675L145.17 55.6033C144.534 57.0944 143.069 58.0616 141.448 58.0616L144.614 63.9998V63.9989ZM147.047 51.0893L142.928 43.7966L122.531 43.8147L125.354 45.1809L122.347 52.2655H137.806C138.732 52.2655 139.568 51.7118 139.93 50.8594L142.927 43.7975L147.047 51.0893Z" fill="white"/>
<path d="M225.576 48.7621H208.82L210.351 45.1746L207.464 43.7948H229.868C230.793 43.7948 231.629 43.2428 231.991 42.3923L233.891 37.938H209.003C207.154 37.938 205.484 39.0418 204.758 40.742L196.204 60.7842C195.554 62.307 196.671 63.9989 198.326 63.9989H221.241C222.168 63.9989 223.004 63.4452 223.366 62.5929L225.29 58.0607H204.824L206.64 53.838H221.877C222.799 53.838 223.633 53.2879 223.998 52.4401L225.576 48.7621Z" fill="white"/>
<path d="M73.0946 53.8932L71.3161 58.0607H50.314C49.3912 58.0607 48.558 58.61 48.1935 59.4578L46.2422 63.9989H69.9582C73.6555 63.9989 76.9972 61.7921 78.4482 58.391L80.187 54.3176C81.4869 51.272 79.2524 47.8881 75.9415 47.8881H60.4088L61.5496 45.2044L58.6475 43.7966H83.1505C84.076 43.7966 84.9128 43.2437 85.2746 42.3914L87.1671 37.938H63.4529C59.7466 37.938 56.4004 40.1547 54.9538 43.5677L53.9877 45.8477L53.2975 47.4737C52.0056 50.5183 54.2392 53.8941 57.5466 53.8941H73.0946H59.2427" fill="white"/>
<path d="M314.352 38.1826H314.137H265.731H265.07L264.811 38.79L260.443 49.0245L259.848 50.4171H261.362H308.67C312.02 50.4171 314.279 53.8393 312.964 56.9189L312.964 56.9192L310.368 63H238.462L248.878 38.5998C252.288 30.6157 260.132 25.4352 268.813 25.4352H309.73H310.391L310.65 24.8278L314.939 14.78L315.533 13.3874H314.019H259.642L264.933 1H321.185C328.601 1 333.605 8.5774 330.694 15.3968L323.645 31.9062L323.645 31.9065C322.049 35.6489 318.408 38.0987 314.352 38.1826Z" fill="white" fill-opacity="0.1" stroke="white" stroke-width="2"/>
</svg>
