<svg width="1254" height="627" viewBox="0 0 1254 627" fill="none" xmlns="http://www.w3.org/2000/svg">
<g clip-path="url(#clip0_0_241)">
<path d="M175.509 290.449L139.007 273.187H416.3C427.682 273.187 437.887 266.322 442.4 255.925L465.753 201.197H196.507C151.174 201.197 110.159 228.07 92.3012 269.656L18.5135 442.277C2.61778 479.743 30.0919 521.133 70.7144 521.133H310.132C321.514 521.133 331.719 514.267 336.232 503.871L359.978 448.162H108.197L175.509 290.253V290.449Z" fill="white"/>
<path d="M955.578 201.197C910.049 201.197 868.838 228.463 851.176 270.441L839.205 298.492L830.767 318.5C814.871 355.966 842.345 397.356 882.968 397.356H1074.11L1052.33 448.554H794.265C782.883 448.554 772.679 455.223 768.165 465.62L744.223 521.329H1035.65C1081.17 521.329 1122.19 494.259 1140.05 452.477L1161.44 402.456C1177.33 364.99 1150.06 323.404 1109.24 323.404H918.292L932.225 290.449L896.509 273.187H1197.74C1209.12 273.187 1219.33 266.322 1223.84 255.925L1247.2 201.197H955.774H955.578Z" fill="white"/>
<path d="M774.837 207.277C774.837 207.277 776.015 206.297 776.015 205.512L769.146 176.284C769.146 176.284 769.146 175.5 769.343 175.107L772.286 170.596C772.286 170.596 772.875 169.419 773.071 168.83L776.604 153.137C776.604 153.137 776.996 152.353 777.389 152.353H858.437C859.615 152.353 860.4 151.568 860.4 150.391V136.66C860.4 136.66 860.596 136.268 860.792 136.268H891.995C891.995 136.268 892.976 135.875 892.976 135.287V129.01C892.976 129.01 892.584 128.029 891.995 128.029H860.792C860.792 128.029 860.4 127.833 860.4 127.637C860.4 125.871 860.4 119.594 860.4 118.417C860.4 116.848 859.222 115.475 857.848 115.475C857.064 115.475 856.279 115.867 855.886 116.652C855.69 117.044 852.746 121.163 850.98 123.91C850.98 123.91 850.784 124.106 850.587 124.106H708.507C708.507 124.106 707.526 123.713 707.526 123.125V119.202C707.526 119.202 707.722 118.025 708.507 118.221L715.768 119.006C715.768 119.006 716.945 118.613 717.142 118.025L722.44 96.6435C722.44 96.6435 722.44 95.6627 721.851 95.4665L716.945 93.7011C716.945 93.7011 716.357 93.3087 716.357 93.1126C715.375 89.3856 708.114 64.4733 673.183 58.7847C656.11 56.0384 644.924 63.2963 639.037 69.1811C636.289 71.7312 634.131 74.8697 632.561 78.0083L630.402 82.7161C630.402 82.7161 629.421 87.424 629.421 87.8163L630.598 109.198C630.598 109.198 630.991 110.571 631.579 110.963L639.233 114.298L634.915 121.36C634.915 121.36 634.327 122.144 633.738 122.144C633.738 122.144 624.711 122.34 620.197 122.537C611.759 122.929 593.116 133.129 579.378 162.357C565.838 191.192 563.679 195.9 563.679 195.9C563.483 196.489 562.894 196.881 562.109 196.685H549.549C549.549 196.685 547.979 197.273 547.587 198.058L528.159 253.179C528.159 253.179 528.159 254.944 528.551 255.533L542.092 263.968C542.092 263.968 542.681 264.752 542.485 265.341L535.42 286.33C535.42 286.33 535.224 287.311 534.831 287.703L525.411 295.942C525.411 295.942 525.019 296.334 524.823 296.726C524.823 296.726 524.823 297.119 524.823 297.315L511.871 330.466C511.871 330.466 511.086 331.447 510.497 331.447H503.236C501.47 331.447 499.9 332.82 499.703 334.781L495.386 384.41C495.386 384.41 495.386 386.175 494.994 386.96L491.461 406.576C491.461 406.576 491.069 407.36 490.676 407.753L478.509 416.972C473.014 422.268 465.557 431.88 461.828 438.746L421.402 523.879C420.421 525.645 419.636 528.783 419.636 530.941L422.58 536.041C422.58 537.806 421.795 545.849 421.01 547.614L407.469 571.154C407.469 571.154 407.076 572.331 407.469 572.919L408.058 574.488L410.02 578.608H451.035C453.586 578.804 456.334 575.665 456.53 572.134L458.689 544.084L458.1 539.768L536.401 447.965C538.364 445.415 541.307 441.1 542.681 438.157L579.967 355.966C579.967 355.966 581.145 354.397 582.126 354.005L584.481 353.22C585.855 352.828 587.425 353.22 588.406 354.397C591.742 358.32 599.395 371.267 603.124 376.759C606.264 381.271 621.571 403.437 628.243 410.695C630.009 412.657 635.7 415.011 638.252 416.58C639.037 417.168 639.429 418.149 638.84 418.934L616.469 458.166L606.656 504.459C606.264 505.636 606.068 506.617 605.871 507.794L596.844 539.964C596.844 544.084 593.704 546.241 593.508 550.949L590.172 574.488C590.172 574.488 590.761 575.861 591.349 575.861L646.494 576.254C646.494 576.254 650.419 576.254 652.577 576.254C652.97 576.254 653.755 576.254 654.147 576.254C661.408 575.273 666.511 574.292 670.043 573.115H670.436C672.791 572.331 674.361 571.35 675.342 570.369C677.304 568.407 679.463 566.053 679.659 562.915C679.659 562.915 679.659 562.719 679.659 562.523C679.659 562.523 679.659 562.523 679.659 562.326C679.659 562.326 679.659 561.934 679.659 561.738V561.346C679.659 560.757 679.463 560.169 679.267 559.973C679.267 559.973 679.267 559.776 679.267 559.58C678.874 559.188 678.678 558.992 678.678 558.992C678.678 558.992 678.285 558.992 678.285 558.796L652.577 551.145C651.008 550.557 649.438 549.576 648.456 548.203L641.588 538.003C641.588 538.003 641.588 536.433 641.98 535.845L655.325 522.702C655.325 522.702 656.11 521.721 656.306 521.133L697.517 423.642C699.48 417.364 698.891 410.499 697.517 403.045C696.536 397.552 682.603 374.209 679.07 367.736C675.93 362.047 655.914 327.131 651.204 318.892C650.615 317.912 650.026 317.127 649.045 316.538C648.456 316.146 647.868 315.558 647.279 314.969C646.69 314.381 646.494 313.596 646.298 313.008L644.728 288.684C644.728 288.684 644.924 287.703 645.513 287.507L652.774 286.918C652.774 286.918 654.147 286.526 654.344 285.938L679.267 239.252C679.267 239.252 679.659 237.878 679.267 237.29L674.164 231.013C674.164 231.013 673.772 229.64 674.164 229.051L681.818 220.813C681.818 220.813 682.799 220.028 683.388 220.42L703.601 231.797C704.778 232.582 706.152 232.974 707.722 232.974C713.413 232.974 722.636 229.64 727.346 226.697C728.524 225.913 729.701 224.736 730.29 223.559L740.298 200.412C740.298 200.412 740.887 200.216 740.887 200.412L743.635 213.358C743.635 213.358 744.616 214.535 745.401 214.535L774.641 208.062L774.837 207.277Z" fill="white"/>
</g>
<defs>
<clipPath id="clip0_0_241">
<rect width="1233" height="521" fill="white" transform="translate(14 58)"/>
</clipPath>
</defs>
</svg>
