<svg width="386" height="65" viewBox="0 0 386 65" fill="none" xmlns="http://www.w3.org/2000/svg">
<path d="M12.626 0.541992H385.167L372.538 64.3885H0.859375L12.626 0.541992Z" fill="white" fill-opacity="0.15"/>
<path d="M12.626 0.541992H385.167L372.538 64.3885H0.859375L12.626 0.541992Z" fill="url(#paint0_linear_363_475)"/>
<path opacity="0.4" d="M43.147 0.644531H58.201L46.7864 64.3888H31.7324L43.147 0.644531Z" fill="#D32DE6"/>
<path d="M27.813 0.541992L38.1933 0.541992L26.7788 64.3885H16.3984L27.813 0.541992Z" fill="#4B69FF"/>
<path d="M12.4785 0.541992L22.8589 0.541992L11.2397 64.3885H0.859375L12.4785 0.541992Z" fill="#FDD607"/>
<path opacity="0.4" d="M62.9501 0.695312L91.5629 0.695313L80.353 64.5418H51.7402L62.9501 0.695312Z" fill="#4A66F2"/>
<path opacity="0.4" d="M96.9254 0.541992L162.122 0.541992L150.298 64.3885H85.1016L96.9254 0.541992Z" fill="#2A6088"/>
<path fill-rule="evenodd" clip-rule="evenodd" d="M33.2996 14.6108H76.063C79.2349 14.6108 81.409 16.6204 80.9999 19.4198C80.0279 26.0705 79.0143 31.7826 78.314 35.3814C77.4132 40.0113 73.3572 40.8043 71.2597 40.8043C70.8269 40.8043 69.8207 40.8072 68.431 40.8112C63.0853 40.8266 52.0658 40.8584 46.1917 40.8043L45.047 47.1341C44.7027 49.0377 43.0454 50.4222 41.1108 50.4222H31.8672L36.6761 22.9754L33.2996 14.6108ZM44.0119 23.2056H67.3716C68.0221 23.2056 68.604 23.7918 68.4971 24.4334C68.3757 25.162 68.2677 25.8456 68.164 26.5028C67.918 28.0607 67.6954 29.4706 67.3716 30.9817C67.2225 31.6774 66.6506 32.1073 65.9391 32.1073H47.7976L48.9231 25.5077L44.0119 23.2056Z" fill="white"/>
<path fill-rule="evenodd" clip-rule="evenodd" d="M125.243 14.6108H82.4793L85.8558 22.9754L81.0469 50.4222H90.2905C92.2251 50.4222 93.8824 49.0377 94.2267 47.1341L95.3714 40.8043C98.0939 40.8294 101.922 40.836 105.778 40.8344L112.697 50.4223H125.242C126.043 50.4223 126.519 49.5268 126.07 48.8627L120.628 40.8023C122.763 40.7577 126.471 39.9273 127.346 35.4326C127.412 35.0924 127.482 34.7329 127.556 34.3551L127.556 34.3549C128.264 30.7361 129.299 25.4417 130.18 19.4198C130.589 16.6204 128.415 14.6108 125.243 14.6108ZM116.551 23.2056H93.1916L98.1028 25.5077L96.9773 32.1073H115.119C115.83 32.1073 116.402 31.6774 116.551 30.9817C116.875 29.4706 117.098 28.0607 117.344 26.5028C117.447 25.8456 117.555 25.162 117.677 24.4334C117.784 23.7918 117.202 23.2056 116.551 23.2056Z" fill="#FFFCFC"/>
<path fill-rule="evenodd" clip-rule="evenodd" d="M349.172 14.6108H306.409L309.786 22.9754L304.977 50.4222H314.22C316.155 50.4222 317.812 49.0377 318.156 47.1341L319.301 40.8043C322.024 40.8294 325.851 40.836 329.707 40.8344L336.626 50.4223H349.171C349.973 50.4223 350.449 49.5268 350 48.8627L344.557 40.8023C346.692 40.7577 350.401 39.9273 351.276 35.4326C351.342 35.0924 351.412 34.7329 351.486 34.3551L351.486 34.3549C352.194 30.7361 353.229 25.4417 354.109 19.4198C354.518 16.6204 352.344 14.6108 349.172 14.6108ZM340.481 23.2056H317.121L322.033 25.5077L320.907 32.1073H339.049C339.76 32.1073 340.332 31.6774 340.481 30.9817C340.805 29.4706 341.027 28.0607 341.273 26.5028C341.377 25.8456 341.485 25.162 341.606 24.4334C341.713 23.7918 341.131 23.2056 340.481 23.2056Z" fill="#FFFCFC"/>
<path d="M135.177 22.6942L131.82 14.5088H176.002L174.569 22.6942H142.339L147.557 25.4568L147.097 28.1171H168.84L167.305 36.5072H145.613L144.897 40.8046H171.398L170.226 46.9653C169.867 48.8524 168.217 50.2178 166.296 50.2178H130.266L135.177 22.6942Z" fill="white"/>
<path d="M263.097 22.6942L259.74 14.5088H303.922L302.489 22.6942H270.259L275.477 25.4568L275.017 28.1171H296.76L295.225 36.5072H273.533L272.817 40.8046H299.317L298.146 46.9653C297.787 48.8524 296.137 50.2178 294.216 50.2178H258.186L263.097 22.6942Z" fill="white"/>
<path d="M181.944 22.4896L178.593 14.5088H197.42L204.787 34.1539L203.457 41.5208L224.739 14.5088H237.222L230.98 50.1155H223.64C221.164 50.1155 219.283 47.8898 219.695 45.4489L221.362 35.5863L210.107 50.1155H197.932L191.383 36.8142L189.614 46.8124C189.276 48.723 187.616 50.1155 185.675 50.1155H177.059L181.944 22.4896Z" fill="white"/>
<path d="M243.157 22.5921L239.9 14.6113H257.128L255.452 24.0246H249.501L254.813 27.7081L251.408 46.9163C251.069 48.8263 249.409 50.2181 247.469 50.2181H238.246L243.157 22.5921Z" fill="white"/>
<defs>
<linearGradient id="paint0_linear_363_475" x1="20.8739" y1="40.9917" x2="281.154" y2="40.9917" gradientUnits="userSpaceOnUse">
<stop stop-color="#18235B"/>
<stop offset="1" stop-color="#19256B"/>
</linearGradient>
</defs>
</svg>
