<svg width="32" height="32" viewBox="0 0 32 32" fill="none" xmlns="http://www.w3.org/2000/svg">
<g clip-path="url(#clip0_93_165)">
<path d="M23.38 3H7.99C6.89 3 6 3.93 6 5.08V27.71C6 28.86 6.89 29.79 7.99 29.79H23.38C24.48 29.79 25.37 28.86 25.37 27.71V5.08C25.37 3.93 24.48 3 23.38 3ZM15.46 6.8C14.79 6.8 14.25 6.23 14.25 5.53C14.25 4.83 14.79 4.26 15.46 4.26C16.13 4.26 16.67 4.83 16.67 5.53C16.67 6.23 16.13 6.8 15.46 6.8Z" fill="url(#paint0_linear_93_165)"/>
<path d="M23.32 3.06H8.07999C6.98999 3.06 6.10999 3.99 6.10999 5.13V27.6C6.10999 28.74 6.98999 29.67 8.07999 29.67H23.33C24.42 29.67 25.3 28.74 25.3 27.6V5.13C25.3 3.99 24.42 3.06 23.33 3.06H23.32ZM15.48 6.83C14.82 6.83 14.28 6.27 14.28 5.57C14.28 4.87 14.82 4.31 15.48 4.31C16.14 4.31 16.68 4.87 16.68 5.57C16.68 6.27 16.14 6.83 15.48 6.83Z" fill="url(#paint1_linear_93_165)"/>
<path d="M6.07001 27.74C6.07001 28.83 6.92001 29.71 7.97001 29.71H23.35C24.4 29.71 25.25 28.83 25.25 27.74V17.99H6.07001V27.74Z" fill="#7BBAB3"/>
<path d="M23.33 3.13H8.08002C6.99002 3.13 6.11002 4.01 6.11002 5.1V5.99H14.33C14.26 5.82 14.23 5.66 14.23 5.48C14.23 4.79 14.79 4.23 15.48 4.23C16.17 4.23 16.73 4.79 16.73 5.48C16.73 5.66 16.69 5.82 16.63 5.97H25.3V5.09C25.3 4 24.42 3.12 23.33 3.12V3.13Z" fill="#7BBAB3"/>
<path d="M21.35 6.44L21.09 6.97H21.01L21.25 6.48H20.92V6.42H21.34V6.44H21.35Z" fill="#444549"/>
<path d="M21.45 6.95V6.88C21.45 6.88 21.54 6.92 21.6 6.92C21.65 6.92 21.68 6.92 21.71 6.89C21.74 6.87 21.75 6.85 21.75 6.81C21.75 6.74 21.69 6.7 21.57 6.7H21.52V6.65H21.57C21.68 6.65 21.73 6.62 21.73 6.55C21.73 6.49 21.69 6.46 21.61 6.46C21.56 6.46 21.52 6.47 21.48 6.5V6.44C21.48 6.44 21.57 6.41 21.63 6.41C21.69 6.41 21.73 6.42 21.76 6.45C21.79 6.47 21.81 6.51 21.81 6.54C21.81 6.61 21.77 6.66 21.68 6.68C21.68 6.68 21.76 6.7 21.79 6.72C21.82 6.74 21.83 6.77 21.83 6.81C21.83 6.86 21.81 6.9 21.77 6.93C21.73 6.96 21.67 6.97 21.6 6.97C21.54 6.97 21.49 6.97 21.45 6.94V6.95Z" fill="#444549"/>
<path d="M21.97 6.95V6.88C21.97 6.88 22.06 6.92 22.11 6.92C22.16 6.92 22.19 6.91 22.22 6.89C22.25 6.87 22.26 6.84 22.26 6.8C22.26 6.76 22.25 6.74 22.22 6.72C22.19 6.7 22.15 6.69 22.1 6.69C22.08 6.69 22.05 6.69 22 6.69V6.42H22.32V6.48H22.08V6.64C22.08 6.64 22.12 6.64 22.14 6.64C22.21 6.64 22.26 6.65 22.3 6.68C22.34 6.71 22.36 6.75 22.36 6.8C22.36 6.85 22.34 6.9 22.3 6.93C22.26 6.96 22.2 6.98 22.13 6.98C22.07 6.98 22.02 6.98 21.99 6.96L21.97 6.95Z" fill="#444549"/>
<path d="M22.47 6.95V6.88C22.47 6.88 22.56 6.92 22.61 6.92C22.66 6.92 22.69 6.91 22.72 6.89C22.75 6.87 22.76 6.84 22.76 6.8C22.76 6.76 22.75 6.74 22.72 6.72C22.69 6.7 22.65 6.69 22.6 6.69C22.58 6.69 22.55 6.69 22.5 6.69V6.42H22.82V6.48H22.58V6.64C22.58 6.64 22.62 6.64 22.64 6.64C22.71 6.64 22.76 6.65 22.8 6.68C22.84 6.71 22.86 6.75 22.86 6.8C22.86 6.85 22.84 6.9 22.8 6.93C22.76 6.96 22.7 6.98 22.63 6.98C22.57 6.98 22.52 6.98 22.49 6.96L22.47 6.95Z" fill="#444549"/>
<path d="M23.32 6.43V6.49C23.32 6.49 23.25 6.47 23.21 6.47C23.15 6.47 23.11 6.49 23.07 6.53C23.03 6.57 23.02 6.63 23.02 6.7C23.05 6.65 23.1 6.62 23.17 6.62C23.23 6.62 23.27 6.64 23.31 6.67C23.34 6.7 23.36 6.74 23.36 6.79C23.36 6.84 23.34 6.89 23.3 6.92C23.26 6.95 23.21 6.97 23.15 6.97C23.08 6.97 23.03 6.95 23 6.9C22.96 6.86 22.94 6.8 22.94 6.72C22.94 6.62 22.96 6.55 23.01 6.49C23.06 6.43 23.12 6.4 23.2 6.4C23.25 6.4 23.28 6.4 23.31 6.42L23.32 6.43ZM23.16 6.68C23.16 6.68 23.09 6.69 23.07 6.71C23.05 6.73 23.03 6.76 23.03 6.79C23.03 6.83 23.04 6.86 23.07 6.89C23.09 6.92 23.13 6.93 23.16 6.93C23.2 6.93 23.23 6.92 23.25 6.9C23.27 6.88 23.28 6.85 23.28 6.81C23.28 6.77 23.27 6.74 23.25 6.72C23.23 6.7 23.2 6.69 23.16 6.69V6.68Z" fill="#444549"/>
<path d="M23.64 6.98C23.58 6.98 23.52 6.96 23.49 6.91C23.45 6.86 23.44 6.8 23.44 6.71C23.44 6.61 23.46 6.54 23.5 6.49C23.54 6.44 23.59 6.42 23.66 6.42C23.8 6.42 23.87 6.51 23.87 6.7C23.87 6.79 23.85 6.86 23.81 6.91C23.77 6.96 23.72 6.98 23.65 6.98H23.64ZM23.65 6.47C23.56 6.47 23.51 6.55 23.51 6.71C23.51 6.86 23.56 6.93 23.65 6.93C23.74 6.93 23.78 6.86 23.78 6.71C23.78 6.56 23.74 6.48 23.65 6.48V6.47Z" fill="#444549"/>
<path d="M24.09 6.68C24.01 6.65 23.97 6.6 23.97 6.55C23.97 6.51 23.99 6.48 24.02 6.45C24.06 6.42 24.1 6.41 24.16 6.41C24.21 6.41 24.25 6.42 24.28 6.45C24.31 6.48 24.33 6.5 24.33 6.54C24.33 6.6 24.29 6.65 24.21 6.68C24.3 6.71 24.35 6.76 24.35 6.83C24.35 6.87 24.33 6.91 24.29 6.94C24.25 6.97 24.2 6.98 24.13 6.98C24.07 6.98 24.03 6.97 23.99 6.94C23.95 6.91 23.94 6.88 23.94 6.84C23.94 6.77 23.99 6.72 24.08 6.69L24.09 6.68ZM24.15 6.71C24.07 6.74 24.03 6.78 24.03 6.83C24.03 6.86 24.04 6.88 24.07 6.9C24.1 6.92 24.13 6.93 24.17 6.93C24.21 6.93 24.24 6.93 24.26 6.9C24.28 6.88 24.3 6.86 24.3 6.83C24.3 6.78 24.26 6.73 24.17 6.71H24.15ZM24.26 6.55C24.26 6.55 24.26 6.51 24.23 6.49C24.2 6.47 24.19 6.47 24.15 6.47C24.12 6.47 24.09 6.47 24.07 6.49C24.05 6.51 24.04 6.52 24.04 6.55C24.04 6.6 24.08 6.63 24.15 6.66C24.22 6.64 24.26 6.6 24.26 6.55Z" fill="#444549"/>
<path d="M20.15 29.65H21.63L22.52 27.8H21.04L20.15 29.65Z" fill="#EEE4D7"/>
<path d="M8.79001 29.65H9.18001L10.07 27.8H9.68001L8.79001 29.65Z" fill="#EEE4D7"/>
<path d="M13.84 29.65H14.04L14.93 27.8H14.74L13.84 29.65Z" fill="#EEE4D7"/>
<path d="M13.47 29.65H13.66L14.55 27.8H14.36L13.47 29.65Z" fill="#EEE4D7"/>
<path d="M12.17 29.65H12.36L13.25 27.8H13.06L12.17 29.65Z" fill="#EEE4D7"/>
<path d="M25.01 27.8H24.24L23.35 29.64C24.25 29.52 24.95 28.75 25 27.8H25.01Z" fill="#EEE4D7"/>
<path d="M7.47999 29.57L8.32999 27.8H6.84999L6.39999 28.73C6.63999 29.13 7.01999 29.44 7.46999 29.58L7.47999 29.57Z" fill="#EEE4D7"/>
<path d="M17.53 29.65H19.01L19.9 27.8H18.42L17.53 29.65Z" fill="#EEE4D7"/>
<path d="M14.68 29.65H17.18L18.08 27.8H15.57L14.68 29.65Z" fill="#EEE4D7"/>
<path d="M24.21 15.87H24.04V17.75H24.21V15.87Z" fill="#444549"/>
<path d="M23.79 15.87H23.62V17.75H23.79V15.87Z" fill="#444549"/>
<path d="M23.35 15.87H23.18V17.75H23.35V15.87Z" fill="#444549"/>
<path d="M12.7 4.42C12.7 4.42 12.68 4.4 12.68 4.39C12.68 4.39 12.66 4.37 12.65 4.37C12.65 4.37 12.63 4.36 12.62 4.35C12.62 4.35 12.67 4.33 12.69 4.32C12.71 4.31 12.73 4.29 12.74 4.28C12.75 4.26 12.76 4.25 12.77 4.22C12.77 4.2 12.78 4.18 12.78 4.15C12.78 4.12 12.78 4.09 12.76 4.07C12.75 4.05 12.73 4.03 12.71 4.01C12.69 3.99 12.67 3.98 12.64 3.97C12.61 3.97 12.58 3.96 12.55 3.96H12.34V4.67H12.42V4.37H12.49C12.49 4.37 12.52 4.37 12.53 4.37C12.54 4.37 12.55 4.37 12.56 4.39C12.57 4.39 12.58 4.41 12.59 4.42C12.6 4.43 12.61 4.45 12.62 4.47L12.74 4.67H12.84L12.71 4.46C12.71 4.46 12.69 4.43 12.68 4.42H12.7ZM12.6 4.29C12.6 4.29 12.56 4.29 12.54 4.29H12.43V4.03H12.54C12.54 4.03 12.62 4.04 12.65 4.06C12.67 4.08 12.69 4.11 12.69 4.15C12.69 4.17 12.69 4.19 12.68 4.21C12.68 4.23 12.66 4.24 12.65 4.25C12.64 4.26 12.62 4.27 12.6 4.28V4.29Z" fill="#515153"/>
<path d="M11.03 4.35H11.29V4.28H11.03V4.04H11.31V3.96H10.95V4.68H11.32V4.6H11.03V4.35Z" fill="#515153"/>
<path d="M9.44998 4.04H9.64998V4.68H9.73998V4.04H9.93998V3.96H9.44998V4.04Z" fill="#515153"/>
<path d="M8.35999 4.47C8.35999 4.47 8.35999 4.55 8.35999 4.58C8.35999 4.58 8.34999 4.56 8.32999 4.53L7.96999 3.97H7.85999V4.68H7.93999V4.16C7.93999 4.11 7.93999 4.08 7.93999 4.06C7.93999 4.06 7.94999 4.09 7.95999 4.1L8.32999 4.67H8.42999V3.96H8.34999V4.46L8.35999 4.47Z" fill="#515153"/>
<path d="M15.67 4.25L15.72 4.1C15.72 4.1 15.72 4.07 15.73 4.05C15.73 4.05 15.73 4.09 15.74 4.1L15.81 4.29C15.81 4.29 15.88 4.32 15.92 4.33L15.78 3.96H15.69L15.59 4.23C15.59 4.23 15.64 4.23 15.67 4.25Z" fill="#515153"/>
<path d="M6.78999 3.96H6.70999V4.67H6.78999V3.96Z" fill="#515153"/>
<path d="M19.86 3.95C19.75 3.95 19.67 3.98 19.61 4.05C19.55 4.12 19.52 4.21 19.52 4.33C19.52 4.44 19.55 4.52 19.61 4.59C19.67 4.66 19.75 4.69 19.85 4.69C19.95 4.69 20.04 4.66 20.1 4.59C20.16 4.52 20.19 4.43 20.19 4.31C20.19 4.2 20.16 4.12 20.1 4.05C20.04 3.98 19.96 3.95 19.86 3.95ZM20.03 4.54C19.98 4.59 19.92 4.62 19.84 4.62C19.77 4.62 19.71 4.59 19.66 4.54C19.61 4.49 19.59 4.42 19.59 4.33C19.59 4.24 19.61 4.17 19.66 4.12C19.71 4.07 19.77 4.04 19.84 4.04C19.91 4.04 19.98 4.07 20.02 4.12C20.06 4.17 20.09 4.24 20.09 4.34C20.09 4.44 20.07 4.5 20.02 4.55L20.03 4.54Z" fill="#515153"/>
<path d="M23.06 3.96L22.79 4.67H22.88L22.95 4.47H23.25L23.33 4.67H23.42L23.14 3.96H23.05H23.06ZM22.98 4.4L23.09 4.1C23.09 4.1 23.09 4.07 23.1 4.05C23.1 4.05 23.1 4.09 23.11 4.1L23.22 4.4H22.97H22.98Z" fill="#515153"/>
<path d="M24.5 4.6V3.96H24.41V4.68H24.79V4.6H24.5Z" fill="#515153"/>
<path d="M21.71 4.47C21.71 4.47 21.71 4.55 21.71 4.58C21.71 4.58 21.7 4.56 21.68 4.53L21.32 3.97H21.21V4.68H21.29V4.16C21.29 4.11 21.29 4.08 21.29 4.06C21.29 4.06 21.3 4.09 21.31 4.1L21.68 4.67H21.78V3.96H21.7V4.46L21.71 4.47Z" fill="#515153"/>
<path d="M18.48 3.96H18.4V4.67H18.48V3.96Z" fill="#515153"/>
<path d="M13.95 4.11L14.32 4.68H14.42V3.97H14.34V4.47C14.34 4.47 14.34 4.55 14.34 4.58C14.34 4.58 14.33 4.56 14.31 4.53L13.95 3.97H13.84V4.68H13.92V4.16C13.92 4.11 13.92 4.08 13.92 4.06C13.92 4.06 13.93 4.09 13.94 4.1L13.95 4.11Z" fill="#515153"/>
<path d="M16.9 4.04H17.11V4.68H17.19V4.04H17.4V3.96H16.9V4.04Z" fill="#515153"/>
<path d="M15.47 4.31C14.78 4.31 14.22 4.87 14.22 5.57C14.22 6.27 14.78 6.83 15.47 6.83C16.16 6.83 16.72 6.27 16.72 5.57C16.72 4.87 16.16 4.31 15.47 4.31ZM15.47 6.78C14.81 6.78 14.28 6.24 14.28 5.58C14.28 4.92 14.81 4.38 15.47 4.38C16.13 4.38 16.66 4.92 16.66 5.58C16.66 6.24 16.13 6.78 15.47 6.78Z" fill="url(#paint2_linear_93_165)"/>
<path d="M25.11 25.86V19.27C24.5 19.27 23.79 19.29 22.96 19.33C21.65 19.39 21.07 19.6 19.73 21.29C18.01 23.47 12.77 21.32 12.05 20.18C11.61 19.49 11.32 17.7 10.13 17.58C7.87 17.35 6.84 14.68 6.34 14.75V19.36C6.34 20.84 7.2 22.4 8.27 22.85L23.19 27.71C24.25 28.16 25.12 27.33 25.12 25.85L25.11 25.86Z" fill="url(#paint3_linear_93_165)"/>
<path d="M10.43 24.81L9.92999 22.77L9.94999 26.86H8.79999V20.02H10.1L10.86 22.75L11.61 20.02H12.88V26.86L11.78 26.89L11.74 22.88L11.25 24.81H10.42H10.43Z" fill="url(#paint4_linear_93_165)"/>
<path d="M16.87 26.86L16.63 25.24H15.33L15.05 26.86H13.81L15.11 20.02H16.86L18.17 26.86H16.87ZM16.45 24.06L16.02 21.18L15.53 24.06H16.45Z" fill="url(#paint5_linear_93_165)"/>
<path d="M19.04 26.86V20.02H20.98C21.57 20.02 22.03 20.17 22.36 20.48C22.69 20.78 22.86 21.25 22.86 21.88V22.96C22.86 23.58 22.7 24.03 22.38 24.31C22.06 24.59 21.6 24.74 20.99 24.74H20.39V26.87H19.05L19.04 26.86ZM20.38 23.57H20.89C21.08 23.57 21.21 23.52 21.31 23.41C21.4 23.3 21.45 23.1 21.45 22.8V22C21.45 21.69 21.4 21.48 21.31 21.37C21.22 21.26 21.08 21.2 20.89 21.2H20.38V23.57Z" fill="url(#paint6_linear_93_165)"/>
<path d="M9.1 19.72C8.98 19.72 8.9 19.69 8.84 19.63C8.78 19.57 8.75 19.49 8.75 19.37V19.03C8.75 18.91 8.78 18.83 8.84 18.77C8.9 18.71 8.98 18.68 9.1 18.68C9.22 18.68 9.29 18.71 9.35 18.77C9.4 18.83 9.43 18.92 9.44 19.05H9.2C9.2 18.98 9.19 18.93 9.18 18.9C9.17 18.87 9.14 18.86 9.1 18.86C9.06 18.86 9.03 18.87 9.02 18.9C9 18.93 9 18.98 9 19.05V19.35C9 19.42 9 19.47 9.02 19.5C9.04 19.53 9.06 19.54 9.1 19.54C9.14 19.54 9.16 19.53 9.17 19.5C9.18 19.48 9.19 19.42 9.2 19.34H9.44C9.44 19.48 9.41 19.57 9.35 19.63C9.3 19.69 9.21 19.72 9.1 19.72Z" fill="#F2EBDF"/>
<path d="M10.71 19.72C10.6 19.72 10.52 19.69 10.47 19.63C10.41 19.57 10.39 19.49 10.39 19.39V19.02C10.39 18.91 10.42 18.83 10.47 18.77C10.53 18.71 10.61 18.68 10.71 18.68C10.81 18.68 10.89 18.71 10.95 18.77C11.01 18.83 11.03 18.91 11.03 19.02V19.39C11.03 19.49 11 19.58 10.95 19.63C10.89 19.69 10.81 19.72 10.71 19.72ZM10.71 19.55C10.71 19.55 10.77 19.54 10.78 19.51C10.79 19.49 10.8 19.44 10.8 19.37V19.04C10.8 18.97 10.8 18.92 10.78 18.9C10.77 18.87 10.74 18.86 10.71 18.86C10.68 18.86 10.65 18.87 10.64 18.9C10.63 18.93 10.62 18.97 10.62 19.04V19.37C10.62 19.44 10.62 19.49 10.64 19.51C10.65 19.53 10.68 19.55 10.71 19.55Z" fill="#F2EBDF"/>
<path d="M12.27 19.41L12.19 19.06L12.22 19.72H12.01V18.71H12.22L12.35 19.18L12.48 18.71H12.68V19.72H12.47L12.5 19.08L12.42 19.42H12.28L12.27 19.41Z" fill="#F2EBDF"/>
<path d="M13.89 19.41L13.81 19.06L13.84 19.72H13.63V18.71H13.84L13.97 19.18L14.1 18.71H14.3V19.72H14.09L14.12 19.08L14.04 19.42H13.9L13.89 19.41Z" fill="#F2EBDF"/>
<path d="M15.59 19.72C15.48 19.72 15.39 19.69 15.34 19.63C15.29 19.57 15.26 19.48 15.26 19.36V18.7H15.5V19.36C15.5 19.43 15.5 19.48 15.52 19.5C15.53 19.52 15.56 19.54 15.59 19.54C15.62 19.54 15.65 19.53 15.66 19.5C15.67 19.47 15.68 19.43 15.68 19.36V18.7H15.92V19.36C15.92 19.48 15.89 19.58 15.84 19.63C15.79 19.69 15.7 19.72 15.59 19.72Z" fill="#F2EBDF"/>
<path d="M17.28 19.71L17.09 19.02V19.71H16.89V18.7H17.14L17.35 19.42V18.7H17.55V19.71H17.28Z" fill="#F2EBDF"/>
<path d="M18.51 19.71V19.54H18.72V18.88H18.51V18.71H19.17V18.88H18.96V19.54H19.17V19.71H18.51Z" fill="#F2EBDF"/>
<path d="M20.35 19.71V18.87H20.12V18.7H20.82V18.87H20.59V19.71H20.35Z" fill="#F2EBDF"/>
<path d="M22.22 19.71H21.98V19.33L21.73 18.7H21.96L22.09 19.1L22.23 18.7H22.46L22.21 19.33V19.71H22.22Z" fill="#F2EBDF"/>
<path d="M20.25 11.48C20.19 11.48 20.13 11.46 20.04 11.45C20.15 11.36 20.23 11.3 20.31 11.24C20.48 11.09 20.65 10.93 20.81 10.76C20.86 10.71 20.9 10.61 20.89 10.55C20.86 10.31 20.79 10.1 20.56 10.04C20.17 9.94 19.75 10.03 19.32 10.24C19.11 10.34 18.91 10.49 18.75 10.69C18.7 10.75 18.67 10.85 18.68 10.91C18.68 10.95 18.75 11 18.8 11C18.96 11 18.99 11.03 18.96 11.21C18.88 11.83 18.79 12.44 18.71 13.06C18.7 13.16 18.69 13.26 18.56 13.29C18.53 13.29 18.49 13.33 18.46 13.35C18.36 13.43 18.33 13.62 18.43 13.64C18.59 13.67 18.74 13.74 18.93 13.64C19.06 13.56 19.2 13.49 19.33 13.4C19.57 13.25 19.82 13.09 20.06 12.94C20.28 12.8 20.5 12.66 20.67 12.42C20.76 12.29 20.8 12.17 20.78 12.04C20.72 11.73 20.56 11.53 20.25 11.49V11.48ZM19.48 11.27C19.43 11.13 19.38 11.02 19.35 10.9C19.35 10.87 19.37 10.8 19.39 10.79C19.56 10.68 19.73 10.56 19.9 10.48C20.06 10.42 20.22 10.4 20.38 10.39C20.48 10.38 20.49 10.45 20.41 10.53C20.13 10.84 19.81 11.07 19.47 11.27H19.48ZM20.25 12.27C20.12 12.39 19.98 12.5 19.84 12.6C19.61 12.75 19.37 12.88 19.13 13.02C19.13 13.02 19.11 13.01 19.1 13C19.12 12.92 19.13 12.85 19.15 12.77C19.2 12.54 19.26 12.3 19.31 12.07C19.33 11.97 19.37 11.94 19.45 11.93C19.64 11.91 19.83 11.89 20.02 11.87C20.08 11.87 20.15 11.87 20.21 11.87C20.39 11.91 20.41 12.11 20.24 12.27H20.25Z" fill="black"/>
<path d="M9.5 12.36C9.46 11.88 9.37 11.43 9.22 11.01C9.1 10.68 8.9 10.48 8.54 10.46C8.42 10.46 8.32 10.49 8.23 10.61C8.12 10.77 7.99 10.93 7.92 11.11C7.8 11.39 7.72 11.69 7.62 11.98C7.63 11.98 7.64 11.98 7.65 11.98C7.63 12.06 7.61 12.13 7.59 12.21C7.48 12.73 7.4 13.24 7.43 13.73C7.44 13.91 7.49 13.94 7.66 13.91C7.7 13.91 7.75 13.91 7.79 13.91C7.95 13.91 8 13.85 8 13.67C8 13.45 8.02 13.23 8.03 13.01C8.03 12.91 8.08 12.83 8.18 12.79C8.4 12.71 8.61 12.62 8.83 12.54C8.94 12.49 8.97 12.54 8.97 12.65C8.98 12.92 9 13.19 9.02 13.45C9.04 13.66 9.25 13.74 9.45 13.61C9.48 13.59 9.51 13.53 9.53 13.48C9.54 13.44 9.53 13.4 9.53 13.36C9.51 13.03 9.5 12.7 9.48 12.37L9.5 12.36ZM8.69 12.14C8.55 12.17 8.4 12.22 8.25 12.26C8.17 12.28 8.14 12.26 8.16 12.18C8.24 11.86 8.31 11.55 8.4 11.23C8.42 11.15 8.49 11.06 8.54 10.98C8.58 11.03 8.63 11.08 8.66 11.14C8.75 11.42 8.83 11.71 8.91 12C8.91 12.03 8.91 12.06 8.92 12.11C8.83 12.12 8.75 12.13 8.68 12.14H8.69Z" fill="black"/>
<path d="M17.85 12.88C17.88 12.68 17.92 12.49 17.96 12.29C18.03 11.94 18.08 11.6 18.02 11.29C18 11.18 17.97 11.06 17.91 10.99C17.83 10.89 17.71 10.84 17.6 10.77C17.58 10.76 17.51 10.78 17.49 10.81C17.41 10.9 17.33 11 17.28 11.1C17.18 11.29 17.1 11.49 17.01 11.69C16.99 11.74 16.96 11.78 16.92 11.85C16.9 11.8 16.89 11.77 16.88 11.73C16.83 11.51 16.75 11.3 16.6 11.15C16.56 11.11 16.49 11.09 16.43 11.06C16.39 11.04 16.34 11.03 16.3 11C16.2 10.94 16.13 10.96 16.02 11.07C15.75 11.34 15.61 11.66 15.58 12C15.56 12.3 15.57 12.59 15.58 12.88C15.58 13.03 15.62 13.18 15.65 13.32C15.69 13.47 15.8 13.52 15.95 13.45C15.98 13.44 16.04 13.38 16.04 13.35C16.06 13.26 16.06 13.16 16.06 13.07C16.06 12.93 16.03 12.79 16.04 12.65C16.06 12.38 16.1 12.1 16.14 11.82C16.15 11.74 16.2 11.66 16.23 11.58C16.24 11.58 16.25 11.58 16.26 11.58C16.28 11.62 16.3 11.66 16.32 11.71C16.39 11.88 16.45 12.05 16.52 12.22C16.57 12.34 16.67 12.4 16.8 12.41C16.86 12.41 16.92 12.42 16.98 12.43C17.09 12.45 17.16 12.43 17.22 12.3C17.29 12.17 17.36 12.03 17.43 11.9C17.45 11.86 17.47 11.83 17.49 11.79C17.49 11.79 17.51 11.79 17.52 11.79C17.52 11.86 17.52 11.93 17.52 11.99C17.49 12.2 17.46 12.41 17.43 12.62C17.4 12.82 17.37 13.01 17.44 13.18C17.49 13.29 17.57 13.32 17.7 13.29C17.84 13.26 17.88 13.19 17.87 13.05C17.87 12.99 17.86 12.92 17.87 12.86L17.85 12.88Z" fill="black"/>
<path d="M14.6 11.5C14.99 11.32 15.38 11.15 15.77 10.98C15.91 10.92 15.96 10.77 15.89 10.67C15.85 10.61 15.79 10.58 15.71 10.61C15.64 10.63 15.57 10.63 15.5 10.66C15.23 10.75 14.96 10.84 14.69 10.94C14.6 10.97 14.54 10.98 14.51 10.89C14.49 10.84 14.45 10.8 14.42 10.76C14.38 10.72 14.32 10.72 14.28 10.79C14.23 10.87 14.17 10.95 14.15 11.03C14.12 11.14 14.06 11.2 13.96 11.24C13.87 11.27 13.78 11.31 13.69 11.35C13.6 11.39 13.55 11.47 13.54 11.55C13.52 11.64 13.59 11.66 13.65 11.67C13.68 11.67 13.72 11.67 13.75 11.67C13.86 11.67 13.89 11.72 13.84 11.85C13.75 12.1 13.65 12.35 13.56 12.6C13.42 12.98 13.52 13.34 13.8 13.4C13.98 13.44 14.17 13.44 14.36 13.43C14.61 13.41 14.84 13.2 15.07 13.05C15.12 13.01 15.17 12.95 15.21 12.9C15.3 12.81 15.36 12.59 15.3 12.49C15.13 12.59 14.96 12.71 14.78 12.79C14.56 12.9 14.34 12.99 14.11 13.08C14.02 13.12 13.96 13.08 13.97 12.99C13.97 12.87 14 12.75 14.02 12.63C14.04 12.52 14.11 12.46 14.21 12.44C14.45 12.38 14.68 12.29 14.9 12.13C15.02 12.04 15.11 11.93 15.14 11.79C15.16 11.71 15.14 11.63 15.11 11.57C15.11 11.55 15.01 11.58 14.96 11.6C14.91 11.62 14.87 11.66 14.82 11.68C14.65 11.76 14.49 11.84 14.31 11.92C14.35 11.65 14.4 11.58 14.59 11.49L14.6 11.5Z" fill="black"/>
<path d="M11.53 12.56C11.46 12.47 11.37 12.38 11.26 12.33C11.01 12.22 10.75 12.14 10.5 12.04C10.33 11.97 10.3 11.86 10.44 11.66C10.72 11.25 10.94 11.1 11.33 11.14C11.36 11.14 11.39 11.12 11.42 11.12C11.42 11.09 11.42 11.06 11.41 11.03C11.41 11.01 11.39 10.99 11.38 10.97C11.25 10.82 11.12 10.65 10.86 10.75C10.46 10.9 10.13 11.18 9.91 11.62C9.75 11.93 9.77 12.09 9.99 12.22C10.18 12.33 10.4 12.39 10.6 12.47C10.72 12.52 10.85 12.55 10.97 12.61C11.12 12.69 11.13 12.79 10.97 12.95C10.69 13.21 10.39 13.45 10.1 13.7C10.05 13.74 9.99 13.77 9.95 13.82C9.91 13.87 9.86 13.96 9.87 14C9.87 14.05 9.95 14.07 10 14.08C10.06 14.09 10.14 14.08 10.21 14.08C10.21 14.08 10.21 14.1 10.21 14.11C10.28 14.08 10.37 14.06 10.43 14.01C10.75 13.75 11.08 13.5 11.39 13.22C11.6 13.03 11.67 12.73 11.55 12.58L11.53 12.56Z" fill="black"/>
<path d="M13.06 12.33C12.89 12.22 12.7 12.15 12.52 12.06C12.47 12.04 12.41 12.03 12.36 12C12.27 11.95 12.26 11.87 12.34 11.75C12.43 11.62 12.52 11.49 12.62 11.38C12.8 11.19 12.99 11 13.23 10.94C13.25 10.94 13.28 10.89 13.28 10.86C13.31 10.73 13.21 10.63 13.05 10.61C12.97 10.63 12.89 10.65 12.81 10.69C12.4 10.91 12.09 11.25 11.83 11.66C11.76 11.77 11.74 11.89 11.79 11.97C11.85 12.07 11.92 12.18 12.02 12.23C12.19 12.33 12.39 12.39 12.58 12.47C12.77 12.55 12.77 12.6 12.6 12.8C12.54 12.87 12.48 12.93 12.41 12.99C12.21 13.15 12.01 13.31 11.81 13.47C11.74 13.53 11.67 13.59 11.62 13.66C11.58 13.71 11.55 13.81 11.57 13.83C11.6 13.88 11.67 13.89 11.73 13.9C11.78 13.9 11.83 13.9 11.88 13.89C11.93 13.89 11.98 13.89 12.03 13.86C12.37 13.64 12.71 13.39 13.01 13.09C13.3 12.79 13.33 12.5 13.06 12.34V12.33Z" fill="black"/>
<path d="M24.67 9.73C24.67 9.73 24.6 9.69 24.56 9.69C24.47 9.71 24.4 9.79 24.38 9.91C24.32 10.2 24.26 10.5 24.06 10.77C23.8 11.13 23.72 11.11 23.49 10.99C23.27 10.87 23.13 10.67 23.03 10.44C22.99 10.35 22.9 10.34 22.81 10.41C22.75 10.46 22.71 10.57 22.75 10.65C22.8 10.75 22.84 10.87 22.92 10.94C23.08 11.08 23.25 11.2 23.42 11.32C23.48 11.36 23.5 11.4 23.48 11.48C23.43 11.68 23.38 11.89 23.33 12.09C23.32 12.09 23.31 12.09 23.29 12.09C23.23 12.5 23.16 12.92 23.1 13.33C23.1 13.39 23.12 13.44 23.14 13.49C23.2 13.45 23.27 13.42 23.32 13.38C23.35 13.35 23.37 13.29 23.39 13.24C23.44 13.09 23.48 12.94 23.52 12.8C23.64 12.34 23.76 11.88 23.89 11.42C23.89 11.39 23.93 11.35 23.95 11.33C24.2 11.19 24.38 10.97 24.49 10.71C24.58 10.49 24.62 10.27 24.71 10.06C24.77 9.91 24.76 9.81 24.69 9.72L24.67 9.73Z" fill="black"/>
<path d="M22.71 12.5C22.47 12.58 22.23 12.69 21.99 12.77C21.79 12.84 21.59 12.91 21.39 12.97C21.26 13.01 21.22 12.97 21.23 12.82C21.24 12.68 21.26 12.54 21.29 12.4C21.37 12.06 21.46 11.71 21.55 11.37C21.57 11.3 21.58 11.23 21.6 11.17C21.66 10.92 21.64 10.71 21.49 10.55C21.44 10.5 21.4 10.45 21.31 10.5C21.22 10.55 21.2 10.63 21.18 10.72C21.1 11.19 21.01 11.66 20.93 12.13C20.89 12.34 20.85 12.55 20.84 12.75C20.81 13.12 20.99 13.33 21.32 13.32C21.56 13.32 21.79 13.22 22.03 13.12C22.29 13.01 22.54 12.86 22.8 12.82C22.87 12.81 22.92 12.74 22.92 12.66C22.92 12.52 22.86 12.45 22.71 12.5Z" fill="black"/>
</g>
<defs>
<linearGradient id="paint0_linear_93_165" x1="24.73" y1="3.53" x2="6.63" y2="29.27" gradientUnits="userSpaceOnUse">
<stop stop-color="#FDFAF1"/>
<stop offset="1" stop-color="#A29885"/>
</linearGradient>
<linearGradient id="paint1_linear_93_165" x1="24.68" y1="3.6" x2="6.71998" y2="29.15" gradientUnits="userSpaceOnUse">
<stop stop-color="#F8F3EB"/>
<stop offset="1" stop-color="#EDE2D5"/>
</linearGradient>
<linearGradient id="paint2_linear_93_165" x1="14.68" y1="6.87" x2="16.27" y2="4.26" gradientUnits="userSpaceOnUse">
<stop stop-color="#FDFAF1"/>
<stop offset="1" stop-color="#A29885"/>
</linearGradient>
<linearGradient id="paint3_linear_93_165" x1="1.77849" y1="9.74298" x2="-1.0801" y2="16.6647" gradientUnits="userSpaceOnUse">
<stop stop-color="#FFFBEC" stop-opacity="0.7"/>
<stop offset="1" stop-color="white" stop-opacity="0"/>
</linearGradient>
<linearGradient id="paint4_linear_93_165" x1="19.85" y1="6.72" x2="8.68999" y2="27.44" gradientUnits="userSpaceOnUse">
<stop stop-color="#FFFAF2"/>
<stop offset="1" stop-color="#EDE2D5"/>
</linearGradient>
<linearGradient id="paint5_linear_93_165" x1="24.35" y1="9.14" x2="13.19" y2="29.86" gradientUnits="userSpaceOnUse">
<stop stop-color="#FFFAF2"/>
<stop offset="1" stop-color="#EDE2D5"/>
</linearGradient>
<linearGradient id="paint6_linear_93_165" x1="26.99" y1="10.57" x2="15.83" y2="31.29" gradientUnits="userSpaceOnUse">
<stop stop-color="#FFFAF2"/>
<stop offset="1" stop-color="#EDE2D5"/>
</linearGradient>
<clipPath id="clip0_93_165">
<rect width="19.37" height="26.8" fill="white" transform="translate(6 3)"/>
</clipPath>
</defs>
</svg>
