<svg width="32" height="32" viewBox="0 0 32 32" fill="none" xmlns="http://www.w3.org/2000/svg">
<path d="M23.6481 2.5H8.22546C7.12624 2.5 6.23679 3.42962 6.23679 4.58537V27.2146C6.23679 28.362 7.12624 29.3 8.22546 29.3H23.6481C24.7473 29.3 25.6368 28.3704 25.6368 27.2146V4.58537C25.6368 3.438 24.7473 2.5 23.6481 2.5ZM15.7186 6.29388C15.0473 6.29388 14.5103 5.72437 14.5103 5.02925C14.5103 4.33412 15.0557 3.76462 15.7186 3.76462C16.3815 3.76462 16.9269 4.33412 16.9269 5.02925C16.9269 5.72437 16.3815 6.29388 15.7186 6.29388Z" fill="url(#paint0_linear_111_557)"/>
<path d="M23.6432 2.56699H8.32296C7.22926 2.56699 6.34589 3.48824 6.34589 4.63562V27.1141C6.34589 28.2531 7.22926 29.1827 8.32296 29.1827H23.6432C24.7369 29.1827 25.6203 28.2531 25.6203 27.1141V4.63562C25.6203 3.49662 24.7369 2.56699 23.6432 2.56699ZM15.7601 6.33574C15.0955 6.33574 14.5571 5.77462 14.5571 5.07949C14.5571 4.38437 15.0955 3.82324 15.7601 3.82324C16.4248 3.82324 16.9632 4.38437 16.9632 5.07949C16.9632 5.77462 16.4248 6.33574 15.7601 6.33574Z" fill="url(#paint1_linear_111_557)"/>
<path d="M6.31213 27.2398C6.31213 28.3285 7.16801 29.2079 8.21688 29.2079H23.6312C24.68 29.2079 25.5359 28.3285 25.5359 27.2398V17.4912H6.31213V27.2398Z" fill="#B190C2"/>
<path d="M23.5978 2.62563H8.31782C7.22699 2.62563 6.34593 3.51338 6.34593 4.60213V5.49825L14.5775 5.4815C14.5104 5.33075 14.4768 5.16325 14.4768 4.98738C14.4768 4.30063 15.039 3.7395 15.7271 3.7395C16.4151 3.7395 16.9773 4.30063 16.9773 4.98738C16.9773 5.16325 16.9438 5.33075 16.8766 5.4815L25.5697 5.49825V4.60213C25.5697 3.51338 24.6887 2.634 23.5978 2.634V2.62563Z" fill="#B190C2"/>
<path d="M21.6175 5.94225L21.3574 6.46987H21.2819L21.5252 5.98412H21.198V5.9255H21.6175V5.94225Z" fill="#434549"/>
<path d="M21.7182 6.44469V6.37769C21.7602 6.41119 21.8105 6.41956 21.8692 6.41956C21.9112 6.41956 21.9532 6.41119 21.9783 6.39444C22.0035 6.37769 22.0203 6.35256 22.0203 6.31906C22.0203 6.25206 21.9615 6.21019 21.8357 6.21019H21.7853V6.15994H21.8357C21.9448 6.15994 21.9951 6.12644 21.9951 6.05944C21.9951 6.00081 21.9532 5.96731 21.8692 5.96731C21.8273 5.96731 21.7769 5.98406 21.735 6.00919V5.95056C21.735 5.95056 21.8273 5.91706 21.886 5.91706C21.9448 5.91706 21.9867 5.92544 22.0203 5.95056C22.0538 5.97569 22.0706 6.00919 22.0706 6.04269C22.0706 6.11806 22.0287 6.15994 21.9364 6.18506C21.9867 6.18506 22.0203 6.20181 22.0455 6.22694C22.0706 6.25206 22.0874 6.27719 22.0874 6.31906C22.0874 6.36931 22.0706 6.41119 22.0203 6.43631C21.9783 6.46981 21.9196 6.47819 21.8525 6.47819C21.7937 6.47819 21.7434 6.46981 21.7014 6.45306L21.7182 6.44469Z" fill="#434549"/>
<path d="M22.2384 6.453V6.386C22.2803 6.41112 22.3305 6.4195 22.3724 6.4195C22.4142 6.4195 22.456 6.41112 22.4811 6.386C22.5063 6.36087 22.523 6.33575 22.523 6.30225C22.523 6.26875 22.5063 6.23525 22.4811 6.2185C22.456 6.20175 22.4142 6.185 22.3556 6.185C22.3389 6.185 22.3054 6.185 22.2552 6.185V5.90862H22.5732V5.96725H22.3305V6.12637C22.3305 6.12637 22.3724 6.12637 22.3891 6.12637C22.456 6.12637 22.5146 6.14312 22.5481 6.16825C22.5816 6.20175 22.6067 6.23525 22.6067 6.2855C22.6067 6.33575 22.5899 6.37762 22.5481 6.41112C22.5063 6.44462 22.4477 6.46137 22.3807 6.46137C22.3221 6.46137 22.2719 6.46137 22.2468 6.43625L22.2384 6.453Z" fill="#434549"/>
<path d="M22.7419 6.453V6.386C22.7838 6.41112 22.834 6.4195 22.8758 6.4195C22.9177 6.4195 22.9595 6.41112 22.9846 6.386C23.0097 6.36087 23.0265 6.33575 23.0265 6.30225C23.0265 6.26875 23.0097 6.23525 22.9846 6.2185C22.9595 6.20175 22.9177 6.185 22.8591 6.185C22.8423 6.185 22.8089 6.185 22.7587 6.185V5.90862H23.0767V5.96725H22.834V6.12637C22.834 6.12637 22.8758 6.12637 22.8926 6.12637C22.9595 6.12637 23.0181 6.14312 23.0516 6.16825C23.085 6.20175 23.1101 6.23525 23.1101 6.2855C23.1101 6.33575 23.0934 6.37762 23.0516 6.41112C23.0097 6.44462 22.9511 6.46137 22.8842 6.46137C22.8256 6.46137 22.7754 6.46137 22.7503 6.43625L22.7419 6.453Z" fill="#434549"/>
<path d="M23.5894 5.92544V5.98406C23.5894 5.98406 23.5223 5.95894 23.4803 5.95894C23.4216 5.95894 23.3796 5.98406 23.3377 6.02594C23.3041 6.06781 23.2873 6.12644 23.2873 6.20181C23.3209 6.15156 23.3712 6.12644 23.4384 6.12644C23.4971 6.12644 23.5391 6.14319 23.5726 6.16831C23.6062 6.20181 23.623 6.23531 23.623 6.29394C23.623 6.35256 23.6062 6.39444 23.5642 6.42794C23.5223 6.46144 23.4803 6.47819 23.4216 6.47819C23.3545 6.47819 23.3041 6.45306 23.2705 6.41119C23.237 6.36931 23.2118 6.31069 23.2118 6.22694C23.2118 6.13481 23.237 6.05106 23.2873 6.00081C23.3377 5.94219 23.3964 5.91706 23.4803 5.91706C23.5223 5.91706 23.5642 5.91706 23.5894 5.93381V5.92544ZM23.43 6.17669C23.43 6.17669 23.3628 6.18506 23.3377 6.21019C23.3125 6.23531 23.3041 6.26044 23.3041 6.28556C23.3041 6.31906 23.3125 6.35256 23.3377 6.37769C23.3628 6.40281 23.3964 6.41956 23.43 6.41956C23.4635 6.41956 23.4971 6.41119 23.5223 6.38606C23.5474 6.36094 23.5558 6.33581 23.5558 6.30231C23.5558 6.26044 23.5474 6.23531 23.5223 6.21019C23.4971 6.18506 23.4719 6.17669 23.43 6.17669Z" fill="#434549"/>
<path d="M23.9167 6.46975C23.8495 6.46975 23.7992 6.44462 23.7656 6.40275C23.7321 6.3525 23.7153 6.2855 23.7153 6.20175C23.7153 6.10125 23.7321 6.03425 23.774 5.984C23.816 5.93375 23.8663 5.90862 23.9418 5.90862C24.0761 5.90862 24.1432 6.00075 24.1432 6.185C24.1432 6.27712 24.1264 6.34412 24.0845 6.39437C24.0425 6.44462 23.9922 6.46975 23.925 6.46975H23.9167ZM23.925 5.95887C23.8327 5.95887 23.7824 6.03425 23.7824 6.19337C23.7824 6.34412 23.8244 6.41112 23.9167 6.41112C24.009 6.41112 24.0509 6.33575 24.0509 6.185C24.0509 6.03425 24.009 5.9505 23.9167 5.9505L23.925 5.95887Z" fill="#434549"/>
<path d="M24.3614 6.17662C24.2859 6.14312 24.2439 6.10125 24.2439 6.04262C24.2439 6.00075 24.2607 5.96725 24.2943 5.94212C24.3278 5.917 24.3782 5.90862 24.4369 5.90862C24.4872 5.90862 24.5292 5.917 24.5628 5.94212C24.5963 5.96725 24.6131 5.99237 24.6131 6.03425C24.6131 6.09287 24.5712 6.14312 24.4956 6.17662C24.5879 6.21012 24.6383 6.252 24.6383 6.32737C24.6383 6.36925 24.6215 6.41112 24.5796 6.43625C24.5376 6.46137 24.4872 6.47812 24.4201 6.47812C24.3614 6.47812 24.3194 6.46137 24.2859 6.43625C24.2523 6.41112 24.2355 6.37762 24.2355 6.33575C24.2355 6.26875 24.2859 6.2185 24.3782 6.185L24.3614 6.17662ZM24.4201 6.21012C24.3362 6.23525 24.2943 6.27712 24.2943 6.32737C24.2943 6.3525 24.3026 6.37762 24.3278 6.39437C24.353 6.41112 24.3866 6.4195 24.4201 6.4195C24.4537 6.4195 24.4872 6.41112 24.5124 6.39437C24.5376 6.37762 24.546 6.3525 24.546 6.32737C24.546 6.26875 24.504 6.23525 24.4117 6.20175L24.4201 6.21012ZM24.5292 6.04262C24.5292 6.04262 24.5208 6.00075 24.504 5.984C24.4872 5.96725 24.4621 5.95887 24.4285 5.95887C24.3949 5.95887 24.3698 5.95887 24.353 5.984C24.3362 6.00075 24.3194 6.0175 24.3194 6.04262C24.3194 6.09287 24.353 6.12637 24.4285 6.1515C24.504 6.12637 24.5376 6.09287 24.5376 6.04262H24.5292Z" fill="#434549"/>
<path d="M21.3826 27.1476H22.8678L21.9699 29.0069H20.4847L21.3826 27.1476ZM9.10652 28.9985H9.4925L10.3903 27.1393H10.0044L9.10652 28.9985ZM14.1747 28.9985H14.3677L15.2655 27.1393H15.0725L14.1747 28.9985ZM13.7971 28.9985H13.9901L14.8879 27.1393H14.6949L13.7971 28.9985ZM12.4965 28.9985H12.6895L13.5873 27.1393H13.3943L12.4965 28.9985ZM25.3599 27.1476H24.5879L23.6985 28.9901C24.5963 28.8729 25.3012 28.1024 25.3599 27.1476ZM7.79752 28.9231L8.6534 27.1476H7.1682L6.72347 28.0773C6.96681 28.4793 7.34441 28.7891 7.79752 28.9231ZM17.8583 28.9985H19.3435L20.2414 27.1393H18.7562L17.8583 28.9985ZM15.0054 28.9985H17.5143L18.4121 27.1393H15.9032L15.0054 28.9985Z" fill="url(#paint2_linear_111_557)"/>
<path d="M24.4789 15.3724H24.3111V17.2484H24.4789V15.3724Z" fill="#434549"/>
<path d="M24.0593 15.3724H23.8915V17.2484H24.0593V15.3724Z" fill="#434549"/>
<path d="M23.6146 15.3724H23.4468V17.2484H23.6146V15.3724Z" fill="#434549"/>
<path d="M12.9496 3.92388C12.9496 3.92388 12.9328 3.89875 12.9244 3.89038C12.9244 3.882 12.9076 3.87363 12.8992 3.86525C12.8909 3.86525 12.8825 3.8485 12.8657 3.8485C12.8657 3.8485 12.916 3.83175 12.9328 3.82338C12.9496 3.815 12.9664 3.79825 12.9832 3.7815C12.9999 3.76475 13.0083 3.748 13.0167 3.72288C13.0167 3.70613 13.0251 3.681 13.0251 3.65588C13.0251 3.62238 13.0251 3.59725 13.0083 3.57213C12.9999 3.547 12.9832 3.53025 12.9664 3.5135C12.9496 3.49675 12.9244 3.48838 12.8992 3.48C12.8741 3.48 12.8405 3.47163 12.8153 3.47163H12.6056V4.1835H12.6895V3.882H12.7566C12.7566 3.882 12.7902 3.882 12.7986 3.882C12.8069 3.882 12.8237 3.89038 12.8321 3.89875C12.8405 3.89875 12.8573 3.9155 12.8657 3.93225C12.8741 3.949 12.8909 3.95738 12.8992 3.9825L13.0167 4.1835H13.1174L12.9832 3.96575C12.9832 3.96575 12.9664 3.93225 12.958 3.92388H12.9496ZM12.8573 3.78988C12.8573 3.78988 12.8237 3.79825 12.7986 3.79825H12.6811V3.53863H12.7986C12.8489 3.53863 12.8825 3.547 12.9076 3.57213C12.9328 3.59725 12.9412 3.62238 12.9412 3.66425C12.9412 3.68938 12.9412 3.70613 12.9328 3.72288C12.9328 3.73963 12.916 3.75638 12.8992 3.76475C12.8825 3.77313 12.8741 3.7815 12.8489 3.78988H12.8573Z" fill="#515253"/>
<path d="M11.2796 3.85681H11.5306V3.78144H11.2796V3.53856H11.5557V3.46319H11.1959V4.18344H11.5725V4.10806H11.2796V3.85681Z" fill="#515253"/>
<path d="M9.69389 3.53856H9.89527V4.18344H9.97918V3.53856H10.189V3.46319H9.69389V3.53856Z" fill="#515253"/>
<path d="M8.60305 3.96563C8.60305 4.01588 8.60305 4.04938 8.60305 4.0745C8.60305 4.0745 8.58627 4.04938 8.57787 4.02425L8.21706 3.46313H8.10798V4.175H8.19189V3.65575C8.19189 3.6055 8.19189 3.572 8.19189 3.55525C8.19189 3.55525 8.20867 3.58875 8.21706 3.59713L8.58627 4.16663H8.68696V3.45475H8.60305V3.95725V3.96563Z" fill="#515253"/>
<path d="M15.9198 3.74794L15.97 3.59719C15.97 3.59719 15.97 3.57206 15.9784 3.54694C15.9784 3.54694 15.9784 3.58881 15.9867 3.59719L16.0537 3.78981C16.0537 3.78981 16.1206 3.81494 16.1625 3.83169L16.0202 3.46319H15.9365L15.8361 3.73119C15.8361 3.73119 15.8863 3.73956 15.9114 3.74794H15.9198Z" fill="#515253"/>
<path d="M7.03404 3.46319H6.95003V4.17506H7.03404V3.46319Z" fill="#515253"/>
<path d="M20.1239 3.45475C20.0148 3.45475 19.9309 3.48825 19.8722 3.55525C19.8134 3.62225 19.7799 3.71438 19.7799 3.83163C19.7799 3.9405 19.8134 4.02425 19.8722 4.09125C19.9309 4.15825 20.0148 4.19175 20.1155 4.19175C20.2162 4.19175 20.3001 4.15825 20.3672 4.09125C20.4344 4.02425 20.4595 3.93213 20.4595 3.81488C20.4595 3.706 20.426 3.62225 20.3672 3.55525C20.3085 3.48825 20.2246 3.45475 20.1323 3.45475H20.1239ZM20.2917 4.041C20.2498 4.09125 20.1826 4.11638 20.1071 4.11638C20.0316 4.11638 19.9729 4.09125 19.9309 4.03263C19.8889 3.98238 19.8638 3.907 19.8638 3.82325C19.8638 3.7395 19.8889 3.66413 19.9309 3.61388C19.9812 3.56363 20.04 3.53013 20.1155 3.53013C20.191 3.53013 20.2498 3.55525 20.3001 3.6055C20.3421 3.65575 20.3672 3.73113 20.3672 3.82325C20.3672 3.91538 20.3421 3.99075 20.3001 4.041H20.2917Z" fill="#515253"/>
<path d="M23.3293 3.46319L23.0524 4.17506H23.1447L23.2202 3.97406H23.5223L23.5978 4.17506H23.6901L23.4132 3.46319H23.3293ZM23.2454 3.90706L23.3544 3.60556C23.3544 3.60556 23.3544 3.58044 23.3628 3.55531C23.3628 3.55531 23.3628 3.59719 23.3712 3.60556L23.4803 3.90706H23.2286H23.2454Z" fill="#515253"/>
<path d="M24.7723 4.10806V3.46319H24.6886V4.18344H25.0568V4.10806H24.7723Z" fill="#515253"/>
<path d="M21.9783 3.96563C21.9783 4.01588 21.9783 4.04938 21.9783 4.0745C21.9783 4.0745 21.9615 4.04938 21.9531 4.02425L21.5923 3.46313H21.4832V4.175H21.5671V3.65575C21.5671 3.6055 21.5671 3.572 21.5671 3.55525C21.5671 3.55525 21.5839 3.58875 21.5923 3.59713L21.9615 4.16663H22.0622V3.45475H21.9783V3.95725V3.96563Z" fill="#515253"/>
<path d="M18.7395 3.46319H18.6555V4.17506H18.7395V3.46319Z" fill="#515253"/>
<path d="M14.2082 3.614L14.5774 4.1835H14.6781V3.47163H14.5942V3.97413C14.5942 4.02438 14.5942 4.05788 14.5942 4.083C14.5942 4.083 14.5774 4.05788 14.5691 4.03275L14.2082 3.47163H14.0992V4.1835H14.1831V3.66425C14.1831 3.614 14.1831 3.5805 14.1831 3.56375C14.1831 3.56375 14.1999 3.59725 14.2082 3.60563V3.614Z" fill="#515253"/>
<path d="M17.1619 3.53856H17.3633V4.18344H17.4472V3.53856H17.6569V3.46319H17.1619V3.53856Z" fill="#515253"/>
<path d="M15.727 3.8065C15.039 3.8065 14.4768 4.36763 14.4768 5.07113C14.4768 5.77463 15.039 6.33575 15.727 6.33575C16.4151 6.33575 16.9773 5.77463 16.9773 5.07113C16.9773 4.36763 16.4151 3.8065 15.727 3.8065ZM15.727 6.26875C15.0641 6.26875 14.5355 5.73275 14.5355 5.06275C14.5355 4.39275 15.0725 3.85675 15.727 3.85675C16.3815 3.85675 16.9185 4.39275 16.9185 5.06275C16.9185 5.73275 16.3815 6.26875 15.727 6.26875Z" fill="url(#paint3_linear_111_557)"/>
<path opacity="0.31" d="M25.2844 19.1495V25.0036C24.6802 24.7356 23.2873 19.853 22.465 19.4594C21.156 18.8312 19.2932 22.9601 17.9506 20.858C16.2221 18.1612 14.2838 17.8514 13.2768 17.8514C12.4461 17.8514 11.3553 21.3772 10.1638 20.9585C7.89821 20.1629 6.9752 21.0422 6.47174 20.7575V16.6621C6.47174 15.3472 7.33601 14.3422 8.40167 14.4092L23.346 16.6537C24.4117 16.7207 25.276 17.843 25.276 19.1495H25.2844Z" fill="url(#paint4_linear_111_557)"/>
<path d="M10.684 24.3169L10.1806 22.2734L10.1973 26.3688H9.04778V19.5348H10.3568L11.1204 22.2651L11.8755 19.5348H13.151V26.3688L12.0518 26.4023L12.0182 22.3907L11.5315 24.3253H10.7008L10.684 24.3169Z" fill="#E4DFD0"/>
<path d="M17.1283 26.3604L16.885 24.7356H15.576L15.2991 26.3604H14.0572L15.3662 19.5264H17.1199L18.4289 26.3604H17.1199H17.1283ZM16.7088 23.5631L16.2808 20.6821L15.7941 23.5631H16.7171H16.7088Z" fill="#E4DFD0"/>
<path d="M19.3016 26.3604V19.5264H21.2399C21.8273 19.5264 22.2888 19.6771 22.6244 19.987C22.9601 20.2885 23.1195 20.7575 23.1195 21.3856V22.466C23.1195 23.0774 22.9601 23.5296 22.6328 23.8144C22.3139 24.0991 21.844 24.2415 21.2483 24.2415H20.6441V26.3688H19.3016V26.3604ZM20.6441 23.0774H21.156C21.3406 23.0774 21.4832 23.0271 21.5755 22.9183C21.6678 22.8094 21.7182 22.6084 21.7182 22.3153V21.5113C21.7182 21.2014 21.6678 20.992 21.5755 20.8831C21.4832 20.7743 21.3406 20.7156 21.156 20.7156H20.6441V23.0858V23.0774Z" fill="#E4DFD0"/>
<path d="M9.34146 19.2249C9.22399 19.2249 9.14008 19.1998 9.08134 19.1412C9.0226 19.0826 8.99743 18.9988 8.99743 18.8816V18.5382C8.99743 18.4209 9.0226 18.3372 9.08134 18.2786C9.14008 18.2199 9.22399 18.1864 9.34146 18.1864C9.45893 18.1864 9.53445 18.2116 9.5848 18.2702C9.63515 18.3288 9.66871 18.4209 9.66871 18.5466H9.43376C9.43376 18.4796 9.42537 18.4209 9.40859 18.3958C9.39181 18.3707 9.36663 18.3539 9.33307 18.3539C9.29111 18.3539 9.26594 18.3707 9.24916 18.3958C9.23238 18.4209 9.22399 18.4796 9.22399 18.5466V18.8481C9.22399 18.9151 9.22399 18.9653 9.24916 18.9988C9.27433 19.0323 9.29111 19.0407 9.33307 19.0407C9.36663 19.0407 9.39181 19.0239 9.40859 19.0072C9.42537 18.9821 9.43376 18.9318 9.43376 18.8481L9.66871 18.8648C9.66871 18.9904 9.63515 19.0826 9.5848 19.1412C9.53445 19.1998 9.45054 19.2249 9.33307 19.2249H9.34146Z" fill="#E4DFD0"/>
<path d="M10.9525 19.2249C10.8518 19.2249 10.7679 19.1914 10.7092 19.1328C10.6505 19.0741 10.6253 18.9904 10.6253 18.8899V18.5214C10.6253 18.4125 10.6505 18.3288 10.7092 18.2701C10.7679 18.2115 10.8434 18.178 10.9525 18.178C11.0616 18.178 11.1371 18.2115 11.1959 18.2701C11.2546 18.3288 11.2798 18.4125 11.2798 18.5214V18.8899C11.2798 18.9904 11.2546 19.0741 11.1959 19.1328C11.1371 19.1914 11.0616 19.2249 10.9525 19.2249ZM10.9525 19.049C10.9525 19.049 11.0113 19.0323 11.0197 19.0155C11.0364 18.9904 11.0364 18.9401 11.0364 18.8731V18.5465C11.0364 18.4795 11.0364 18.4293 11.0197 18.4041C11.0029 18.379 10.9861 18.3623 10.9525 18.3623C10.919 18.3623 10.8938 18.3706 10.8854 18.4041C10.8686 18.4293 10.8686 18.4795 10.8686 18.5465V18.8731C10.8686 18.9401 10.8686 18.9904 10.8854 19.0155C10.9022 19.0406 10.919 19.049 10.9525 19.049Z" fill="#E4DFD0"/>
<path d="M12.5133 18.9068L12.4294 18.555L12.4545 19.2083H12.2448V18.1949H12.4545L12.5804 18.6639L12.7063 18.1949H12.9076V19.2083H12.6979L12.723 18.5718L12.6391 18.9068H12.4965H12.5133Z" fill="#E4DFD0"/>
<path d="M14.1411 18.9068L14.0572 18.555L14.0824 19.2083H13.8726V18.1949H14.0824L14.2082 18.6639L14.3341 18.1949H14.5355V19.2083H14.3257L14.3509 18.5718L14.267 18.9068H14.1243H14.1411Z" fill="#E4DFD0"/>
<path d="M15.8445 19.225C15.727 19.225 15.6515 19.1915 15.5928 19.1329C15.5424 19.0743 15.5089 18.9821 15.5089 18.8565V18.1949H15.7438V18.8565C15.7438 18.9235 15.7438 18.9738 15.7606 18.9989C15.7774 19.024 15.7941 19.0324 15.8361 19.0324C15.8781 19.0324 15.8948 19.024 15.9116 18.9989C15.9284 18.9738 15.9284 18.9235 15.9284 18.8565V18.1949H16.1633V18.8565C16.1633 18.9821 16.1382 19.0743 16.0794 19.1329C16.0207 19.1915 15.9452 19.225 15.8277 19.225H15.8445Z" fill="#E4DFD0"/>
<path d="M17.5311 19.2167L17.3381 18.5299V19.2167H17.1367V18.2033H17.3884L17.5982 18.9236V18.2033H17.7996V19.2167H17.5311Z" fill="#E4DFD0"/>
<path d="M18.7729 19.2167V19.0408H18.9827V18.3792H18.7729V18.2033H19.4358V18.3792H19.2261V19.0408H19.4358V19.2167H18.7729Z" fill="#E4DFD0"/>
<path d="M20.619 19.2167V18.3792H20.384V18.2033H21.0889V18.3792H20.8539V19.2167H20.619Z" fill="#E4DFD0"/>
<path d="M22.4818 19.2167H22.2468V18.8398L21.9951 18.2033H22.23L22.3643 18.6053L22.4985 18.2033H22.7335L22.4818 18.8398V19.2167Z" fill="#E4DFD0"/>
<path d="M8.42685 9.51825L8.41007 9.84487C8.65341 9.75275 8.88836 9.78625 9.14848 9.79462C9.4086 9.803 9.64355 9.7025 9.7778 10.004C9.92045 10.3222 9.72746 10.4897 9.61837 10.7577C9.51768 11.009 9.49251 11.0006 9.27434 11.21C9.16526 11.3105 8.8464 11.4612 9.1317 11.6204L9.20721 11.5199C9.17365 11.7125 9.27434 11.6455 9.30791 11.6874C9.50929 11.9219 9.5932 12.1396 9.53446 12.416C9.031 12.8934 8.76249 13.2451 7.96535 13.354C7.85626 13.3707 7.34441 13.3791 7.26889 13.354C7.00877 13.22 7.38637 12.9436 7.43671 12.8599C7.46189 12.818 7.52062 12.5751 7.55419 12.483C7.68844 12.1145 7.83109 11.7376 7.88144 11.344L7.96535 11.3607C7.99052 11.143 7.99052 10.9252 8.0073 10.7075C8.0073 10.6572 8.07443 10.5316 8.08282 10.4981C8.14156 10.2971 8.04086 10.2804 8.03247 10.1715C8.03247 10.1296 8.15834 10.1464 8.08282 10.0542L7.95695 10.0794C7.81431 9.79462 8.06604 9.803 8.16673 9.7025C8.22547 9.64387 8.1919 9.52662 8.43524 9.535L8.42685 9.51825ZM8.13317 11.5199C8.14995 11.4529 8.70375 11.2267 8.78766 11.1681C8.83801 11.1346 8.94709 11.009 8.98066 10.9587C9.031 10.8834 9.16526 10.4814 9.15687 10.406C9.1317 10.1212 8.34294 10.1464 8.17512 10.2971L8.27581 10.3306C8.16673 10.5819 8.18351 10.8666 8.13317 11.1346C8.09121 11.3189 8.01569 11.5199 7.98213 11.6706C7.90661 11.9805 7.80592 12.2736 7.69683 12.5332C7.69683 12.5416 7.78074 12.6002 7.64649 12.6756C7.64649 12.8766 8.72893 12.885 8.87997 12.6002C8.98066 12.3992 8.83801 12.148 8.67858 11.9889C8.54433 11.8549 8.06604 11.7209 8.13317 11.5115V11.5199Z" fill="black"/>
<path d="M17.5479 10.1045C17.5898 10.1548 17.5311 10.6908 17.5143 10.8164C17.5143 10.875 17.4556 10.9169 17.4472 10.9588C17.3968 11.2603 17.4304 11.6288 17.229 11.8633C17.3884 11.9638 18.1772 11.8633 18.1101 12.1313L17.2038 12.3658L17.2626 13.1111C17.1031 13.1363 16.9102 13.1195 16.7507 13.1446C16.6416 13.1614 16.5493 13.3205 16.3647 13.2116L16.4487 12.4244C16.3312 12.4244 16.1969 12.3909 16.0794 12.4076C15.769 12.4495 15.6515 13.22 15.3746 13.3624C15.3075 13.3959 14.7872 13.5718 14.7285 13.5801C14.5271 13.6053 14.46 13.3875 14.5271 13.287C14.5355 13.2703 14.6446 13.2535 14.6949 13.1865C14.8376 13.019 15.0809 12.6254 15.1984 12.4244C15.6179 11.7125 15.9284 10.8918 16.4487 10.3223C16.5242 10.2385 16.5997 10.0961 16.692 10.071C16.843 10.0208 17.4304 10.004 17.5395 10.1129L17.5479 10.1045ZM16.541 11.679C16.3563 11.679 16.2557 11.7795 16.2808 11.9638L16.5326 11.9805L16.5493 11.6874L16.541 11.679Z" fill="black"/>
<path d="M25.3851 11.6288L23.1111 11.3691C23.2202 11.8716 22.9936 12.4076 22.8006 12.8766C22.7755 12.9436 22.7083 12.9353 22.6916 12.9771C22.5825 13.22 22.4314 13.8816 22.121 13.9068C21.9783 13.9151 21.4413 13.9068 21.4245 13.7476C21.5 13.4964 21.5923 13.1614 21.7518 12.9688C21.886 12.5835 22.1965 12.1731 22.2049 11.7711L22.2972 11.8298L22.3475 11.4361C22.2552 11.2854 21.693 11.5031 21.5252 11.5199C21.4161 11.5366 20.4763 11.6036 20.4763 11.5199C20.4931 11.2519 20.5938 11.2351 20.8204 11.1681C21.8608 10.8499 23.6313 10.8834 24.6802 11.1179C24.9403 11.1765 25.4018 11.3105 25.3851 11.6371V11.6288Z" fill="black"/>
<path d="M11.8672 11.6371C12.1776 11.6539 12.4713 11.6204 12.7566 11.7795C12.7314 12.0056 12.4294 11.947 12.2699 11.9973C12.1441 12.0391 12.0685 12.1815 11.9007 12.1313C11.8839 12.1396 11.8755 12.4328 11.8923 12.4663C11.9175 12.5165 12.2783 12.5584 12.0434 12.7343C12.0182 12.751 11.5231 12.952 11.456 12.9771C11.3973 12.9939 11.3469 13.0106 11.2882 13.0023C11.2043 12.9771 11.1036 12.2904 11.1455 12.1983C11.1036 12.1564 10.4659 12.1983 10.4071 12.2736C10.3652 12.3239 10.3652 12.5333 10.3232 12.617C10.298 12.6589 10.2393 12.6589 10.2057 12.7091C10.1638 12.7845 10.189 12.8766 10.105 12.9604C9.95401 13.1363 9.60159 13.1279 9.54285 13.3038C9.52607 13.3121 9.43377 13.2284 9.42538 13.1949C9.37503 13.086 10.1806 11.6706 10.1638 11.3943H10.2896L10.3316 11.21C10.533 11.076 10.9525 10.2469 11.1036 10.1799C11.2378 10.1213 11.8336 10.004 11.9259 10.138L11.8755 11.6288L11.8672 11.6371ZM11.07 11.3608C11.07 11.3608 10.9274 11.3273 10.8854 11.2938C10.7176 11.6706 10.533 11.813 11.112 11.7544C11.1288 11.7376 11.0868 11.3859 11.07 11.3691V11.3608Z" fill="black"/>
<path d="M20.0316 12.9939C20.3085 13.1195 21.2315 13.1362 21.2315 13.5215C21.2315 13.6555 20.6609 13.6555 20.5602 13.6471C20.4344 13.6304 20.191 13.488 20.0064 13.4545C19.3519 13.3121 18.7478 13.5047 18.1101 13.3456C18.2443 12.751 18.6303 12.2736 18.9072 11.746C19.075 11.4277 19.4442 10.8415 19.5533 10.5232C19.5785 10.4479 19.5533 10.406 19.5533 10.339C19.8302 10.3641 20.1071 10.3055 20.3337 10.4814C20.3337 10.4981 20.2749 10.741 20.2582 10.7829C20.0148 11.2937 19.6121 11.8381 19.3687 12.3071C19.2596 12.5249 19.1338 12.7007 19.0666 12.9436L20.0316 12.9939Z" fill="black"/>
<path d="M14.8711 10.0961C14.8711 10.0961 14.8711 10.2469 14.8124 10.2636C14.3173 10.3222 13.7719 10.6321 13.6377 11.143C13.7384 11.6539 14.8376 11.8297 15.0222 12.0642C15.0725 12.1312 15.0893 12.2066 15.0473 12.282C14.5019 12.6337 13.8894 12.8766 13.2768 13.0692C13.2097 13.0944 13.1258 13.1279 13.0922 13.1362C12.8573 13.2032 12.6224 13.2954 12.379 13.2535C12.3622 13.1697 12.4377 13.153 12.4629 13.086C12.4713 13.0525 12.4294 12.9855 12.4461 12.9687C12.5049 12.9017 13.9062 12.5667 13.9649 12.3657C13.9901 12.2904 13.9062 12.2569 13.8558 12.2234C13.495 11.9972 12.7147 11.8214 12.8489 11.2184C12.8573 11.1681 12.9328 11.143 12.9496 11.1011C12.9832 11.0425 12.9832 10.9587 13.0167 10.9085C13.0587 10.8499 13.5621 10.5735 13.6796 10.4897C13.7551 10.4395 14.0069 10.1631 14.0656 10.138C14.1831 10.0877 14.7872 10.004 14.8627 10.1045L14.8711 10.0961Z" fill="black"/>
<defs>
<linearGradient id="paint0_linear_111_557" x1="25.0075" y1="3.02763" x2="6.92081" y2="28.8049" gradientUnits="userSpaceOnUse">
<stop stop-color="#FDF9F0"/>
<stop offset="1" stop-color="#A29884"/>
</linearGradient>
<linearGradient id="paint1_linear_111_557" x1="24.9977" y1="3.09462" x2="7.06948" y2="28.7233" gradientUnits="userSpaceOnUse">
<stop stop-color="#EDE8D9"/>
<stop offset="0.36" stop-color="#F4EEE0"/>
<stop offset="1" stop-color="#FFF7EB"/>
</linearGradient>
<linearGradient id="paint2_linear_111_557" x1="6.72347" y1="28.0773" x2="25.3599" y2="28.0773" gradientUnits="userSpaceOnUse">
<stop stop-color="#C9C5B8"/>
<stop offset="1" stop-color="#E4DFD0"/>
</linearGradient>
<linearGradient id="paint3_linear_111_557" x1="14.9299" y1="6.36925" x2="16.5197" y2="3.75356" gradientUnits="userSpaceOnUse">
<stop stop-color="#FDF9F0"/>
<stop offset="1" stop-color="#A29884"/>
</linearGradient>
<linearGradient id="paint4_linear_111_557" x1="2.30741" y1="20.8016" x2="2.6536" y2="13.2217" gradientUnits="userSpaceOnUse">
<stop offset="0.05" stop-color="#FFFAEB" stop-opacity="0.7"/>
<stop offset="0.68" stop-color="#FFEDCF" stop-opacity="0"/>
</linearGradient>
</defs>
</svg>
