<svg width="32" height="32" viewBox="0 0 32 32" fill="none" xmlns="http://www.w3.org/2000/svg">
<g clip-path="url(#clip0_111_560)">
<path d="M23.4038 2H7.98781C6.88906 2 6 2.92962 6 4.08537V26.7146C6 27.862 6.88906 28.8 7.98781 28.8H23.4038C24.5026 28.8 25.3916 27.8704 25.3916 26.7146V4.08537C25.3916 2.938 24.5026 2 23.4038 2ZM15.4777 5.79388C14.8067 5.79388 14.27 5.22437 14.27 4.52925C14.27 3.83412 14.8151 3.26462 15.4777 3.26462C16.1403 3.26462 16.6855 3.83412 16.6855 4.52925C16.6855 5.22437 16.1403 5.79388 15.4777 5.79388Z" fill="url(#paint0_linear_111_560)"/>
<path d="M23.3535 2.067H8.08007C6.98971 2.067 6.10904 2.98825 6.10904 4.13563V26.6141C6.10904 27.7531 6.98971 28.6828 8.08007 28.6828H23.3535C24.4438 28.6828 25.3245 27.7531 25.3245 26.6141V4.13563C25.3245 2.99663 24.4438 2.067 23.3535 2.067ZM15.4945 5.83575C14.8319 5.83575 14.2951 5.27463 14.2951 4.5795C14.2951 3.88438 14.8319 3.32325 15.4945 3.32325C16.1571 3.32325 16.6939 3.88438 16.6939 4.5795C16.6939 5.27463 16.1571 5.83575 15.4945 5.83575Z" fill="url(#paint1_linear_111_560)"/>
<path d="M6.07549 26.7398C6.07549 27.8285 6.931 28.7079 7.97942 28.7079H23.387C24.4355 28.7079 25.291 27.8285 25.291 26.7398V16.9912H6.07549V26.7398Z" fill="#AA9565"/>
<path d="M23.3535 2.12563H8.08007C6.98971 2.12563 6.10904 3.01338 6.10904 4.10213V4.99825L14.3371 4.9815C14.27 4.83075 14.2364 4.66325 14.2364 4.48738C14.2364 3.80063 14.7984 3.2395 15.4861 3.2395C16.1739 3.2395 16.7358 3.80063 16.7358 4.48738C16.7358 4.66325 16.7023 4.83075 16.6352 4.9815L25.3245 4.99825V4.10213C25.3245 3.01338 24.4438 2.134 23.3535 2.134V2.12563Z" fill="#AA9565"/>
<path d="M21.3741 5.44225L21.1141 5.96987H21.0386L21.2818 5.48412H20.9547V5.4255H21.3741V5.44225Z" fill="#434549"/>
<path d="M21.4747 5.94469V5.87769C21.5166 5.91119 21.567 5.91956 21.6257 5.91956C21.6676 5.91956 21.7096 5.91119 21.7347 5.89444C21.7599 5.87769 21.7767 5.85256 21.7767 5.81906C21.7767 5.75206 21.7179 5.71019 21.5921 5.71019H21.5418V5.65994H21.5921C21.7012 5.65994 21.7515 5.62644 21.7515 5.55944C21.7515 5.50081 21.7096 5.46731 21.6257 5.46731C21.5837 5.46731 21.5334 5.48406 21.4915 5.50919V5.45056C21.4915 5.45056 21.5837 5.41706 21.6425 5.41706C21.7012 5.41706 21.7431 5.42544 21.7767 5.45056C21.8102 5.47569 21.827 5.50919 21.827 5.54269C21.827 5.61806 21.785 5.65994 21.6928 5.68506C21.7431 5.68506 21.7767 5.70181 21.8018 5.72694C21.827 5.75206 21.8438 5.77719 21.8438 5.81906C21.8438 5.86931 21.827 5.91119 21.7767 5.93631C21.7347 5.96981 21.676 5.97819 21.6089 5.97819C21.5502 5.97819 21.4999 5.96981 21.4579 5.95306L21.4747 5.94469Z" fill="#434549"/>
<path d="M21.9947 5.953V5.886C22.0367 5.91112 22.087 5.9195 22.1289 5.9195C22.1709 5.9195 22.2128 5.91112 22.238 5.886C22.2631 5.86087 22.2799 5.83575 22.2799 5.80225C22.2799 5.76875 22.2631 5.73525 22.238 5.7185C22.2128 5.70175 22.1709 5.685 22.1122 5.685C22.0954 5.685 22.0618 5.685 22.0115 5.685V5.40862H22.3302V5.46725H22.087V5.62637C22.087 5.62637 22.1289 5.62637 22.1457 5.62637C22.2128 5.62637 22.2715 5.64312 22.3051 5.66825C22.3386 5.70175 22.3638 5.73525 22.3638 5.7855C22.3638 5.83575 22.347 5.87762 22.3051 5.91112C22.2631 5.94462 22.2044 5.96137 22.1373 5.96137C22.0786 5.96137 22.0283 5.96137 22.0031 5.93625L21.9947 5.953Z" fill="#434549"/>
<path d="M22.498 5.953V5.886C22.5399 5.91112 22.5902 5.9195 22.6322 5.9195C22.6741 5.9195 22.716 5.91112 22.7412 5.886C22.7664 5.86087 22.7831 5.83575 22.7831 5.80225C22.7831 5.76875 22.7664 5.73525 22.7412 5.7185C22.716 5.70175 22.6741 5.685 22.6154 5.685C22.5986 5.685 22.5651 5.685 22.5147 5.685V5.40862H22.8335V5.46725H22.5902V5.62637C22.5902 5.62637 22.6322 5.62637 22.6489 5.62637C22.716 5.62637 22.7748 5.64312 22.8083 5.66825C22.8419 5.70175 22.867 5.73525 22.867 5.7855C22.867 5.83575 22.8502 5.87762 22.8083 5.91112C22.7664 5.94462 22.7077 5.96137 22.6406 5.96137C22.5818 5.96137 22.5315 5.96137 22.5064 5.93625L22.498 5.953Z" fill="#434549"/>
<path d="M23.3451 5.42544V5.48406C23.3451 5.48406 23.278 5.45894 23.2361 5.45894C23.1774 5.45894 23.1354 5.48406 23.0935 5.52594C23.0599 5.56781 23.0432 5.62644 23.0432 5.70181C23.0767 5.65156 23.127 5.62644 23.1941 5.62644C23.2528 5.62644 23.2948 5.64319 23.3283 5.66831C23.3619 5.70181 23.3786 5.73531 23.3786 5.79394C23.3786 5.85256 23.3619 5.89444 23.3199 5.92794C23.278 5.96144 23.2361 5.97819 23.1774 5.97819C23.1103 5.97819 23.0599 5.95306 23.0264 5.91119C22.9928 5.86931 22.9677 5.81069 22.9677 5.72694C22.9677 5.63481 22.9928 5.55106 23.0432 5.50081C23.0935 5.44219 23.1522 5.41706 23.2361 5.41706C23.278 5.41706 23.3199 5.41706 23.3451 5.43381V5.42544ZM23.1857 5.67669C23.1857 5.67669 23.1186 5.68506 23.0935 5.71019C23.0683 5.73531 23.0599 5.76044 23.0599 5.78556C23.0599 5.81906 23.0683 5.85256 23.0935 5.87769C23.1186 5.90281 23.1522 5.91956 23.1857 5.91956C23.2193 5.91956 23.2528 5.91119 23.278 5.88606C23.3032 5.86094 23.3115 5.83581 23.3115 5.80231C23.3115 5.76044 23.3032 5.73531 23.278 5.71019C23.2528 5.68506 23.2277 5.67669 23.1857 5.67669Z" fill="#434549"/>
<path d="M23.6722 5.96975C23.6051 5.96975 23.5548 5.94462 23.5212 5.90275C23.4877 5.8525 23.4709 5.7855 23.4709 5.70175C23.4709 5.60125 23.4877 5.53425 23.5296 5.484C23.5715 5.43375 23.6219 5.40862 23.6974 5.40862C23.8316 5.40862 23.8987 5.50075 23.8987 5.685C23.8987 5.77712 23.8819 5.84412 23.8399 5.89437C23.798 5.94462 23.7477 5.96975 23.6806 5.96975H23.6722ZM23.6806 5.45887C23.5883 5.45887 23.538 5.53425 23.538 5.69337C23.538 5.84412 23.5799 5.91112 23.6722 5.91112C23.7645 5.91112 23.8064 5.83575 23.8064 5.685C23.8064 5.53425 23.7645 5.4505 23.6722 5.4505L23.6806 5.45887Z" fill="#434549"/>
<path d="M24.1167 5.67662C24.0412 5.64312 23.9993 5.60125 23.9993 5.54262C23.9993 5.50075 24.0161 5.46725 24.0496 5.44212C24.0832 5.417 24.1335 5.40862 24.1922 5.40862C24.2425 5.40862 24.2845 5.417 24.318 5.44212C24.3516 5.46725 24.3684 5.49237 24.3684 5.53425C24.3684 5.59287 24.3264 5.64312 24.2509 5.67662C24.3432 5.71012 24.3935 5.752 24.3935 5.82737C24.3935 5.86925 24.3767 5.91112 24.3348 5.93625C24.2929 5.96137 24.2425 5.97812 24.1754 5.97812C24.1167 5.97812 24.0748 5.96137 24.0412 5.93625C24.0077 5.91112 23.9909 5.87762 23.9909 5.83575C23.9909 5.76875 24.0412 5.7185 24.1335 5.685L24.1167 5.67662ZM24.1754 5.71012C24.0916 5.73525 24.0496 5.77712 24.0496 5.82737C24.0496 5.8525 24.058 5.87762 24.0832 5.89437C24.1083 5.91112 24.1419 5.9195 24.1754 5.9195C24.209 5.9195 24.2425 5.91112 24.2677 5.89437C24.2929 5.87762 24.3013 5.8525 24.3013 5.82737C24.3013 5.76875 24.2593 5.73525 24.1671 5.70175L24.1754 5.71012ZM24.2845 5.54262C24.2845 5.54262 24.2761 5.50075 24.2593 5.484C24.2425 5.46725 24.2174 5.45887 24.1838 5.45887C24.1503 5.45887 24.1251 5.45887 24.1083 5.484C24.0916 5.50075 24.0748 5.5175 24.0748 5.54262C24.0748 5.59287 24.1083 5.62637 24.1838 5.6515C24.2593 5.62637 24.2929 5.59287 24.2929 5.54262H24.2845Z" fill="#434549"/>
<path d="M21.1392 26.6476H22.6238L21.7263 28.5069H20.2418L21.1392 26.6476ZM8.86848 28.4985H9.2543L10.1517 26.6393H9.76593L8.86848 28.4985ZM13.9345 28.4985H14.1274L15.0248 26.6393H14.8319L13.9345 28.4985ZM13.557 28.4985H13.7499L14.6474 26.6393H14.4545L13.557 28.4985ZM12.257 28.4985H12.4499L13.3473 26.6393H13.1544L12.257 28.4985ZM25.1148 26.6476H24.3432L23.4541 28.4901C24.3516 28.3729 25.0561 27.6024 25.1148 26.6476ZM7.56005 28.4231L8.41556 26.6476H6.931L6.48647 27.5773C6.7297 27.9793 7.10713 28.2891 7.56005 28.4231ZM17.6165 28.4985H19.1011L19.9985 26.6393H18.514L17.6165 28.4985ZM14.7648 28.4985H17.2726L18.1701 26.6393H15.6623L14.7648 28.4985Z" fill="url(#paint2_linear_111_560)"/>
<path d="M24.2342 14.8724H24.0664V16.7484H24.2342V14.8724Z" fill="#434549"/>
<path d="M23.8148 14.8724H23.647V16.7484H23.8148V14.8724Z" fill="#434549"/>
<path d="M23.3703 14.8724H23.2025V16.7484H23.3703V14.8724Z" fill="#434549"/>
<path d="M12.7099 3.42388C12.7099 3.42388 12.6931 3.39875 12.6847 3.39038C12.6847 3.382 12.668 3.37363 12.6596 3.36525C12.6512 3.36525 12.6428 3.3485 12.626 3.3485C12.626 3.3485 12.6763 3.33175 12.6931 3.32338C12.7099 3.315 12.7267 3.29825 12.7434 3.2815C12.7602 3.26475 12.7686 3.248 12.777 3.22288C12.777 3.20613 12.7854 3.181 12.7854 3.15588C12.7854 3.12238 12.7854 3.09725 12.7686 3.07213C12.7602 3.047 12.7434 3.03025 12.7267 3.0135C12.7099 2.99675 12.6847 2.98838 12.6596 2.98C12.6344 2.98 12.6009 2.97163 12.5757 2.97163H12.366V3.6835H12.4499V3.382H12.517C12.517 3.382 12.5505 3.382 12.5589 3.382C12.5673 3.382 12.5841 3.39038 12.5925 3.39875C12.6009 3.39875 12.6176 3.4155 12.626 3.43225C12.6344 3.449 12.6512 3.45738 12.6596 3.4825L12.777 3.6835H12.8776L12.7434 3.46575C12.7434 3.46575 12.7267 3.43225 12.7183 3.42388H12.7099ZM12.6176 3.28988C12.6176 3.28988 12.5841 3.29825 12.5589 3.29825H12.4415V3.03863H12.5589C12.6092 3.03863 12.6428 3.047 12.668 3.07213C12.6931 3.09725 12.7015 3.12238 12.7015 3.16425C12.7015 3.18938 12.7015 3.20613 12.6931 3.22288C12.6931 3.23963 12.6763 3.25638 12.6596 3.26475C12.6428 3.27313 12.6344 3.2815 12.6092 3.28988H12.6176Z" fill="#515253"/>
<path d="M11.0408 3.35681H11.2924V3.28144H11.0408V3.03856H11.3176V2.96319H10.9569V3.68344H11.3344V3.60806H11.0408V3.35681Z" fill="#515253"/>
<path d="M9.4556 3.03856H9.65689V3.68344H9.74077V3.03856H9.95045V2.96319H9.4556V3.03856Z" fill="#515253"/>
<path d="M8.36523 3.46563C8.36523 3.51588 8.36523 3.54938 8.36523 3.5745C8.36523 3.5745 8.34846 3.54938 8.34007 3.52425L7.97941 2.96313H7.87038V3.675H7.95425V3.15575C7.95425 3.1055 7.95425 3.072 7.95425 3.05525C7.95425 3.05525 7.97102 3.08875 7.97941 3.09713L8.34846 3.66663H8.44911V2.95475H8.36523V3.45725V3.46563Z" fill="#515253"/>
<path d="M15.679 3.24794L15.7294 3.09719C15.7294 3.09719 15.7294 3.07206 15.7377 3.04694C15.7377 3.04694 15.7377 3.08881 15.7461 3.09719L15.8132 3.28981C15.8132 3.28981 15.8803 3.31494 15.9223 3.33169L15.7797 2.96319H15.6958L15.5952 3.23119C15.5952 3.23119 15.6455 3.23956 15.6706 3.24794H15.679Z" fill="#515253"/>
<path d="M6.79679 2.96319H6.71292V3.67506H6.79679V2.96319Z" fill="#515253"/>
<path d="M19.8811 2.95475C19.7721 2.95475 19.6882 2.98825 19.6295 3.05525C19.5708 3.12225 19.5372 3.21438 19.5372 3.33163C19.5372 3.4405 19.5708 3.52425 19.6295 3.59125C19.6882 3.65825 19.7721 3.69175 19.8727 3.69175C19.9734 3.69175 20.0572 3.65825 20.1243 3.59125C20.1914 3.52425 20.2166 3.43213 20.2166 3.31488C20.2166 3.206 20.183 3.12225 20.1243 3.05525C20.0656 2.98825 19.9817 2.95475 19.8895 2.95475H19.8811ZM20.0488 3.541C20.0069 3.59125 19.9398 3.61638 19.8643 3.61638C19.7888 3.61638 19.7301 3.59125 19.6882 3.53263C19.6463 3.48238 19.6211 3.407 19.6211 3.32325C19.6211 3.2395 19.6463 3.16413 19.6882 3.11388C19.7385 3.06363 19.7972 3.03013 19.8727 3.03013C19.9482 3.03013 20.0069 3.05525 20.0572 3.1055C20.0992 3.15575 20.1243 3.23113 20.1243 3.32325C20.1243 3.41538 20.0992 3.49075 20.0572 3.541H20.0488Z" fill="#515253"/>
<path d="M23.0851 2.96319L22.8083 3.67506H22.9005L22.976 3.47406H23.278L23.3535 3.67506H23.4457L23.1689 2.96319H23.0851ZM23.0012 3.40706L23.1102 3.10556C23.1102 3.10556 23.1102 3.08044 23.1186 3.05531C23.1186 3.05531 23.1186 3.09719 23.127 3.10556L23.236 3.40706H22.9844H23.0012Z" fill="#515253"/>
<path d="M24.5277 3.60806V2.96319H24.4438V3.68344H24.8129V3.60806H24.5277Z" fill="#515253"/>
<path d="M21.7347 3.46563C21.7347 3.51588 21.7347 3.54938 21.7347 3.5745C21.7347 3.5745 21.7179 3.54938 21.7095 3.52425L21.3489 2.96313H21.2399V3.675H21.3237V3.15575C21.3237 3.1055 21.3237 3.072 21.3237 3.05525C21.3237 3.05525 21.3405 3.08875 21.3489 3.09713L21.7179 3.66663H21.8186V2.95475H21.7347V3.45725V3.46563Z" fill="#515253"/>
<path d="M18.4972 2.96319H18.4133V3.67506H18.4972V2.96319Z" fill="#515253"/>
<path d="M13.968 3.114L14.337 3.6835H14.4377V2.97163H14.3538V3.47413C14.3538 3.52438 14.3538 3.55788 14.3538 3.583C14.3538 3.583 14.337 3.55788 14.3287 3.53275L13.968 2.97163H13.859V3.6835H13.9428V3.16425C13.9428 3.114 13.9428 3.0805 13.9428 3.06375C13.9428 3.06375 13.9596 3.09725 13.968 3.10563V3.114Z" fill="#515253"/>
<path d="M16.9204 3.03856H17.1217V3.68344H17.2055V3.03856H17.4152V2.96319H16.9204V3.03856Z" fill="#515253"/>
<path d="M15.4861 3.3065C14.7984 3.3065 14.2364 3.86763 14.2364 4.57113C14.2364 5.27463 14.7984 5.83575 15.4861 5.83575C16.1739 5.83575 16.7358 5.27463 16.7358 4.57113C16.7358 3.86763 16.1739 3.3065 15.4861 3.3065ZM15.4861 5.76875C14.8235 5.76875 14.2951 5.23275 14.2951 4.56275C14.2951 3.89275 14.8319 3.35675 15.4861 3.35675C16.1403 3.35675 16.6771 3.89275 16.6771 4.56275C16.6771 5.23275 16.1403 5.76875 15.4861 5.76875Z" fill="url(#paint3_linear_111_560)"/>
<path opacity="0.31" d="M25.0394 18.6495V20.425C24.4355 20.157 23.387 20.4836 23.2361 19.5875C23.2361 19.5875 18.5391 21.8069 16.0313 22.033C14.0183 22.2172 14.1693 21.2625 13.1712 21.2625C12.3409 21.2625 10.1685 21.6812 8.97752 21.2625C6.71293 20.4669 6.74648 20.5422 6.24324 20.2659V16.1705C6.24324 14.8556 7.10714 13.8506 8.17234 13.9176L23.1103 16.1621C24.1754 16.2291 25.0394 17.3514 25.0394 18.6579V18.6495Z" fill="url(#paint4_linear_111_560)"/>
<path d="M10.4453 23.8169L9.94206 21.7734L9.95884 25.8688H8.80977V19.0348H10.1182L10.8815 21.7651L11.6363 19.0348H12.9112V25.8688L11.8124 25.9023L11.7789 21.8907L11.2924 23.8253H10.4621L10.4453 23.8169Z" fill="#E4DFD0"/>
<path d="M16.8868 25.8604L16.6436 24.2356H15.3351L15.0584 25.8604H13.817L15.1255 19.0264H16.8784L18.1869 25.8604H16.8784H16.8868ZM16.4674 23.0631L16.0397 20.1821L15.5532 23.0631H16.4758H16.4674Z" fill="#E4DFD0"/>
<path d="M19.0591 25.8604V19.0264H20.9966C21.5837 19.0264 22.045 19.1771 22.3805 19.487C22.716 19.7885 22.8754 20.2575 22.8754 20.8856V21.966C22.8754 22.5774 22.716 23.0296 22.3889 23.3144C22.0702 23.5991 21.6005 23.7415 21.005 23.7415H20.4011V25.8687H19.0591V25.8604ZM20.4011 22.5774H20.9128C21.0973 22.5774 21.2399 22.5271 21.3321 22.4182C21.4244 22.3094 21.4747 22.1084 21.4747 21.8152V21.0113C21.4747 20.7014 21.4244 20.492 21.3321 20.3831C21.2399 20.2743 21.0973 20.2156 20.9128 20.2156H20.4011V22.5857V22.5774Z" fill="#E4DFD0"/>
<path d="M9.10333 18.7249C8.9859 18.7249 8.90203 18.6998 8.84332 18.6412C8.78461 18.5826 8.75945 18.4988 8.75945 18.3816V18.0382C8.75945 17.9209 8.78461 17.8372 8.84332 17.7786C8.90203 17.7199 8.9859 17.6864 9.10333 17.6864C9.22075 17.6864 9.29624 17.7116 9.34656 17.7702C9.39689 17.8288 9.43044 17.9209 9.43044 18.0466H9.19559C9.19559 17.9796 9.1872 17.9209 9.17043 17.8958C9.15365 17.8707 9.12849 17.8539 9.09494 17.8539C9.053 17.8539 9.02784 17.8707 9.01107 17.8958C8.99429 17.9209 8.9859 17.9796 8.9859 18.0466V18.3481C8.9859 18.4151 8.9859 18.4653 9.01107 18.4988C9.03623 18.5323 9.053 18.5407 9.09494 18.5407C9.12849 18.5407 9.15365 18.5239 9.17043 18.5072C9.1872 18.4821 9.19559 18.4318 9.19559 18.3481L9.43044 18.3648C9.43044 18.4904 9.39689 18.5826 9.34656 18.6412C9.29624 18.6998 9.21236 18.7249 9.09494 18.7249H9.10333Z" fill="#E4DFD0"/>
<path d="M10.7137 18.7249C10.6131 18.7249 10.5292 18.6914 10.4705 18.6328C10.4118 18.5741 10.3866 18.4904 10.3866 18.3899V18.0214C10.3866 17.9125 10.4118 17.8288 10.4705 17.7701C10.5292 17.7115 10.6047 17.678 10.7137 17.678C10.8227 17.678 10.8982 17.7115 10.9569 17.7701C11.0156 17.8288 11.0408 17.9125 11.0408 18.0214V18.3899C11.0408 18.4904 11.0156 18.5741 10.9569 18.6328C10.8982 18.6914 10.8227 18.7249 10.7137 18.7249ZM10.7137 18.549C10.7137 18.549 10.7724 18.5323 10.7808 18.5155C10.7976 18.4904 10.7976 18.4401 10.7976 18.3731V18.0465C10.7976 17.9795 10.7976 17.9293 10.7808 17.9041C10.764 17.879 10.7473 17.8623 10.7137 17.8623C10.6802 17.8623 10.655 17.8706 10.6466 17.9041C10.6298 17.9293 10.6298 17.9795 10.6298 18.0465V18.3731C10.6298 18.4401 10.6298 18.4904 10.6466 18.5155C10.6634 18.5406 10.6802 18.549 10.7137 18.549Z" fill="#E4DFD0"/>
<path d="M12.2738 18.4068L12.1899 18.055L12.215 18.7083H12.0054V17.6949H12.215L12.3409 18.1639L12.4667 17.6949H12.668V18.7083H12.4583L12.4834 18.0718L12.3996 18.4068H12.257H12.2738Z" fill="#E4DFD0"/>
<path d="M13.9009 18.4068L13.817 18.055L13.8422 18.7083H13.6325V17.6949H13.8422L13.968 18.1639L14.0938 17.6949H14.2951V18.7083H14.0854L14.1106 18.0718L14.0267 18.4068H13.8841H13.9009Z" fill="#E4DFD0"/>
<path d="M15.6035 18.725C15.4861 18.725 15.4106 18.6915 15.3519 18.6329C15.3016 18.5743 15.2681 18.4821 15.2681 18.3565V17.6949H15.5029V18.3565C15.5029 18.4235 15.5029 18.4738 15.5197 18.4989C15.5364 18.524 15.5532 18.5324 15.5952 18.5324C15.6371 18.5324 15.6539 18.524 15.6706 18.4989C15.6874 18.4738 15.6874 18.4235 15.6874 18.3565V17.6949H15.9223V18.3565C15.9223 18.4821 15.8971 18.5743 15.8384 18.6329C15.7797 18.6915 15.7042 18.725 15.5868 18.725H15.6035Z" fill="#E4DFD0"/>
<path d="M17.2894 18.7167L17.0965 18.0299V18.7167H16.8952V17.7033H17.1468L17.3565 18.4236V17.7033H17.5578V18.7167H17.2894Z" fill="#E4DFD0"/>
<path d="M18.5307 18.7167V18.5408H18.7404V17.8792H18.5307V17.7033H19.1933V17.8792H18.9836V18.5408H19.1933V18.7167H18.5307Z" fill="#E4DFD0"/>
<path d="M20.376 18.7167V17.8792H20.1411V17.7033H20.8457V17.8792H20.6108V18.7167H20.376Z" fill="#E4DFD0"/>
<path d="M22.238 18.7167H22.0031V18.3398L21.7515 17.7033H21.9863L22.1205 18.1053L22.2547 17.7033H22.4896L22.238 18.3398V18.7167Z" fill="#E4DFD0"/>
<path d="M11.7873 8.72512C11.4266 8.51575 10.7808 8.95962 10.4369 9.22762C10.3614 9.28625 10.3782 9.39512 10.3363 9.42862C10.1014 9.62962 9.67366 9.839 9.42204 10.1572C9.29623 10.3164 9.53108 10.375 9.15365 10.4336L8.95235 10.9696C8.70912 11.1622 8.93557 10.8524 8.94396 10.8272C8.79299 10.71 8.1891 11.5894 8.122 11.7652L8.33168 11.7987C7.97103 12.0416 8.18071 12.3766 7.89554 12.6362C7.94586 12.6781 8.59169 12.6027 8.69234 12.5441C8.82654 12.4687 9.33817 11.8992 9.5814 11.7317C9.7156 11.6396 9.88335 11.5056 10.0259 11.4805C10.353 11.4219 11.8124 11.6061 11.435 12.0584C11.3679 12.1421 10.1182 12.8791 9.984 12.9294C9.89174 12.9629 9.84141 12.9042 9.89174 12.8205C10.0427 12.5692 10.5879 12.3012 10.8227 12.0919C10.5711 12.0081 9.60656 12.7619 9.45559 12.9545C9.36333 13.0801 9.35494 13.2476 9.26268 13.3481C9.16203 13.4654 8.70073 13.6245 8.77621 13.9511C8.87686 14.3866 9.84141 14.0265 10.1937 13.9009C10.9234 13.6412 11.7286 13.0131 12.4415 13.2225L12.8105 9.91437C12.8693 9.7385 13.1796 9.62125 13.3473 9.59612C14.3538 9.44537 16.4591 10.576 17.0462 11.2627C17.2894 11.5475 17.5578 12.0919 17.4236 12.5106C17.3565 12.7284 16.9623 13.4319 16.8784 13.0047C16.8029 13.0466 16.7778 13.1555 16.7107 13.1974C16.1487 13.5575 15.4106 13.9762 14.7313 14.0265C14.3874 14.0516 13.9764 13.926 13.7332 13.9511C13.599 13.9679 13.4731 14.0851 13.3389 14.0935C13.1125 14.0935 12.5505 13.7166 12.3996 13.7501C12.2654 13.7836 11.4602 14.2945 11.1834 14.4117C10.6634 14.6295 9.8498 14.8891 9.32139 14.8975C8.96912 14.9059 8.07168 14.6044 7.83683 14.395C7.45101 14.0432 7.9878 13.4067 7.94586 13.3062C7.41746 12.8791 6.57033 12.9796 6.99809 11.983C7.20778 11.4972 7.46778 11.3549 7.71941 11.0031C8.23942 10.2829 9.65689 8.21425 10.5879 8.21425C10.7137 8.21425 12.0725 8.432 11.7705 8.72512H11.7873ZM13.9848 10.3247C13.7332 10.4755 13.7164 12.8791 13.7583 13.256C13.9512 13.6915 15.1506 13.2225 15.5197 12.9377C16.6771 12.0332 15.6706 11.2711 14.9829 10.8021C14.8151 10.6849 14.1945 10.1991 13.9848 10.3331V10.3247Z" fill="black"/>
<path d="M22.4225 10.509C22.0534 10.9026 21.4495 11.8406 21.4579 12.3766C21.1979 12.6279 21.0386 13.5407 20.8792 13.7082C20.6192 13.9762 19.8056 13.6664 19.5624 13.524L20.5353 9.5375C20.8708 9.42025 21.1895 9.8055 21.4579 9.7385C21.5418 9.71337 22.1205 9.15225 22.3386 9.035C23.0515 8.64975 23.647 8.8675 24.167 9.25275C25.1484 9.98975 24.9722 11.9328 24.7709 13.1304C24.6955 13.5742 24.1587 13.5324 23.8316 13.4235C23.1606 13.1974 23.5128 11.8155 23.5296 11.2711C23.5296 11.0534 23.429 10.0233 23.2948 9.93113C23.1019 9.78875 22.5818 10.3583 22.4309 10.5174L22.4225 10.509Z" fill="black"/>
<path d="M19.4366 10.1991C19.6127 10.4671 18.9165 13.2979 19.034 13.8506C18.8914 14.5625 17.7423 14.1019 17.7339 13.4067C17.7255 12.519 18.0443 11.8574 18.2204 11.0115C18.3127 10.5592 18.2623 10.1489 18.4469 9.73849C18.7991 9.79712 19.2437 9.906 19.4366 10.1991Z" fill="black"/>
<path d="M10.7724 9.52075L10.3195 9.62963C10.6801 9.24438 11.4853 8.633 11.8208 9.15225C11.6866 9.72175 11.2253 10.0651 10.7305 9.772L10.7808 9.52075H10.7724Z" fill="black"/>
</g>
<defs>
<linearGradient id="paint0_linear_111_560" x1="24.7626" y1="2.52763" x2="6.67325" y2="28.2975" gradientUnits="userSpaceOnUse">
<stop stop-color="#FDF9F0"/>
<stop offset="1" stop-color="#A29884"/>
</linearGradient>
<linearGradient id="paint1_linear_111_560" x1="24.7039" y1="2.59463" x2="6.75686" y2="28.1717" gradientUnits="userSpaceOnUse">
<stop stop-color="#EDE8D9"/>
<stop offset="0.36" stop-color="#F4EEE0"/>
<stop offset="1" stop-color="#FFF7EB"/>
</linearGradient>
<linearGradient id="paint2_linear_111_560" x1="6.48647" y1="27.5773" x2="25.1148" y2="27.5773" gradientUnits="userSpaceOnUse">
<stop stop-color="#C9C5B8"/>
<stop offset="1" stop-color="#E4DFD0"/>
</linearGradient>
<linearGradient id="paint3_linear_111_560" x1="14.6893" y1="5.86925" x2="16.2795" y2="3.25417" gradientUnits="userSpaceOnUse">
<stop stop-color="#FDF9F0"/>
<stop offset="1" stop-color="#A29884"/>
</linearGradient>
<linearGradient id="paint4_linear_111_560" x1="2.13213" y1="18.9965" x2="2.40775" y2="12.9644" gradientUnits="userSpaceOnUse">
<stop offset="0.05" stop-color="#FFFAEB" stop-opacity="0.7"/>
<stop offset="0.68" stop-color="#FFEDCF" stop-opacity="0"/>
</linearGradient>
<clipPath id="clip0_111_560">
<rect width="19.4" height="26.8" fill="white" transform="translate(6 2)"/>
</clipPath>
</defs>
</svg>
