<svg width="32" height="32" viewBox="0 0 32 32" fill="none" xmlns="http://www.w3.org/2000/svg">
<g clip-path="url(#clip0_93_162)">
<path d="M23.805 2.405H8.195C7.075 2.405 6.175 3.355 6.175 4.515V27.475C6.175 28.645 7.075 29.585 8.195 29.585H23.815C24.925 29.585 25.835 28.635 25.835 27.475V4.515C25.835 3.345 24.935 2.405 23.815 2.405H23.805ZM15.775 6.255C15.095 6.255 14.555 5.685 14.555 4.975C14.555 4.265 15.105 3.695 15.775 3.695C16.445 3.695 16.995 4.265 16.995 4.975C16.995 5.685 16.445 6.255 15.775 6.255Z" fill="url(#paint0_linear_93_162)"/>
<path d="M23.745 2.475H8.285C7.175 2.475 6.285 3.415 6.285 4.565V27.365C6.285 28.525 7.175 29.465 8.285 29.465H23.755C24.855 29.465 25.755 28.525 25.755 27.365V4.565C25.755 3.405 24.865 2.465 23.755 2.465L23.745 2.475ZM15.785 6.305C15.115 6.305 14.575 5.735 14.575 5.025C14.575 4.315 15.115 3.745 15.785 3.745C16.455 3.745 16.995 4.315 16.995 5.025C16.995 5.735 16.455 6.305 15.785 6.305Z" fill="url(#paint1_linear_93_162)"/>
<path d="M6.255 27.505C6.255 28.605 7.115 29.505 8.185 29.505H23.795C24.865 29.505 25.725 28.615 25.725 27.505V17.615H6.255V27.505Z" fill="#B0BC7A"/>
<path d="M23.755 2.535H8.285C7.175 2.535 6.285 3.435 6.285 4.535V5.445H14.625C14.555 5.275 14.525 5.105 14.525 4.935C14.525 4.235 15.095 3.665 15.795 3.665C16.495 3.665 17.065 4.235 17.065 4.935C17.065 5.115 17.025 5.285 16.965 5.435H25.765V4.545C25.765 3.445 24.875 2.545 23.765 2.545L23.755 2.535Z" fill="#B0BC7A"/>
<path d="M21.745 5.895L21.485 6.425H21.405L21.655 5.925H21.325V5.865H21.755V5.885L21.745 5.895Z" fill="#444549"/>
<path d="M21.845 6.405V6.335C21.845 6.335 21.945 6.375 21.995 6.375C22.045 6.375 22.075 6.375 22.105 6.345C22.135 6.325 22.145 6.295 22.145 6.265C22.145 6.195 22.085 6.155 21.965 6.155H21.915V6.105H21.965C22.075 6.105 22.125 6.075 22.125 6.005C22.125 5.945 22.085 5.915 22.005 5.915C21.955 5.915 21.915 5.925 21.875 5.955V5.895C21.875 5.895 21.965 5.865 22.025 5.865C22.085 5.865 22.125 5.875 22.155 5.905C22.185 5.925 22.205 5.965 22.205 5.995C22.205 6.065 22.165 6.115 22.075 6.135C22.075 6.135 22.165 6.155 22.185 6.175C22.215 6.195 22.225 6.225 22.225 6.265C22.225 6.315 22.205 6.355 22.165 6.385C22.125 6.415 22.065 6.435 21.995 6.435C21.935 6.435 21.885 6.435 21.845 6.405Z" fill="#444549"/>
<path d="M22.375 6.415V6.345C22.375 6.345 22.465 6.385 22.515 6.385C22.565 6.385 22.595 6.375 22.625 6.355C22.655 6.335 22.665 6.305 22.665 6.265C22.665 6.225 22.655 6.205 22.625 6.185C22.595 6.165 22.555 6.155 22.505 6.155C22.485 6.155 22.455 6.155 22.405 6.155V5.875H22.725V5.935H22.475V6.095C22.475 6.095 22.515 6.095 22.535 6.095C22.605 6.095 22.655 6.105 22.695 6.135C22.735 6.165 22.755 6.205 22.755 6.255C22.755 6.305 22.735 6.355 22.695 6.385C22.655 6.415 22.595 6.435 22.525 6.435C22.465 6.435 22.415 6.435 22.385 6.415H22.375Z" fill="#444549"/>
<path d="M22.885 6.415V6.345C22.885 6.345 22.975 6.385 23.025 6.385C23.075 6.385 23.105 6.375 23.135 6.355C23.165 6.335 23.175 6.305 23.175 6.265C23.175 6.225 23.165 6.205 23.135 6.185C23.105 6.165 23.065 6.155 23.015 6.155C22.995 6.155 22.965 6.155 22.915 6.155V5.875H23.235V5.935H22.985V6.095C22.985 6.095 23.025 6.095 23.045 6.095C23.115 6.095 23.165 6.105 23.205 6.135C23.245 6.165 23.265 6.205 23.265 6.255C23.265 6.305 23.245 6.355 23.205 6.385C23.165 6.415 23.105 6.435 23.035 6.435C22.975 6.435 22.925 6.435 22.895 6.415H22.885Z" fill="#444549"/>
<path d="M23.745 5.885V5.945C23.745 5.945 23.675 5.925 23.635 5.925C23.575 5.925 23.525 5.945 23.495 5.995C23.465 6.045 23.445 6.095 23.445 6.175C23.475 6.125 23.525 6.095 23.595 6.095C23.655 6.095 23.695 6.115 23.735 6.145C23.775 6.175 23.785 6.215 23.785 6.265C23.785 6.315 23.765 6.365 23.725 6.395C23.685 6.425 23.635 6.445 23.575 6.445C23.505 6.445 23.455 6.425 23.415 6.375C23.375 6.335 23.355 6.265 23.355 6.185C23.355 6.085 23.375 6.015 23.425 5.955C23.475 5.895 23.545 5.865 23.625 5.865C23.675 5.865 23.705 5.865 23.735 5.885H23.745ZM23.575 6.135C23.575 6.135 23.505 6.145 23.485 6.165C23.465 6.185 23.445 6.215 23.445 6.245C23.445 6.285 23.455 6.315 23.485 6.345C23.505 6.375 23.545 6.385 23.585 6.385C23.625 6.385 23.655 6.375 23.675 6.345C23.695 6.325 23.715 6.295 23.715 6.255C23.715 6.215 23.705 6.185 23.685 6.165C23.665 6.145 23.635 6.135 23.585 6.135H23.575Z" fill="#444549"/>
<path d="M24.075 6.435C24.015 6.435 23.955 6.415 23.925 6.365C23.885 6.315 23.865 6.255 23.865 6.165C23.865 6.065 23.885 5.995 23.925 5.945C23.965 5.895 24.015 5.865 24.095 5.865C24.235 5.865 24.305 5.955 24.305 6.145C24.305 6.235 24.285 6.305 24.245 6.355C24.205 6.405 24.155 6.425 24.085 6.425L24.075 6.435ZM24.085 5.915C23.995 5.915 23.945 5.995 23.945 6.155C23.945 6.305 23.995 6.375 24.085 6.375C24.175 6.375 24.225 6.295 24.225 6.145C24.225 5.995 24.185 5.905 24.095 5.905L24.085 5.915Z" fill="#444549"/>
<path d="M24.525 6.135C24.445 6.105 24.405 6.055 24.405 5.995C24.405 5.955 24.425 5.925 24.455 5.895C24.495 5.865 24.535 5.855 24.595 5.855C24.645 5.855 24.685 5.865 24.725 5.895C24.755 5.915 24.775 5.945 24.775 5.985C24.775 6.045 24.735 6.095 24.655 6.125C24.755 6.155 24.795 6.205 24.795 6.275C24.795 6.325 24.775 6.355 24.735 6.385C24.695 6.415 24.645 6.425 24.575 6.425C24.515 6.425 24.475 6.415 24.435 6.385C24.395 6.355 24.385 6.325 24.385 6.285C24.385 6.215 24.435 6.165 24.525 6.125V6.135ZM24.585 6.165C24.505 6.195 24.455 6.235 24.455 6.285C24.455 6.315 24.465 6.335 24.495 6.355C24.515 6.375 24.555 6.385 24.595 6.385C24.635 6.385 24.665 6.385 24.685 6.355C24.705 6.335 24.725 6.315 24.725 6.285C24.725 6.225 24.675 6.185 24.585 6.165ZM24.695 5.995C24.695 5.995 24.695 5.945 24.665 5.935C24.645 5.925 24.625 5.915 24.585 5.915C24.555 5.915 24.525 5.915 24.505 5.935C24.485 5.955 24.475 5.975 24.475 5.995C24.475 6.045 24.515 6.075 24.585 6.105C24.655 6.075 24.695 6.045 24.695 5.995Z" fill="#444549"/>
<path d="M20.605 29.355H22.115L23.015 27.475H21.515L20.605 29.355Z" fill="#EEE4D7"/>
<path d="M9.08501 29.355H9.48501L10.385 27.475H9.99501L9.08501 29.355Z" fill="#EEE4D7"/>
<path d="M14.215 29.355H14.415L15.315 27.475H15.125L14.215 29.355Z" fill="#EEE4D7"/>
<path d="M13.835 29.355H14.035L14.935 27.475H14.745L13.835 29.355Z" fill="#EEE4D7"/>
<path d="M12.515 29.355H12.715L13.615 27.475H13.425L12.515 29.355Z" fill="#EEE4D7"/>
<path d="M25.545 27.475H24.765L23.865 29.345C24.775 29.225 25.495 28.445 25.545 27.475Z" fill="#EEE4D7"/>
<path d="M7.765 29.275L8.635 27.475H7.125L6.675 28.415C6.925 28.825 7.305 29.135 7.765 29.275Z" fill="#EEE4D7"/>
<path d="M17.955 29.355H19.455L20.365 27.475H18.855L17.955 29.355Z" fill="#EEE4D7"/>
<path d="M15.065 29.355H17.605L18.505 27.475H15.965L15.065 29.355Z" fill="#EEE4D7"/>
<path d="M24.645 15.465H24.475V17.375H24.645V15.465Z" fill="#444549"/>
<path d="M24.225 15.465H24.055V17.375H24.225V15.465Z" fill="#444549"/>
<path d="M23.775 15.465H23.605V17.375H23.775V15.465Z" fill="#444549"/>
<path d="M12.975 3.845C12.975 3.845 12.955 3.825 12.955 3.815C12.955 3.815 12.935 3.795 12.925 3.795C12.925 3.795 12.905 3.785 12.895 3.775C12.895 3.775 12.945 3.755 12.965 3.745C12.985 3.735 13.005 3.715 13.015 3.705C13.025 3.685 13.035 3.665 13.045 3.645C13.045 3.625 13.055 3.605 13.055 3.575C13.055 3.545 13.055 3.515 13.035 3.495C13.025 3.475 13.005 3.455 12.985 3.435C12.965 3.415 12.945 3.405 12.915 3.395C12.885 3.395 12.855 3.385 12.825 3.385H12.605V4.115H12.685V3.805H12.755C12.755 3.805 12.785 3.805 12.795 3.805C12.805 3.805 12.815 3.815 12.835 3.825C12.845 3.825 12.855 3.845 12.865 3.855C12.875 3.865 12.885 3.885 12.895 3.905L13.015 4.105H13.115L12.975 3.885C12.975 3.885 12.955 3.855 12.945 3.845H12.975ZM12.875 3.705C12.875 3.705 12.835 3.705 12.815 3.705H12.695V3.445H12.815C12.815 3.445 12.895 3.455 12.925 3.475C12.955 3.495 12.965 3.525 12.965 3.565C12.965 3.585 12.965 3.605 12.955 3.625C12.955 3.645 12.935 3.655 12.925 3.665C12.915 3.675 12.895 3.685 12.875 3.695V3.705Z" fill="#515153"/>
<path d="M11.275 3.775H11.535V3.705H11.275V3.465H11.555V3.385H11.195V4.105H11.575V4.035H11.275V3.775Z" fill="#515153"/>
<path d="M9.675 3.465H9.885V4.105H9.965V3.465H10.175V3.385H9.675V3.465Z" fill="#515153"/>
<path d="M8.575 3.895C8.575 3.945 8.575 3.985 8.575 4.005C8.575 4.005 8.565 3.985 8.545 3.955L8.185 3.385H8.075V4.115H8.155V3.595C8.155 3.545 8.155 3.515 8.155 3.495C8.155 3.495 8.165 3.525 8.175 3.545L8.545 4.125H8.645V3.395H8.565V3.905L8.575 3.895Z" fill="#515153"/>
<path d="M15.985 3.675L16.045 3.525C16.045 3.525 16.045 3.495 16.055 3.475C16.055 3.475 16.055 3.515 16.065 3.525L16.135 3.725C16.135 3.725 16.205 3.755 16.245 3.775L16.095 3.395H16.005L15.905 3.665C15.905 3.665 15.955 3.665 15.985 3.685V3.675Z" fill="#515153"/>
<path d="M6.975 3.385H6.895V4.115H6.975V3.385Z" fill="#515153"/>
<path d="M20.235 3.375C20.125 3.375 20.045 3.405 19.975 3.475C19.915 3.545 19.885 3.635 19.885 3.755C19.885 3.865 19.915 3.955 19.975 4.015C20.035 4.085 20.115 4.115 20.225 4.115C20.335 4.115 20.415 4.085 20.475 4.015C20.535 3.945 20.565 3.855 20.565 3.735C20.565 3.625 20.535 3.535 20.475 3.475C20.415 3.405 20.335 3.375 20.235 3.375ZM20.415 3.975C20.365 4.025 20.305 4.055 20.225 4.055C20.155 4.055 20.095 4.025 20.045 3.975C19.995 3.925 19.975 3.845 19.975 3.755C19.975 3.665 19.995 3.595 20.045 3.535C20.095 3.485 20.155 3.455 20.235 3.455C20.315 3.455 20.375 3.485 20.415 3.535C20.455 3.585 20.485 3.665 20.485 3.755C20.485 3.845 20.465 3.925 20.415 3.975Z" fill="#515153"/>
<path d="M23.485 3.385L23.205 4.115H23.295L23.365 3.915H23.675L23.755 4.115H23.845L23.565 3.385H23.475H23.485ZM23.405 3.835L23.515 3.525C23.515 3.525 23.515 3.495 23.525 3.475C23.525 3.475 23.525 3.515 23.535 3.525L23.645 3.835H23.395H23.405Z" fill="#515153"/>
<path d="M24.945 4.035V3.385H24.855V4.105H25.235V4.035H24.945Z" fill="#515153"/>
<path d="M22.115 3.895C22.115 3.945 22.115 3.985 22.115 4.005C22.115 4.005 22.105 3.985 22.085 3.955L21.725 3.385H21.615V4.115H21.695V3.595C21.695 3.545 21.695 3.515 21.695 3.495C21.695 3.495 21.705 3.525 21.715 3.545L22.085 4.125H22.185V3.395H22.105V3.905L22.115 3.895Z" fill="#515153"/>
<path d="M18.835 3.385H18.755V4.115H18.835V3.385Z" fill="#515153"/>
<path d="M14.245 3.535L14.615 4.115H14.715V3.385H14.635V3.895C14.635 3.945 14.635 3.985 14.635 4.005C14.635 4.005 14.625 3.985 14.605 3.955L14.245 3.385H14.135V4.115H14.215V3.595C14.215 3.545 14.215 3.515 14.215 3.495C14.215 3.495 14.225 3.525 14.235 3.545L14.245 3.535Z" fill="#515153"/>
<path d="M17.235 3.465H17.445V4.105H17.525V3.465H17.735V3.385H17.235V3.465Z" fill="#515153"/>
<path d="M15.785 3.725C15.085 3.725 14.515 4.295 14.515 5.005C14.515 5.715 15.085 6.285 15.785 6.285C16.485 6.285 17.055 5.715 17.055 5.005C17.055 4.295 16.485 3.725 15.785 3.725ZM15.785 6.225C15.115 6.225 14.575 5.675 14.575 5.005C14.575 4.335 15.115 3.785 15.785 3.785C16.455 3.785 16.995 4.335 16.995 5.005C16.995 5.675 16.455 6.225 15.785 6.225Z" fill="url(#paint2_linear_93_162)"/>
<path d="M10.675 24.535L10.165 22.465L10.185 26.615H9.015V19.685H10.335L11.105 22.455L11.865 19.685H13.155V26.615L12.035 26.645L11.995 22.575L11.495 24.535H10.655H10.675Z" fill="#F1E9DE"/>
<path d="M17.205 26.615L16.965 24.965H15.645L15.365 26.615H14.105L15.425 19.685H17.205L18.535 26.615H17.215H17.205ZM16.775 23.775L16.335 20.855L15.835 23.775H16.765H16.775Z" fill="#F1E9DE"/>
<path d="M19.405 26.615V19.685H21.375C21.975 19.685 22.435 19.835 22.775 20.145C23.115 20.455 23.275 20.925 23.275 21.565V22.655C23.275 23.275 23.115 23.735 22.785 24.025C22.455 24.315 21.995 24.455 21.375 24.455H20.765V26.615H19.405ZM20.765 23.275H21.285C21.475 23.275 21.615 23.225 21.705 23.115C21.795 23.005 21.845 22.805 21.845 22.495V21.685C21.845 21.375 21.795 21.165 21.705 21.045C21.615 20.935 21.465 20.875 21.285 20.875H20.765V23.275Z" fill="#F1E9DE"/>
<path d="M9.32501 19.375C9.20501 19.375 9.12501 19.345 9.06501 19.285C9.00501 19.225 8.97501 19.135 8.97501 19.025V18.675C8.97501 18.555 9.00501 18.465 9.06501 18.405C9.12501 18.345 9.21501 18.315 9.32501 18.315C9.43501 18.315 9.52501 18.345 9.57501 18.405C9.62501 18.465 9.65501 18.555 9.66501 18.685H9.42501C9.42501 18.615 9.41501 18.555 9.39501 18.535C9.38501 18.505 9.35501 18.495 9.31501 18.495C9.27501 18.495 9.24501 18.505 9.23501 18.535C9.21501 18.565 9.21501 18.615 9.21501 18.695V19.005C9.21501 19.075 9.21501 19.125 9.23501 19.155C9.24501 19.185 9.27501 19.195 9.31501 19.195C9.35501 19.195 9.37501 19.185 9.39501 19.155C9.40501 19.125 9.41501 19.075 9.42501 18.995H9.66501C9.66501 19.135 9.63501 19.225 9.57501 19.285C9.52501 19.345 9.43501 19.375 9.32501 19.375Z" fill="#F1E9DE"/>
<path d="M10.955 19.375C10.845 19.375 10.765 19.345 10.715 19.285C10.655 19.225 10.635 19.145 10.635 19.035V18.665C10.635 18.555 10.665 18.475 10.725 18.415C10.785 18.355 10.865 18.325 10.965 18.325C11.065 18.325 11.155 18.355 11.205 18.415C11.265 18.475 11.285 18.555 11.285 18.665V19.035C11.285 19.145 11.255 19.225 11.195 19.285C11.135 19.345 11.055 19.375 10.955 19.375ZM10.955 19.195C10.955 19.195 11.015 19.185 11.025 19.155C11.035 19.125 11.045 19.085 11.045 19.015V18.685C11.045 18.615 11.045 18.565 11.025 18.535C11.005 18.505 10.985 18.495 10.955 18.495C10.925 18.495 10.895 18.505 10.885 18.535C10.875 18.565 10.865 18.605 10.865 18.685V19.015C10.865 19.085 10.865 19.135 10.885 19.155C10.895 19.175 10.925 19.195 10.955 19.195Z" fill="#F1E9DE"/>
<path d="M12.535 19.045L12.445 18.685L12.475 19.355H12.265V18.325H12.475L12.605 18.795L12.735 18.325H12.945V19.355H12.735L12.765 18.705L12.685 19.045H12.545H12.535Z" fill="#F1E9DE"/>
<path d="M14.185 19.045L14.095 18.685L14.125 19.355H13.915V18.325H14.125L14.255 18.795L14.385 18.325H14.595V19.355H14.385L14.415 18.705L14.335 19.045H14.195H14.185Z" fill="#F1E9DE"/>
<path d="M15.905 19.375C15.795 19.375 15.705 19.345 15.655 19.285C15.605 19.225 15.575 19.135 15.575 19.005V18.335H15.815V19.005C15.815 19.075 15.815 19.125 15.835 19.155C15.855 19.185 15.875 19.195 15.905 19.195C15.935 19.195 15.965 19.185 15.975 19.155C15.985 19.125 15.995 19.085 15.995 19.005V18.335H16.235V19.005C16.235 19.135 16.205 19.225 16.155 19.285C16.105 19.345 16.015 19.375 15.905 19.375Z" fill="#F1E9DE"/>
<path d="M17.615 19.355L17.425 18.655V19.355H17.225V18.325H17.475L17.685 19.055V18.325H17.885V19.355H17.615Z" fill="#F1E9DE"/>
<path d="M18.875 19.355V19.175H19.095V18.505H18.875V18.325H19.545V18.505H19.325V19.175H19.545V19.355H18.875Z" fill="#F1E9DE"/>
<path d="M20.735 19.355V18.505H20.495V18.325H21.205V18.505H20.965V19.355H20.725H20.735Z" fill="#F1E9DE"/>
<path d="M22.625 19.355H22.385V18.965L22.135 18.325H22.365L22.505 18.725L22.645 18.325H22.885L22.635 18.965V19.355H22.625Z" fill="#F1E9DE"/>
<path d="M11.595 9.865C11.495 9.705 11.335 9.655 11.185 9.775C10.665 10.165 10.175 10.585 9.815 11.145C9.775 11.205 9.725 11.255 9.665 11.335C9.605 11.195 9.555 11.075 9.505 10.975C9.325 10.615 9.225 10.195 8.905 9.905C8.795 9.805 8.685 9.805 8.565 9.825C8.455 9.845 8.425 9.945 8.415 10.055C8.325 10.695 8.225 11.325 8.135 11.965C8.095 12.255 8.065 12.545 8.045 12.845C8.045 12.985 8.185 13.095 8.355 13.085C8.535 13.085 8.635 12.985 8.645 12.845C8.705 12.315 8.755 11.795 8.815 11.265C8.815 11.235 8.835 11.195 8.855 11.125C8.905 11.215 8.935 11.275 8.965 11.335C9.095 11.615 9.215 11.905 9.355 12.175C9.435 12.325 9.585 12.405 9.755 12.405C9.925 12.405 10.055 12.285 10.105 12.115C10.245 11.625 10.525 11.225 10.845 10.835C10.875 10.795 10.915 10.775 10.995 10.715C10.995 10.825 11.015 10.895 11.005 10.955C10.975 11.315 10.935 11.665 10.905 12.025C10.855 12.505 10.815 12.995 10.775 13.475C10.765 13.635 10.905 13.775 11.065 13.775C11.225 13.775 11.315 13.675 11.325 13.495C11.345 13.165 11.355 12.835 11.395 12.515C11.475 11.935 11.565 11.365 11.655 10.785C11.685 10.575 11.715 10.365 11.725 10.155C11.725 10.105 11.695 10.055 11.675 10.015C11.645 9.965 11.605 9.935 11.575 9.885L11.595 9.865Z" fill="black"/>
<path d="M16.665 13.095C16.595 13.075 16.525 13.055 16.445 13.055C16.045 13.045 15.645 13.035 15.235 13.035C15.105 13.035 15.065 12.985 15.085 12.865C15.105 12.725 15.125 12.585 15.145 12.445C15.265 11.735 15.355 11.015 15.275 10.295C15.255 10.125 15.145 9.995 15.005 10.005C14.855 10.005 14.755 10.145 14.755 10.325C14.755 10.595 14.785 10.865 14.755 11.135C14.705 11.745 14.625 12.345 14.565 12.945C14.555 13.075 14.485 13.105 14.365 13.085C14.155 13.055 13.935 13.035 13.725 13.005C13.635 12.995 13.595 13.055 13.535 13.085C13.375 13.175 13.195 13.025 13.205 12.845C13.205 12.815 13.205 12.785 13.215 12.755C13.335 11.995 13.455 11.245 13.565 10.485C13.605 10.235 13.635 9.985 13.655 9.745C13.665 9.625 13.545 9.445 13.435 9.425C13.285 9.395 13.225 9.505 13.165 9.615C13.135 9.675 13.125 9.755 13.115 9.825C13.005 10.565 12.905 11.315 12.795 12.055C12.785 12.135 12.775 12.215 12.765 12.295C12.555 12.275 12.455 12.325 12.445 12.435C12.425 12.575 12.515 12.645 12.725 12.665C12.735 12.835 12.725 12.875 12.645 12.925C12.665 13.015 12.685 13.095 12.685 13.175C12.685 13.305 12.685 13.435 12.685 13.555C12.685 13.715 12.795 13.785 12.965 13.775C13.095 13.775 13.185 13.655 13.175 13.515C13.175 13.435 13.175 13.345 13.175 13.265C13.175 13.175 13.215 13.145 13.305 13.145C13.655 13.145 14.005 13.145 14.355 13.145C14.475 13.145 14.535 13.185 14.525 13.325C14.525 13.505 14.605 13.595 14.785 13.615C14.845 13.615 14.915 13.615 14.975 13.615C15.505 13.605 16.035 13.585 16.565 13.565C16.665 13.565 16.765 13.545 16.795 13.415C16.825 13.255 16.755 13.125 16.635 13.095H16.665Z" fill="black"/>
<path d="M20.345 12.805C20.045 12.775 19.745 12.745 19.455 12.765C19.155 12.795 18.865 12.895 18.565 12.955C18.465 12.975 18.395 12.985 18.385 12.855C18.355 12.555 18.315 12.265 18.295 11.965C18.255 11.495 18.235 11.025 18.195 10.555C18.195 10.425 18.165 10.305 18.115 10.185C18.075 10.075 17.985 9.995 17.845 10.035C17.715 10.075 17.655 10.175 17.655 10.305C17.675 10.705 17.685 11.095 17.725 11.495C17.775 11.985 17.845 12.465 17.905 12.955C17.905 12.955 17.885 12.955 17.875 12.955C17.875 13.045 17.875 13.145 17.875 13.235C17.875 13.425 18.005 13.575 18.195 13.575C18.295 13.575 18.405 13.575 18.495 13.535C18.725 13.475 18.945 13.385 19.175 13.335C19.585 13.255 20.005 13.215 20.425 13.355C20.485 13.375 20.595 13.335 20.655 13.285C20.695 13.245 20.705 13.145 20.685 13.075C20.635 12.905 20.495 12.805 20.325 12.795L20.345 12.805Z" fill="black"/>
<path d="M23.025 12.345C22.865 12.155 22.665 12.005 22.475 11.845C22.245 11.655 21.995 11.505 21.775 11.305C21.555 11.105 21.575 10.765 21.795 10.565C21.985 10.395 22.205 10.385 22.445 10.425C22.635 10.455 22.775 10.365 22.795 10.215C22.815 10.055 22.675 9.875 22.505 9.855C22.425 9.845 22.345 9.845 22.275 9.835C21.635 9.775 20.895 10.525 21.215 11.335C21.345 11.665 21.625 11.865 21.895 12.065C22.155 12.255 22.415 12.445 22.655 12.665C22.825 12.815 22.805 12.995 22.655 13.165C22.535 13.285 22.405 13.385 22.275 13.485C22.085 13.625 21.895 13.755 21.705 13.905C21.665 13.935 21.645 13.965 21.635 13.995C21.875 13.815 22.295 13.515 22.325 13.525C22.375 13.525 22.365 13.555 22.345 13.575C22.325 13.595 21.835 13.945 21.835 13.945L21.995 13.865C21.995 13.865 21.825 13.975 21.815 13.995C21.815 14.025 21.815 14.135 21.845 14.095C21.875 14.055 22.155 13.955 22.135 13.975C22.125 13.995 21.925 14.165 21.815 14.265C21.865 14.275 21.915 14.275 21.975 14.255C22.375 14.065 22.715 13.795 23.005 13.475C23.355 13.095 23.375 12.745 23.035 12.345H23.025Z" fill="black"/>
<path d="M6.465 15.115V20.975C8.565 20.965 7.055 23.335 8.285 24.035C8.285 24.035 8.285 24.455 8.495 24.645C8.705 24.835 8.825 24.095 9.335 24.205L11.245 24.085C11.765 24.195 12.115 23.455 12.085 23.815L12.615 23.315C15.875 23.575 13.815 23.135 16.335 23.085L17.785 22.145C17.975 22.145 18.135 22.245 18.155 22.375L18.425 23.795C18.425 23.735 18.795 23.585 18.875 23.585L19.585 23.465C19.665 23.465 19.725 23.515 19.725 23.565V24.065C22.545 23.715 21.455 22.715 23.865 23.225L23.975 23.245L24.685 23.065C24.685 22.765 25.015 22.495 25.415 22.465L25.495 20.905L25.535 15.105H6.465V15.115Z" fill="url(#paint3_linear_93_162)"/>
</g>
<defs>
<linearGradient id="paint0_linear_93_162" x1="25.175" y1="2.935" x2="6.815" y2="29.055" gradientUnits="userSpaceOnUse">
<stop stop-color="#FDFAF1"/>
<stop offset="1" stop-color="#A29885"/>
</linearGradient>
<linearGradient id="paint1_linear_93_162" x1="25.125" y1="3.015" x2="6.905" y2="28.925" gradientUnits="userSpaceOnUse">
<stop stop-color="#F8F3EB"/>
<stop offset="1" stop-color="#EDE2D5"/>
</linearGradient>
<linearGradient id="paint2_linear_93_162" x1="14.975" y1="6.335" x2="16.595" y2="3.685" gradientUnits="userSpaceOnUse">
<stop stop-color="#FDFAF1"/>
<stop offset="1" stop-color="#A29885"/>
</linearGradient>
<linearGradient id="paint3_linear_93_162" x1="15.995" y1="18.085" x2="15.995" y2="25.515" gradientUnits="userSpaceOnUse">
<stop stop-color="#C9C6B9" stop-opacity="0"/>
<stop offset="1" stop-color="#FEFBE3" stop-opacity="0.6"/>
</linearGradient>
<clipPath id="clip0_93_162">
<rect width="19.65" height="27.19" fill="white" transform="translate(6.175 2.405)"/>
</clipPath>
</defs>
</svg>
