<svg width="32" height="32" viewBox="0 0 32 32" fill="none" xmlns="http://www.w3.org/2000/svg">
<g clip-path="url(#clip0_93_164)">
<path d="M23.715 2.57H8.285C7.185 2.57 6.295 3.51 6.295 4.66V27.34C6.295 28.49 7.185 29.43 8.285 29.43H23.715C24.815 29.43 25.705 28.49 25.705 27.34V4.66C25.705 3.51 24.815 2.57 23.715 2.57ZM15.775 6.38C15.105 6.38 14.565 5.81 14.565 5.11C14.565 4.41 15.105 3.84 15.775 3.84C16.445 3.84 16.985 4.41 16.985 5.11C16.985 5.81 16.445 6.38 15.775 6.38Z" fill="url(#paint0_linear_93_164)"/>
<path d="M23.655 2.63H8.375C7.285 2.63 6.405 3.56 6.405 4.71V27.24C6.405 28.39 7.285 29.31 8.375 29.31H23.655C24.745 29.31 25.625 28.38 25.625 27.24V4.71C25.625 3.56 24.745 2.64 23.655 2.64V2.63ZM15.795 6.41C15.135 6.41 14.595 5.85 14.595 5.15C14.595 4.45 15.135 3.89 15.795 3.89C16.455 3.89 16.995 4.45 16.995 5.15C16.995 5.85 16.455 6.41 15.795 6.41Z" fill="url(#paint1_linear_93_164)"/>
<path d="M6.36501 27.37C6.36501 28.46 7.21501 29.34 8.27501 29.34H23.695C24.745 29.34 25.605 28.46 25.605 27.37V17.6H6.36501V27.37Z" fill="#B77F7B"/>
<path d="M23.665 2.7H8.375C7.285 2.7 6.405 3.58 6.405 4.67V5.57H14.645C14.575 5.4 14.545 5.24 14.545 5.06C14.545 4.37 15.105 3.81 15.795 3.81C16.485 3.81 17.045 4.37 17.045 5.06C17.045 5.24 17.005 5.4 16.945 5.55H25.635V4.67C25.635 3.58 24.755 2.7 23.665 2.7Z" fill="#B77F7B"/>
<path d="M21.685 6.02L21.425 6.55H21.345L21.585 6.06H21.255V6H21.675V6.02H21.685Z" fill="#444549"/>
<path d="M21.785 6.53V6.46C21.785 6.46 21.875 6.5 21.935 6.5C21.985 6.5 22.015 6.5 22.045 6.47C22.075 6.45 22.085 6.43 22.085 6.39C22.085 6.32 22.025 6.28 21.905 6.28H21.855V6.23H21.905C22.015 6.23 22.065 6.2 22.065 6.13C22.065 6.07 22.025 6.04 21.945 6.04C21.895 6.04 21.855 6.05 21.815 6.08V6.02C21.815 6.02 21.905 5.99 21.965 5.99C22.025 5.99 22.065 6 22.095 6.03C22.125 6.05 22.145 6.09 22.145 6.12C22.145 6.19 22.105 6.24 22.015 6.26C22.015 6.26 22.095 6.28 22.125 6.3C22.155 6.32 22.165 6.35 22.165 6.39C22.165 6.44 22.145 6.48 22.105 6.51C22.065 6.54 22.005 6.56 21.935 6.56C21.875 6.56 21.825 6.56 21.785 6.53Z" fill="#444549"/>
<path d="M22.305 6.53V6.46C22.305 6.46 22.395 6.5 22.445 6.5C22.495 6.5 22.525 6.49 22.555 6.47C22.585 6.45 22.595 6.42 22.595 6.38C22.595 6.34 22.585 6.32 22.555 6.3C22.525 6.28 22.485 6.27 22.435 6.27C22.415 6.27 22.385 6.27 22.335 6.27V6H22.655V6.06H22.405V6.22C22.405 6.22 22.445 6.22 22.465 6.22C22.535 6.22 22.585 6.23 22.625 6.26C22.665 6.29 22.685 6.33 22.685 6.38C22.685 6.43 22.665 6.48 22.625 6.51C22.585 6.54 22.525 6.56 22.455 6.56C22.395 6.56 22.345 6.56 22.325 6.54L22.305 6.53Z" fill="#444549"/>
<path d="M22.805 6.53V6.46C22.805 6.46 22.895 6.5 22.945 6.5C22.995 6.5 23.025 6.49 23.055 6.47C23.085 6.45 23.095 6.42 23.095 6.38C23.095 6.34 23.085 6.32 23.055 6.3C23.025 6.28 22.985 6.27 22.935 6.27C22.915 6.27 22.885 6.27 22.835 6.27V6H23.155V6.06H22.905V6.22C22.905 6.22 22.945 6.22 22.965 6.22C23.035 6.22 23.085 6.23 23.125 6.26C23.165 6.29 23.185 6.33 23.185 6.38C23.185 6.43 23.165 6.48 23.125 6.51C23.085 6.54 23.025 6.56 22.955 6.56C22.895 6.56 22.845 6.56 22.825 6.54L22.805 6.53Z" fill="#444549"/>
<path d="M23.655 6.01V6.07C23.655 6.07 23.585 6.05 23.545 6.05C23.485 6.05 23.445 6.07 23.405 6.11C23.375 6.15 23.355 6.21 23.355 6.28C23.385 6.23 23.435 6.2 23.505 6.2C23.565 6.2 23.605 6.22 23.645 6.25C23.675 6.28 23.695 6.32 23.695 6.37C23.695 6.42 23.675 6.47 23.635 6.5C23.595 6.53 23.545 6.55 23.485 6.55C23.415 6.55 23.365 6.53 23.335 6.48C23.295 6.44 23.275 6.38 23.275 6.3C23.275 6.2 23.295 6.13 23.345 6.07C23.395 6.01 23.455 5.98 23.535 5.98C23.585 5.98 23.615 5.98 23.645 6L23.655 6.01ZM23.495 6.26C23.495 6.26 23.425 6.27 23.405 6.29C23.385 6.31 23.365 6.34 23.365 6.37C23.365 6.41 23.375 6.44 23.405 6.47C23.425 6.5 23.465 6.51 23.495 6.51C23.525 6.51 23.565 6.5 23.585 6.48C23.605 6.46 23.615 6.43 23.615 6.39C23.615 6.35 23.605 6.32 23.585 6.3C23.565 6.28 23.535 6.27 23.495 6.27V6.26Z" fill="#444549"/>
<path d="M23.985 6.55C23.915 6.55 23.865 6.53 23.835 6.48C23.795 6.43 23.785 6.37 23.785 6.28C23.785 6.18 23.805 6.11 23.845 6.06C23.885 6.01 23.935 5.99 24.005 5.99C24.145 5.99 24.215 6.08 24.215 6.27C24.215 6.36 24.195 6.43 24.155 6.48C24.115 6.53 24.065 6.55 23.995 6.55H23.985ZM23.995 6.04C23.905 6.04 23.855 6.12 23.855 6.28C23.855 6.43 23.905 6.5 23.995 6.5C24.085 6.5 24.135 6.42 24.135 6.27C24.135 6.12 24.095 6.04 24.005 6.04H23.995Z" fill="#444549"/>
<path d="M24.425 6.26C24.345 6.23 24.305 6.18 24.305 6.13C24.305 6.09 24.325 6.06 24.355 6.03C24.395 6 24.435 5.99 24.495 5.99C24.545 5.99 24.585 6 24.625 6.03C24.655 6.05 24.675 6.08 24.675 6.12C24.675 6.18 24.635 6.23 24.555 6.26C24.655 6.29 24.695 6.34 24.695 6.41C24.695 6.46 24.675 6.49 24.635 6.52C24.595 6.55 24.545 6.56 24.475 6.56C24.415 6.56 24.375 6.55 24.335 6.52C24.295 6.49 24.285 6.46 24.285 6.42C24.285 6.35 24.335 6.3 24.425 6.27V6.26ZM24.485 6.29C24.405 6.32 24.355 6.36 24.355 6.41C24.355 6.44 24.365 6.46 24.395 6.48C24.425 6.5 24.455 6.51 24.485 6.51C24.515 6.51 24.555 6.51 24.575 6.48C24.595 6.46 24.615 6.44 24.615 6.42C24.615 6.36 24.565 6.32 24.485 6.3V6.29ZM24.595 6.13C24.595 6.13 24.595 6.08 24.565 6.07C24.535 6.06 24.525 6.05 24.485 6.05C24.455 6.05 24.425 6.05 24.405 6.07C24.385 6.09 24.375 6.1 24.375 6.13C24.375 6.18 24.415 6.21 24.485 6.24C24.555 6.22 24.595 6.18 24.595 6.13Z" fill="#444549"/>
<path d="M20.545 29.13H22.035L22.925 27.27H21.445L20.545 29.13Z" fill="#EEE4D7"/>
<path d="M9.16499 29.13H9.55499L10.445 27.27H10.065L9.16499 29.13Z" fill="#EEE4D7"/>
<path d="M14.235 29.13H14.425L15.325 27.27H15.125L14.235 29.13Z" fill="#EEE4D7"/>
<path d="M13.855 29.13H14.055L14.945 27.27H14.755L13.855 29.13Z" fill="#EEE4D7"/>
<path d="M12.555 29.13H12.745L13.645 27.27H13.445L12.555 29.13Z" fill="#EEE4D7"/>
<path d="M25.425 27.27H24.655L23.765 29.11C24.665 28.99 25.375 28.22 25.425 27.27Z" fill="#EEE4D7"/>
<path d="M7.85499 29.05L8.71499 27.27H7.22499L6.77499 28.2C7.01499 28.6 7.39499 28.91 7.85499 29.05Z" fill="#EEE4D7"/>
<path d="M17.925 29.13H19.405L20.305 27.27H18.815L17.925 29.13Z" fill="#EEE4D7"/>
<path d="M15.065 29.13H17.575L18.475 27.27H15.965L15.065 29.13Z" fill="#EEE4D7"/>
<path d="M24.545 15.47H24.375V17.35H24.545V15.47Z" fill="#444549"/>
<path d="M24.125 15.47H23.955V17.35H24.125V15.47Z" fill="#444549"/>
<path d="M23.685 15.47H23.515V17.35H23.685V15.47Z" fill="#444549"/>
<path d="M13.015 4C13.015 4 12.995 3.98 12.995 3.97C12.995 3.97 12.975 3.95 12.965 3.95C12.965 3.95 12.945 3.94 12.935 3.93C12.935 3.93 12.985 3.91 13.005 3.9C13.025 3.89 13.045 3.87 13.055 3.86C13.065 3.84 13.075 3.83 13.085 3.8C13.085 3.78 13.095 3.76 13.095 3.73C13.095 3.7 13.095 3.67 13.075 3.65C13.065 3.63 13.045 3.61 13.025 3.59C13.005 3.57 12.985 3.56 12.955 3.55C12.925 3.55 12.895 3.54 12.865 3.54H12.655V4.26H12.735V3.96H12.805C12.805 3.96 12.835 3.96 12.845 3.96C12.855 3.96 12.865 3.96 12.875 3.98C12.885 3.98 12.895 4 12.905 4.01C12.915 4.02 12.925 4.04 12.935 4.06L13.055 4.26H13.155L13.025 4.04C13.025 4.04 13.005 4.01 12.995 4H13.015ZM12.915 3.87C12.915 3.87 12.875 3.87 12.855 3.87H12.745V3.61H12.855C12.855 3.61 12.935 3.62 12.965 3.64C12.985 3.66 13.005 3.69 13.005 3.73C13.005 3.75 13.005 3.77 12.995 3.79C12.995 3.81 12.975 3.82 12.965 3.83C12.955 3.84 12.935 3.85 12.915 3.86V3.87Z" fill="#515153"/>
<path d="M11.335 3.93H11.595V3.85H11.335V3.61H11.615V3.54H11.255V4.25H11.635V4.18H11.335V3.93Z" fill="#515153"/>
<path d="M9.755 3.61H9.955V4.25H10.045V3.61H10.245V3.54H9.755V3.61Z" fill="#515153"/>
<path d="M8.66501 4.04C8.66501 4.04 8.66501 4.12 8.66501 4.15C8.66501 4.15 8.65501 4.13 8.63501 4.1L8.27501 3.54H8.16501V4.26H8.24501V3.74C8.24501 3.69 8.24501 3.66 8.24501 3.64C8.24501 3.64 8.25501 3.67 8.26501 3.68L8.63501 4.25H8.73501V3.53H8.65501V4.03L8.66501 4.04Z" fill="#515153"/>
<path d="M15.985 3.82L16.035 3.67C16.035 3.67 16.035 3.64 16.045 3.62C16.045 3.62 16.045 3.66 16.055 3.67L16.125 3.86C16.125 3.86 16.195 3.89 16.235 3.9L16.095 3.53H16.005L15.905 3.8C15.905 3.8 15.955 3.8 15.985 3.82Z" fill="#515153"/>
<path d="M7.085 3.54H7.005V4.26H7.085V3.54Z" fill="#515153"/>
<path d="M20.185 3.53C20.075 3.53 19.995 3.56 19.935 3.63C19.875 3.7 19.845 3.79 19.845 3.91C19.845 4.02 19.875 4.1 19.935 4.17C19.995 4.24 20.075 4.27 20.175 4.27C20.275 4.27 20.365 4.24 20.425 4.17C20.485 4.1 20.515 4.01 20.515 3.89C20.515 3.78 20.485 3.7 20.425 3.63C20.365 3.56 20.285 3.53 20.185 3.53ZM20.355 4.12C20.305 4.17 20.245 4.2 20.165 4.2C20.095 4.2 20.035 4.17 19.985 4.12C19.935 4.07 19.915 4 19.915 3.91C19.915 3.82 19.935 3.75 19.985 3.7C20.035 3.65 20.095 3.62 20.165 3.62C20.235 3.62 20.305 3.65 20.345 3.7C20.385 3.75 20.415 3.82 20.415 3.92C20.415 4.02 20.395 4.08 20.345 4.14L20.355 4.12Z" fill="#515153"/>
<path d="M23.395 3.54L23.125 4.26H23.215L23.285 4.06H23.585L23.665 4.26H23.755L23.475 3.54H23.385H23.395ZM23.315 3.98L23.425 3.67C23.425 3.67 23.425 3.64 23.435 3.62C23.435 3.62 23.435 3.66 23.445 3.67L23.555 3.98H23.305H23.315Z" fill="#515153"/>
<path d="M24.835 4.18V3.54H24.755V4.25H25.125V4.18H24.835Z" fill="#515153"/>
<path d="M22.045 4.04C22.045 4.04 22.045 4.12 22.045 4.15C22.045 4.15 22.035 4.13 22.015 4.1L21.655 3.54H21.545V4.26H21.625V3.74C21.625 3.69 21.625 3.66 21.625 3.64C21.625 3.64 21.635 3.67 21.645 3.68L22.015 4.25H22.115V3.53H22.035V4.03L22.045 4.04Z" fill="#515153"/>
<path d="M18.805 3.54H18.725V4.26H18.805V3.54Z" fill="#515153"/>
<path d="M14.265 3.68L14.635 4.25H14.735V3.53H14.655V4.03C14.655 4.03 14.655 4.11 14.655 4.14C14.655 4.14 14.645 4.12 14.625 4.09L14.265 3.53H14.155V4.25H14.235V3.73C14.235 3.68 14.235 3.65 14.235 3.63C14.235 3.63 14.245 3.66 14.255 3.67L14.265 3.68Z" fill="#515153"/>
<path d="M17.225 3.61H17.425V4.25H17.515V3.61H17.715V3.54H17.225V3.61Z" fill="#515153"/>
<path d="M15.785 3.88C15.095 3.88 14.535 4.45 14.535 5.14C14.535 5.83 15.095 6.4 15.785 6.4C16.475 6.4 17.035 5.83 17.035 5.14C17.035 4.45 16.475 3.88 15.785 3.88ZM15.785 6.35C15.125 6.35 14.585 5.81 14.585 5.14C14.585 4.47 15.125 3.93 15.785 3.93C16.445 3.93 16.985 4.47 16.985 5.14C16.985 5.81 16.445 6.35 15.785 6.35Z" fill="url(#paint2_linear_93_164)"/>
<path d="M6.535 21.47V15.6C7.145 15.87 7.865 16.2 8.685 16.6C9.995 17.23 10.575 17.67 11.925 19.77C13.655 22.47 18.905 22.87 19.625 22.17C20.065 21.74 20.365 20.28 21.545 20.7C23.815 21.49 24.835 19.57 25.345 19.85V23.96C25.345 25.28 24.485 26.29 23.415 26.22L8.465 23.97C7.395 23.9 6.535 22.78 6.535 21.47Z" fill="url(#paint3_radial_93_164)"/>
<path d="M10.745 24.43L10.235 22.38L10.255 26.48H9.105V19.63H10.415L11.175 22.37L11.925 19.63H13.195V26.48L12.095 26.51L12.055 22.49L11.565 24.43H10.735H10.745Z" fill="#F2EBE0"/>
<path d="M17.195 26.49L16.955 24.86H15.645L15.365 26.49H14.115L15.425 19.64H17.185L18.495 26.49H17.185H17.195ZM16.775 23.68L16.345 20.79L15.855 23.68H16.775Z" fill="#F2EBE0"/>
<path d="M19.365 26.49V19.64H21.305C21.895 19.64 22.355 19.79 22.685 20.1C23.015 20.41 23.185 20.87 23.185 21.5V22.58C23.185 23.2 23.025 23.65 22.705 23.93C22.385 24.22 21.925 24.36 21.315 24.36H20.715V26.49H19.365ZM20.715 23.19H21.225C21.415 23.19 21.555 23.14 21.645 23.03C21.735 22.92 21.785 22.72 21.785 22.42V21.61C21.785 21.3 21.735 21.09 21.645 20.98C21.555 20.87 21.415 20.81 21.225 20.81H20.715V23.18V23.19Z" fill="#F2EBE0"/>
<path d="M9.40499 19.33C9.28499 19.33 9.20499 19.3 9.14499 19.24C9.08499 19.18 9.05499 19.1 9.05499 18.98V18.63C9.05499 18.51 9.08499 18.43 9.14499 18.37C9.20499 18.31 9.28499 18.28 9.40499 18.28C9.52499 18.28 9.59499 18.31 9.65499 18.37C9.71499 18.43 9.73499 18.52 9.74499 18.65H9.50499C9.50499 18.58 9.49499 18.53 9.48499 18.5C9.47499 18.47 9.44499 18.46 9.40499 18.46C9.36499 18.46 9.33499 18.47 9.32499 18.5C9.31499 18.53 9.30499 18.58 9.30499 18.65V18.95C9.30499 19.02 9.30499 19.07 9.32499 19.1C9.33499 19.13 9.36499 19.14 9.40499 19.14C9.44499 19.14 9.46499 19.13 9.47499 19.1C9.48499 19.07 9.49499 19.02 9.50499 18.94H9.74499C9.74499 19.08 9.71499 19.17 9.65499 19.23C9.59499 19.29 9.51499 19.32 9.40499 19.32V19.33Z" fill="#F2EBE0"/>
<path d="M11.015 19.33C10.915 19.33 10.825 19.3 10.775 19.24C10.715 19.18 10.695 19.1 10.695 19V18.63C10.695 18.52 10.725 18.44 10.775 18.38C10.835 18.32 10.915 18.29 11.015 18.29C11.115 18.29 11.205 18.32 11.255 18.38C11.315 18.44 11.335 18.52 11.335 18.63V19C11.335 19.1 11.305 19.19 11.255 19.24C11.195 19.3 11.115 19.33 11.015 19.33ZM11.015 19.15C11.015 19.15 11.075 19.14 11.085 19.11C11.095 19.08 11.105 19.04 11.105 18.97V18.64C11.105 18.57 11.105 18.52 11.085 18.49C11.075 18.46 11.045 18.45 11.015 18.45C10.985 18.45 10.955 18.46 10.945 18.49C10.935 18.52 10.925 18.56 10.925 18.64V18.97C10.925 19.04 10.925 19.09 10.945 19.11C10.965 19.13 10.985 19.15 11.015 19.15Z" fill="#F2EBE0"/>
<path d="M12.575 19.02L12.495 18.67L12.525 19.33H12.315V18.31H12.525L12.655 18.78L12.785 18.31H12.985V19.33H12.775L12.805 18.69L12.725 19.03H12.585L12.575 19.02Z" fill="#F2EBE0"/>
<path d="M14.205 19.02L14.125 18.67L14.155 19.33H13.945V18.31H14.155L14.285 18.78L14.415 18.31H14.615V19.33H14.405L14.435 18.69L14.355 19.03H14.215L14.205 19.02Z" fill="#F2EBE0"/>
<path d="M15.905 19.33C15.795 19.33 15.705 19.3 15.655 19.24C15.605 19.18 15.575 19.09 15.575 18.97V18.31H15.815V18.97C15.815 19.04 15.815 19.09 15.835 19.12C15.845 19.15 15.875 19.16 15.905 19.16C15.935 19.16 15.965 19.15 15.975 19.12C15.985 19.09 15.995 19.05 15.995 18.97V18.31H16.235V18.97C16.235 19.09 16.205 19.19 16.155 19.24C16.105 19.3 16.015 19.33 15.905 19.33Z" fill="#F2EBE0"/>
<path d="M17.605 19.32L17.415 18.63V19.32H17.215V18.3H17.465L17.675 19.02V18.3H17.875V19.32H17.605Z" fill="#F2EBE0"/>
<path d="M18.835 19.32V19.15H19.045V18.48H18.835V18.3H19.495V18.48H19.285V19.15H19.495V19.32H18.835Z" fill="#F2EBE0"/>
<path d="M20.685 19.32V18.48H20.455V18.3H21.155V18.48H20.925V19.32H20.685Z" fill="#F2EBE0"/>
<path d="M22.555 19.32H22.315V18.94L22.065 18.3H22.295L22.425 18.7L22.565 18.3H22.795L22.545 18.94V19.32H22.555Z" fill="#F2EBE0"/>
<path d="M21.865 9.74C22.135 9.74 22.415 9.73 22.685 9.74C22.855 9.74 23.025 9.8 23.195 9.81C23.255 9.81 23.325 9.78 23.375 9.74C23.405 9.72 23.395 9.63 23.375 9.59C23.265 9.42 23.115 9.3 22.905 9.29C22.845 9.29 22.785 9.27 22.735 9.27C21.955 9.16 21.175 9.14 20.405 9.32C20.365 9.32 20.325 9.32 20.275 9.34C20.275 9.28 20.285 9.25 20.285 9.21C20.285 9.08 20.195 8.99 20.075 9C20.005 9 19.995 8.97 19.965 8.93C19.935 8.89 19.885 8.84 19.835 8.84C19.805 8.84 19.735 8.88 19.725 8.92C19.675 9.07 19.615 9.22 19.605 9.38C19.605 9.97 19.675 10.55 19.895 11.1C19.905 11.14 19.925 11.18 19.935 11.22C19.935 11.22 19.915 11.23 19.915 11.24C19.875 11.21 19.835 11.18 19.805 11.14C19.565 10.81 19.335 10.48 19.095 10.14C19.085 10.12 19.065 10.1 19.075 10.08C19.075 9.87 18.965 9.73 18.835 9.58C18.755 9.48 18.625 9.48 18.565 9.6C18.535 9.66 18.495 9.68 18.435 9.68C18.295 9.7 18.205 9.84 18.255 9.96C18.295 10.06 18.335 10.15 18.375 10.25C18.535 10.6 18.605 10.97 18.565 11.36C18.545 11.58 18.545 11.81 18.545 12.03C18.545 12.14 18.605 12.18 18.715 12.16C18.765 12.16 18.825 12.15 18.865 12.12C18.905 12.09 18.945 12.04 18.955 11.99C18.985 11.78 18.995 11.57 19.015 11.37C19.025 11.26 19.055 11.15 19.075 11.01C19.125 11.07 19.155 11.1 19.195 11.13C19.335 11.27 19.465 11.43 19.615 11.55C19.865 11.76 20.155 11.87 20.475 11.9C20.635 11.92 20.715 11.84 20.695 11.71C20.685 11.63 20.665 11.56 20.625 11.49C20.415 11.08 20.295 10.64 20.225 10.18C20.195 10.03 20.195 9.87 20.175 9.7C20.305 9.75 20.415 9.78 20.495 9.83C20.635 9.92 20.765 9.94 20.915 9.89C20.965 9.87 21.025 9.86 21.085 9.84C21.215 9.81 21.235 9.81 21.245 9.95C21.265 10.36 21.275 10.78 21.295 11.2C21.305 11.49 21.325 11.78 21.345 12.07C21.345 12.17 21.405 12.22 21.485 12.24C21.545 12.25 21.605 12.24 21.665 12.24C21.765 12.24 21.825 12.15 21.795 12.08C21.725 11.86 21.735 11.63 21.755 11.4C21.795 10.89 21.845 10.39 21.775 9.88C21.765 9.79 21.795 9.76 21.875 9.76L21.865 9.74ZM22.905 9.42C22.905 9.42 22.995 9.44 22.975 9.49C22.965 9.52 22.945 9.55 22.935 9.58C22.935 9.6 22.905 9.62 22.885 9.61C22.875 9.61 22.855 9.58 22.845 9.56C22.845 9.56 22.845 9.54 22.835 9.54C22.815 9.5 22.835 9.45 22.875 9.43C22.885 9.43 22.895 9.42 22.905 9.41V9.42ZM22.205 9.37C22.335 9.39 22.455 9.4 22.585 9.42C22.585 9.43 22.585 9.44 22.585 9.45C22.455 9.43 22.325 9.41 22.205 9.4C22.205 9.4 22.205 9.38 22.205 9.37ZM22.275 9.48C22.275 9.48 22.275 9.49 22.275 9.5L21.855 9.47V9.45C21.995 9.46 22.135 9.47 22.275 9.48Z" fill="black"/>
<path d="M10.065 9.37C10.065 9.15 10.035 8.93 10.005 8.71C9.985 8.54 9.885 8.41 9.745 8.32C9.355 8.07 9.135 8.07 8.785 8.37C8.525 8.59 8.365 8.88 8.295 9.22C8.285 9.29 8.265 9.36 8.245 9.43C8.235 9.43 8.225 9.43 8.205 9.43C8.125 9.3 8.035 9.18 8.005 9.03C7.965 8.83 7.895 8.68 7.675 8.64C7.655 8.64 7.635 8.63 7.625 8.62C7.395 8.53 7.235 8.65 7.265 8.9C7.275 9 7.295 9.09 7.305 9.19C7.345 9.7 7.405 10.2 7.425 10.71C7.445 11.02 7.425 11.32 7.415 11.63C7.415 11.72 7.415 11.81 7.505 11.86C7.645 11.94 7.795 11.92 7.945 11.86C8.075 11.81 8.105 11.7 8.105 11.58C8.105 11.25 8.085 10.91 8.085 10.58C8.085 10.53 8.085 10.48 8.085 10.44C8.095 10.44 8.105 10.43 8.115 10.42C8.265 10.58 8.445 10.65 8.665 10.63C8.885 10.61 8.945 10.56 8.935 10.34C8.935 10.04 8.935 9.74 8.955 9.44C8.965 9.23 9.045 9.04 9.195 8.88C9.225 8.84 9.275 8.82 9.315 8.8C9.335 8.84 9.365 8.89 9.365 8.93C9.385 9.54 9.405 10.16 9.415 10.77C9.415 11.03 9.415 11.3 9.445 11.56C9.455 11.79 9.485 11.8 9.705 11.82H9.725C9.835 11.89 9.915 11.77 10.015 11.77C10.015 11.77 10.035 11.72 10.035 11.7C10.035 11.43 10.045 11.16 10.055 10.89C10.065 10.38 10.085 9.87 10.085 9.35L10.065 9.37Z" fill="black"/>
<path d="M15.415 8.75C15.205 8.59 14.985 8.53 14.765 8.68C14.565 8.81 14.395 8.98 14.315 9.21C14.235 9.42 14.175 9.64 14.105 9.85C14.065 9.99 14.025 10.12 13.985 10.26H13.935C13.885 10.17 13.825 10.08 13.785 9.97C13.695 9.74 13.615 9.51 13.525 9.28C13.425 9.02 13.245 8.85 12.995 8.74C12.805 8.66 12.695 8.69 12.625 8.87C12.575 9.03 12.515 9.19 12.515 9.35C12.535 9.67 12.575 9.99 12.635 10.31C12.705 10.68 12.795 11.05 12.945 11.41C13.025 11.6 13.165 11.67 13.345 11.69C13.525 11.71 13.615 11.58 13.555 11.41C13.485 11.21 13.415 11 13.345 10.79C13.255 10.48 13.225 10.14 13.075 9.85C13.045 9.79 13.025 9.72 13.005 9.66C13.115 9.85 13.225 10.04 13.315 10.25C13.445 10.56 13.675 10.74 13.995 10.78C14.255 10.81 14.525 10.74 14.585 10.42C14.645 10.14 14.735 9.86 14.815 9.58C14.825 9.54 14.855 9.5 14.875 9.45C14.885 9.45 14.895 9.45 14.905 9.45C14.905 9.49 14.905 9.53 14.905 9.57C14.865 10.15 14.825 10.72 14.785 11.3C14.765 11.57 14.745 11.85 14.735 12.12C14.735 12.16 14.755 12.21 14.785 12.24C14.835 12.3 15.185 12.24 15.235 12.18C15.235 12.18 15.235 12.17 15.245 12.16C15.355 12 15.325 11.82 15.285 11.64C15.275 11.58 15.255 11.53 15.265 11.47C15.335 10.99 15.415 10.52 15.475 10.04C15.505 9.79 15.505 9.54 15.555 9.3C15.595 9.07 15.615 8.89 15.385 8.72L15.415 8.75ZM14.985 11.5C14.985 11.5 14.945 11.5 14.915 11.5C14.915 11.46 14.935 11.42 14.945 11.38H14.995C14.995 11.42 14.995 11.46 14.995 11.5H14.985Z" fill="black"/>
<path d="M18.155 11.34C17.865 11.42 17.575 11.5 17.285 11.59C16.985 11.68 16.695 11.79 16.395 11.89C16.255 11.93 16.215 11.89 16.235 11.75C16.265 11.53 16.305 11.32 16.355 11.11C16.355 11.08 16.395 11.03 16.435 11.02C16.565 10.98 16.695 10.96 16.815 10.92C17.165 10.83 17.525 10.75 17.875 10.65C18.135 10.58 18.175 10.44 18.015 10.25C17.985 10.22 17.915 10.19 17.875 10.2C17.475 10.34 17.065 10.37 16.655 10.43C16.545 10.44 16.535 10.4 16.555 10.31C16.575 10.21 16.595 10.1 16.615 10C16.615 9.91 16.655 9.86 16.735 9.82C16.785 9.8 16.835 9.75 16.905 9.7C16.855 9.67 16.825 9.65 16.805 9.63C16.805 9.61 16.805 9.6 16.805 9.58C17.045 9.51 17.285 9.43 17.525 9.37C17.665 9.34 17.815 9.35 17.955 9.31C18.085 9.28 18.095 9.2 18.005 9.1C17.905 8.98 17.765 8.94 17.615 8.92C17.275 8.88 16.935 8.92 16.595 9C16.515 9.02 16.455 9.02 16.395 8.96C16.295 8.87 16.165 8.91 16.145 9.03C16.125 9.19 16.035 9.26 15.905 9.32C15.795 9.37 15.735 9.46 15.745 9.58C15.745 9.69 15.845 9.73 15.925 9.76C16.005 9.79 16.025 9.84 16.015 9.92C15.965 10.23 15.905 10.53 15.865 10.84C15.815 11.17 15.765 11.5 15.725 11.83C15.705 12 15.785 12.13 15.935 12.22C16.175 12.37 16.445 12.35 16.695 12.27C17.195 12.11 17.675 11.93 18.165 11.76C18.235 11.73 18.325 11.67 18.355 11.6C18.385 11.55 18.355 11.45 18.325 11.39C18.305 11.36 18.235 11.33 18.195 11.34H18.155ZM17.745 10.44C17.625 10.45 17.495 10.46 17.375 10.48C17.485 10.39 17.665 10.37 17.745 10.44ZM17.375 9.15C17.375 9.15 17.335 9.17 17.315 9.18C17.265 9.2 17.205 9.18 17.195 9.12C17.195 9.12 17.205 9.07 17.235 9.08H17.365C17.365 9.08 17.405 9.14 17.375 9.16V9.15Z" fill="black"/>
<path d="M12.645 10.85C12.645 10.85 12.545 10.81 12.505 10.83C12.405 10.87 12.315 10.93 12.215 10.97C11.925 11.1 11.645 11.23 11.355 11.34C11.225 11.39 11.175 11.35 11.175 11.21C11.175 11.02 11.185 10.84 11.195 10.65C11.195 10.56 11.245 10.52 11.325 10.5C11.455 10.46 11.595 10.44 11.715 10.38C11.925 10.28 12.125 10.17 12.315 10.05C12.395 10 12.435 9.9 12.375 9.79C12.295 9.65 12.245 9.63 12.105 9.67C12.035 9.69 11.955 9.72 11.885 9.74C11.725 9.78 11.565 9.82 11.405 9.86C11.355 9.87 11.295 9.86 11.295 9.79C11.315 9.51 11.295 9.22 11.595 9.04C11.735 8.95 11.895 8.88 12.005 8.72C12.065 8.63 12.065 8.56 12.025 8.49C11.975 8.41 11.915 8.3 11.775 8.34C11.625 8.38 11.465 8.42 11.315 8.47C11.235 8.5 11.155 8.52 11.075 8.47C10.895 8.38 10.825 8.41 10.785 8.61C10.755 8.81 10.655 8.96 10.515 9.09C10.475 9.13 10.425 9.17 10.395 9.22C10.265 9.44 10.275 9.58 10.545 9.65C10.625 9.67 10.625 9.72 10.625 9.78C10.605 10.03 10.585 10.28 10.555 10.63C10.565 10.83 10.585 11.11 10.605 11.4C10.605 11.47 10.655 11.55 10.705 11.6C10.855 11.74 11.035 11.82 11.255 11.81C11.335 11.81 11.415 11.81 11.485 11.8C11.975 11.78 12.345 11.54 12.675 11.21C12.775 11.11 12.765 10.96 12.655 10.86L12.645 10.85Z" fill="black"/>
<path d="M25.295 11.33C25.205 11.01 24.955 10.86 24.685 10.74C24.565 10.69 24.435 10.64 24.275 10.58C24.335 10.58 24.355 10.58 24.385 10.57C24.385 10.57 24.385 10.55 24.385 10.54C24.205 10.5 24.025 10.45 23.845 10.41C23.845 10.41 23.845 10.4 23.845 10.39L24.195 10.42C24.135 10.27 24.085 10.23 23.945 10.2C23.855 10.18 23.775 10.16 23.795 10.04C23.605 10.02 23.425 10.04 23.265 10.16C23.045 10.32 22.895 10.52 22.785 10.76C22.635 11.09 22.525 11.42 22.555 11.79C22.585 12.18 22.915 12.5 23.245 12.56C23.645 12.63 24.015 12.56 24.385 12.39C24.745 12.21 25.065 11.99 25.265 11.62C25.315 11.52 25.335 11.44 25.295 11.33ZM22.905 12.27C23.365 12.42 23.795 12.29 24.215 12.1C23.935 12.38 23.145 12.49 22.905 12.27ZM24.715 11.65C24.375 12.01 23.955 12.19 23.495 12.2C23.405 12.18 23.355 12.18 23.305 12.16C23.155 12.12 23.075 12.02 23.075 11.87C23.095 11.47 23.245 11.11 23.475 10.78C23.495 10.75 23.565 10.72 23.595 10.73C23.735 10.76 23.885 10.78 24.025 10.83C24.225 10.9 24.435 10.98 24.625 11.08C24.805 11.17 24.925 11.42 24.715 11.65Z" fill="black"/>
</g>
<defs>
<linearGradient id="paint0_linear_93_164" x1="25.075" y1="3.1" x2="6.935" y2="28.91" gradientUnits="userSpaceOnUse">
<stop stop-color="#FDFAF1"/>
<stop offset="1" stop-color="#A29885"/>
</linearGradient>
<linearGradient id="paint1_linear_93_164" x1="25.015" y1="3.17" x2="7.015" y2="28.78" gradientUnits="userSpaceOnUse">
<stop stop-color="#F8F3EB"/>
<stop offset="1" stop-color="#EDE2D5"/>
</linearGradient>
<linearGradient id="paint2_linear_93_164" x1="14.995" y1="6.45" x2="16.585" y2="3.83" gradientUnits="userSpaceOnUse">
<stop stop-color="#FDFAF1"/>
<stop offset="1" stop-color="#A29885"/>
</linearGradient>
<radialGradient id="paint3_radial_93_164" cx="0" cy="0" r="1" gradientUnits="userSpaceOnUse" gradientTransform="translate(14.975 18.853) scale(7.64 5.4244)">
<stop stop-color="#FFFBEC" stop-opacity="0.7"/>
<stop offset="1" stop-color="white" stop-opacity="0"/>
</radialGradient>
<clipPath id="clip0_93_164">
<rect width="19.41" height="26.86" fill="white" transform="translate(6.295 2.57)"/>
</clipPath>
</defs>
</svg>
