<svg width="32" height="32" viewBox="0 0 32 32" fill="none" xmlns="http://www.w3.org/2000/svg">
<path d="M23.6685 2.51508H8.24581C7.14659 2.51508 6.25714 3.4447 6.25714 4.60045V27.2297C6.25714 28.3771 7.14659 29.3151 8.24581 29.3151H23.6685C24.7677 29.3151 25.6571 28.3855 25.6571 27.2297V4.60045C25.6571 3.45308 24.7677 2.51508 23.6685 2.51508ZM15.739 6.30895C15.0677 6.30895 14.5307 5.73945 14.5307 5.04433C14.5307 4.3492 15.0761 3.7797 15.739 3.7797C16.4019 3.7797 16.9473 4.3492 16.9473 5.04433C16.9473 5.73945 16.4019 6.30895 15.739 6.30895Z" fill="url(#paint0_linear_111_558)"/>
<path d="M23.6181 2.58208H8.33811C7.24728 2.58208 6.36623 3.50333 6.36623 4.6507V27.1292C6.36623 28.2682 7.24728 29.1978 8.33811 29.1978H23.6181C24.709 29.1978 25.59 28.2682 25.59 27.1292V4.6507C25.59 3.5117 24.709 2.58208 23.6181 2.58208ZM15.7558 6.35083C15.0929 6.35083 14.5558 5.7897 14.5558 5.09458C14.5558 4.39945 15.0929 3.83833 15.7558 3.83833C16.4186 3.83833 16.9557 4.39945 16.9557 5.09458C16.9557 5.7897 16.4186 6.35083 15.7558 6.35083Z" fill="url(#paint1_linear_111_558)"/>
<path d="M6.33266 27.2548C6.33266 28.3436 7.18854 29.223 8.23741 29.223H23.6517C24.7006 29.223 25.5564 28.3436 25.5564 27.2548V17.5063H6.33266V27.2548Z" fill="#79B287"/>
<path d="M23.6185 2.64071H8.33852C7.24769 2.64071 6.36664 3.52846 6.36664 4.61721V5.51333L14.5982 5.49658C14.5311 5.34583 14.4975 5.17833 14.4975 5.00246C14.4975 4.31571 15.0597 3.75458 15.7478 3.75458C16.4358 3.75458 16.998 4.31571 16.998 5.00246C16.998 5.17833 16.9645 5.34583 16.8973 5.49658L25.5904 5.51333V4.61721C25.5904 3.52846 24.7094 2.64908 23.6185 2.64908V2.64071Z" fill="#79B287"/>
<path d="M21.6379 5.95758L21.3777 6.48521H21.3022L21.5456 5.99946H21.2183V5.94083H21.6379V5.95758Z" fill="#434549"/>
<path d="M21.7386 6.45976V6.39276C21.7805 6.42626 21.8309 6.43464 21.8896 6.43464C21.9315 6.43464 21.9735 6.42626 21.9987 6.40951C22.0238 6.39276 22.0406 6.36764 22.0406 6.33414C22.0406 6.26714 21.9819 6.22526 21.856 6.22526H21.8057V6.17501H21.856C21.9651 6.17501 22.0155 6.14151 22.0155 6.07451C22.0155 6.01589 21.9735 5.98239 21.8896 5.98239C21.8476 5.98239 21.7973 5.99914 21.7553 6.02426V5.96564C21.7553 5.96564 21.8476 5.93214 21.9064 5.93214C21.9651 5.93214 22.0071 5.94051 22.0406 5.96564C22.0742 5.99076 22.091 6.02426 22.091 6.05776C22.091 6.13314 22.049 6.17501 21.9567 6.20014C22.0071 6.20014 22.0406 6.21689 22.0658 6.24201C22.091 6.26714 22.1078 6.29226 22.1078 6.33414C22.1078 6.38439 22.091 6.42626 22.0406 6.45139C21.9987 6.48489 21.9399 6.49326 21.8728 6.49326C21.8141 6.49326 21.7637 6.48489 21.7218 6.46814L21.7386 6.45976Z" fill="#434549"/>
<path d="M22.2588 6.46808V6.40108C22.3007 6.42621 22.3511 6.43458 22.393 6.43458C22.435 6.43458 22.477 6.42621 22.5021 6.40108C22.5273 6.37596 22.5441 6.35083 22.5441 6.31733C22.5441 6.28383 22.5273 6.25033 22.5021 6.23358C22.477 6.21683 22.435 6.20008 22.3763 6.20008C22.3595 6.20008 22.3259 6.20008 22.2756 6.20008V5.92371H22.5944V5.98233H22.3511V6.14146C22.3511 6.14146 22.393 6.14146 22.4098 6.14146C22.477 6.14146 22.5357 6.15821 22.5693 6.18333C22.6028 6.21683 22.628 6.25033 22.628 6.30058C22.628 6.35083 22.6112 6.39271 22.5693 6.42621C22.5273 6.45971 22.4686 6.47646 22.4014 6.47646C22.3427 6.47646 22.2924 6.47646 22.2672 6.45133L22.2588 6.46808Z" fill="#434549"/>
<path d="M22.7622 6.46808V6.40108C22.8042 6.42621 22.8545 6.43458 22.8965 6.43458C22.9384 6.43458 22.9804 6.42621 23.0056 6.40108C23.0307 6.37596 23.0475 6.35083 23.0475 6.31733C23.0475 6.28383 23.0307 6.25033 23.0056 6.23358C22.9804 6.21683 22.9384 6.20008 22.8797 6.20008C22.8629 6.20008 22.8294 6.20008 22.779 6.20008V5.92371H23.0979V5.98233H22.8545V6.14146C22.8545 6.14146 22.8965 6.14146 22.9133 6.14146C22.9804 6.14146 23.0391 6.15821 23.0727 6.18333C23.1063 6.21683 23.1314 6.25033 23.1314 6.30058C23.1314 6.35083 23.1147 6.39271 23.0727 6.42621C23.0308 6.45971 22.972 6.47646 22.9049 6.47646C22.8461 6.47646 22.7958 6.47646 22.7706 6.45133L22.7622 6.46808Z" fill="#434549"/>
<path d="M23.6097 5.94051V5.99914C23.6097 5.99914 23.5426 5.97401 23.5007 5.97401C23.4419 5.97401 23.4 5.99914 23.358 6.04101C23.3244 6.08289 23.3077 6.14151 23.3077 6.21689C23.3412 6.16664 23.3916 6.14151 23.4587 6.14151C23.5174 6.14151 23.5594 6.15826 23.593 6.18339C23.6265 6.21689 23.6433 6.25039 23.6433 6.30901C23.6433 6.36764 23.6265 6.40951 23.5846 6.44301C23.5426 6.47651 23.5007 6.49326 23.4419 6.49326C23.3748 6.49326 23.3244 6.46814 23.2909 6.42626C23.2573 6.38439 23.2321 6.32576 23.2321 6.24201C23.2321 6.14989 23.2573 6.06614 23.3077 6.01589C23.358 5.95726 23.4167 5.93214 23.5007 5.93214C23.5426 5.93214 23.5846 5.93214 23.6097 5.94889V5.94051ZM23.4503 6.19176C23.4503 6.19176 23.3832 6.20014 23.358 6.22526C23.3328 6.25039 23.3244 6.27551 23.3244 6.30064C23.3244 6.33414 23.3328 6.36764 23.358 6.39276C23.3832 6.41789 23.4167 6.43464 23.4503 6.43464C23.4839 6.43464 23.5174 6.42626 23.5426 6.40114C23.5678 6.37601 23.5762 6.35089 23.5762 6.31739C23.5762 6.27551 23.5678 6.25039 23.5426 6.22526C23.5174 6.20014 23.4923 6.19176 23.4503 6.19176Z" fill="#434549"/>
<path d="M23.937 6.48483C23.8699 6.48483 23.8195 6.45971 23.786 6.41783C23.7524 6.36758 23.7356 6.30058 23.7356 6.21683C23.7356 6.11633 23.7524 6.04933 23.7943 5.99908C23.8363 5.94883 23.8866 5.92371 23.9622 5.92371C24.0964 5.92371 24.1636 6.01583 24.1636 6.20008C24.1636 6.29221 24.1468 6.35921 24.1048 6.40946C24.0629 6.45971 24.0125 6.48483 23.9454 6.48483H23.937ZM23.9454 5.97396C23.8531 5.97396 23.8027 6.04933 23.8027 6.20846C23.8027 6.35921 23.8447 6.42621 23.937 6.42621C24.0293 6.42621 24.0713 6.35083 24.0713 6.20008C24.0713 6.04933 24.0293 5.96558 23.937 5.96558L23.9454 5.97396Z" fill="#434549"/>
<path d="M24.3817 6.19171C24.3062 6.15821 24.2642 6.11633 24.2642 6.05771C24.2642 6.01583 24.281 5.98233 24.3146 5.95721C24.3481 5.93208 24.3985 5.92371 24.4572 5.92371C24.5076 5.92371 24.5495 5.93208 24.5831 5.95721C24.6167 5.98233 24.6334 6.00746 24.6334 6.04933C24.6334 6.10796 24.5915 6.15821 24.516 6.19171C24.6083 6.22521 24.6586 6.26708 24.6586 6.34246C24.6586 6.38433 24.6418 6.42621 24.5999 6.45133C24.5579 6.47646 24.5076 6.49321 24.4404 6.49321C24.3817 6.49321 24.3398 6.47646 24.3062 6.45133C24.2726 6.42621 24.2558 6.39271 24.2558 6.35083C24.2558 6.28383 24.3062 6.23358 24.3985 6.20008L24.3817 6.19171ZM24.4404 6.22521C24.3565 6.25033 24.3146 6.29221 24.3146 6.34246C24.3146 6.36758 24.323 6.39271 24.3481 6.40946C24.3733 6.42621 24.4069 6.43458 24.4404 6.43458C24.474 6.43458 24.5076 6.42621 24.5327 6.40946C24.5579 6.39271 24.5663 6.36758 24.5663 6.34246C24.5663 6.28383 24.5244 6.25033 24.4321 6.21683L24.4404 6.22521ZM24.5495 6.05771C24.5495 6.05771 24.5411 6.01583 24.5244 5.99908C24.5076 5.98233 24.4824 5.97396 24.4488 5.97396C24.4153 5.97396 24.3901 5.97396 24.3733 5.99908C24.3565 6.01583 24.3398 6.03258 24.3398 6.05771C24.3398 6.10796 24.3733 6.14146 24.4488 6.16658C24.5244 6.14146 24.5579 6.10796 24.5579 6.05771H24.5495Z" fill="#434549"/>
<path d="M21.4029 27.1627H22.8881L21.9903 29.022H20.5051L21.4029 27.1627ZM9.12687 29.0136H9.51285L10.4107 27.1543H10.0247L9.12687 29.0136ZM14.195 29.0136H14.388L15.2859 27.1543H15.0929L14.195 29.0136ZM13.8174 29.0136H14.0104L14.9083 27.1543H14.7153L13.8174 29.0136ZM12.5168 29.0136H12.7098L13.6077 27.1543H13.4147L12.5168 29.0136ZM25.3802 27.1627H24.6083L23.7188 29.0052C24.6167 28.888 25.3215 28.1175 25.3802 27.1627ZM7.81787 28.9382L8.67375 27.1627H7.18854L6.74382 28.0923C6.98716 28.4943 7.36475 28.8042 7.81787 28.9382ZM17.8787 29.0136H19.3639L20.2617 27.1543H18.7765L17.8787 29.0136ZM15.0257 29.0136H17.5347L18.4325 27.1543H15.9236L15.0257 29.0136Z" fill="url(#paint2_linear_111_558)"/>
<path d="M24.4999 15.3874H24.3313V17.2634H24.4999V15.3874Z" fill="#434549"/>
<path d="M24.0803 15.3874H23.9118V17.2634H24.0803V15.3874Z" fill="#434549"/>
<path d="M23.6356 15.3874H23.4671V17.2634H23.6356V15.3874Z" fill="#434549"/>
<path d="M12.9699 3.93893C12.9699 3.93893 12.9531 3.9138 12.9448 3.90543C12.9448 3.89705 12.928 3.88868 12.9196 3.8803C12.9112 3.8803 12.9028 3.86355 12.886 3.86355C12.886 3.86355 12.9364 3.8468 12.9531 3.83843C12.9699 3.83005 12.9867 3.8133 13.0035 3.79655C13.0203 3.7798 13.0287 3.76305 13.0371 3.73793C13.0371 3.72118 13.0455 3.69605 13.0455 3.67093C13.0455 3.63743 13.0455 3.6123 13.0287 3.58718C13.0203 3.56205 13.0035 3.5453 12.9867 3.52855C12.9699 3.5118 12.9448 3.50343 12.9196 3.49505C12.8944 3.49505 12.8608 3.48668 12.8357 3.48668H12.6259V4.19855H12.7098V3.89705H12.7769C12.7769 3.89705 12.8105 3.89705 12.8189 3.89705C12.8273 3.89705 12.8441 3.90543 12.8525 3.9138C12.8608 3.9138 12.8776 3.93055 12.886 3.9473C12.8944 3.96405 12.9112 3.97243 12.9196 3.99755L13.0371 4.19855H13.1378L13.0035 3.9808C13.0035 3.9808 12.9867 3.9473 12.9783 3.93893H12.9699ZM12.8776 3.80493C12.8776 3.80493 12.8441 3.8133 12.8189 3.8133H12.7014V3.55368H12.8189C12.8692 3.55368 12.9028 3.56205 12.928 3.58718C12.9531 3.6123 12.9615 3.63743 12.9615 3.6793C12.9615 3.70443 12.9615 3.72118 12.9531 3.73793C12.9531 3.75468 12.9364 3.77143 12.9196 3.7798C12.9028 3.78818 12.8944 3.79655 12.8692 3.80493H12.8776Z" fill="#515253"/>
<path d="M11.3001 3.87188H11.5519V3.79651H11.3001V3.55363H11.577V3.47826H11.2162V4.19851H11.5938V4.12313H11.3001V3.87188Z" fill="#515253"/>
<path d="M9.71423 3.55363H9.91562V4.19851H9.99953V3.55363H10.2093V3.47826H9.71423V3.55363Z" fill="#515253"/>
<path d="M8.62341 3.9807C8.62341 4.03095 8.62341 4.06445 8.62341 4.08958C8.62341 4.08958 8.60663 4.06445 8.59824 4.03933L8.23742 3.4782H8.12834V4.19008H8.21225V3.67083C8.21225 3.62058 8.21225 3.58708 8.21225 3.57033C8.21225 3.57033 8.22903 3.60383 8.23742 3.6122L8.60663 4.1817H8.70732V3.46983H8.62341V3.97233V3.9807Z" fill="#515253"/>
<path d="M15.9401 3.76228L15.9903 3.61191C15.9903 3.61191 15.9903 3.58685 15.9987 3.56179C15.9987 3.56179 15.9987 3.60356 16.0071 3.61191L16.074 3.80404C16.074 3.80404 16.141 3.8291 16.1828 3.84581L16.0406 3.47826H15.9569L15.8564 3.74557C15.8564 3.74557 15.9066 3.75392 15.9318 3.76228H15.9401Z" fill="#515253"/>
<path d="M7.05465 3.47819H6.97037V4.19006H7.05465V3.47819Z" fill="#515253"/>
<path d="M20.1442 3.46983C20.0351 3.46983 19.9512 3.50333 19.8925 3.57033C19.8338 3.63733 19.8002 3.72945 19.8002 3.8467C19.8002 3.95558 19.8338 4.03933 19.8925 4.10633C19.9512 4.17333 20.0351 4.20683 20.1358 4.20683C20.2365 4.20683 20.3204 4.17333 20.3876 4.10633C20.4547 4.03933 20.4799 3.9472 20.4799 3.82995C20.4799 3.72108 20.4463 3.63733 20.3876 3.57033C20.3288 3.50333 20.2449 3.46983 20.1526 3.46983H20.1442ZM20.312 4.05608C20.2701 4.10633 20.203 4.13145 20.1274 4.13145C20.0519 4.13145 19.9932 4.10633 19.9512 4.0477C19.9093 3.99745 19.8841 3.92208 19.8841 3.83833C19.8841 3.75458 19.9093 3.6792 19.9512 3.62895C20.0016 3.5787 20.0603 3.5452 20.1358 3.5452C20.2113 3.5452 20.2701 3.57033 20.3204 3.62058C20.3624 3.67083 20.3876 3.7462 20.3876 3.83833C20.3876 3.93045 20.3624 4.00583 20.3204 4.05608H20.312Z" fill="#515253"/>
<path d="M23.3496 3.47826L23.0727 4.19013H23.165L23.2405 3.98913H23.5426L23.6181 4.19013H23.7104L23.4335 3.47826H23.3496ZM23.2657 3.92213L23.3748 3.62063C23.3748 3.62063 23.3748 3.59551 23.3832 3.57038C23.3832 3.57038 23.3832 3.61226 23.3916 3.62063L23.5006 3.92213H23.2489H23.2657Z" fill="#515253"/>
<path d="M24.7929 4.12313V3.47826H24.709V4.19851H25.0782V4.12313H24.7929Z" fill="#515253"/>
<path d="M21.9987 3.9807C21.9987 4.03095 21.9987 4.06445 21.9987 4.08958C21.9987 4.08958 21.9819 4.06445 21.9735 4.03933L21.6127 3.4782H21.5036V4.19008H21.5875V3.67083C21.5875 3.62058 21.5875 3.58708 21.5875 3.57033C21.5875 3.57033 21.6043 3.60383 21.6127 3.6122L21.9819 4.1817H22.0826V3.46983H21.9987V3.97233V3.9807Z" fill="#515253"/>
<path d="M18.7601 3.47826H18.6758V4.19013H18.7601V3.47826Z" fill="#515253"/>
<path d="M14.2286 3.62905L14.5978 4.19855H14.6985V3.48668H14.6146V3.98918C14.6146 4.03943 14.6146 4.07293 14.6146 4.09805C14.6146 4.09805 14.5978 4.07293 14.5894 4.0478L14.2286 3.48668H14.1195V4.19855H14.2034V3.6793C14.2034 3.62905 14.2034 3.59555 14.2034 3.5788C14.2034 3.5788 14.2202 3.6123 14.2286 3.62068V3.62905Z" fill="#515253"/>
<path d="M17.1822 3.55363H17.3836V4.19851H17.4675V3.55363H17.6773V3.47826H17.1822V3.55363Z" fill="#515253"/>
<path d="M15.7474 3.82158C15.0593 3.82158 14.4971 4.3827 14.4971 5.0862C14.4971 5.7897 15.0593 6.35083 15.7474 6.35083C16.4354 6.35083 16.9976 5.7897 16.9976 5.0862C16.9976 4.3827 16.4354 3.82158 15.7474 3.82158ZM15.7474 6.28383C15.0845 6.28383 14.5559 5.74783 14.5559 5.07783C14.5559 4.40783 15.0929 3.87183 15.7474 3.87183C16.4019 3.87183 16.9389 4.40783 16.9389 5.07783C16.9389 5.74783 16.4019 6.28383 15.7474 6.28383Z" fill="url(#paint3_linear_111_558)"/>
<path opacity="0.31" d="M25.3047 19.1646V20.9401C24.7006 20.6721 23.3077 21.5514 22.4853 21.1494C21.1764 20.5213 20.4715 22.4727 17.971 22.5481C15.9488 22.6151 14.43 21.7776 13.4315 21.7776C12.6007 21.7776 11.3757 23.0673 10.1925 22.6569C7.92696 21.8613 7.00395 21.0657 6.50049 20.7809V16.6856C6.50049 15.3707 7.36476 14.3657 8.43042 14.4327L23.3748 16.6772C24.4405 16.7442 25.3047 17.8664 25.3047 19.1729V19.1646Z" fill="url(#paint4_linear_111_558)"/>
<path d="M10.7044 24.3319L10.2009 22.2884L10.2177 26.3838H9.06812V19.5498H10.3771L11.1407 22.2801L11.8959 19.5498H13.1713V26.3838L12.0721 26.4173L12.0385 22.4057L11.5519 24.3403H10.7211L10.7044 24.3319Z" fill="#E4DFD0"/>
<path d="M17.1487 26.3755L16.9053 24.7507H15.5963L15.3194 26.3755H14.0776L15.3866 19.5415H17.1403L18.4493 26.3755H17.1403H17.1487ZM16.7291 23.5782L16.3012 20.6972L15.8145 23.5782H16.7375H16.7291Z" fill="#E4DFD0"/>
<path d="M19.3219 26.3755V19.5415H21.2603C21.8476 19.5415 22.3091 19.6922 22.6448 20.0021C22.9804 20.3036 23.1398 20.7726 23.1398 21.4007V22.4811C23.1398 23.0925 22.9804 23.5447 22.6532 23.8295C22.3343 24.1142 21.8644 24.2566 21.2686 24.2566H20.6645V26.3838H19.3219V26.3755ZM20.6645 23.0925H21.1763C21.3609 23.0925 21.5036 23.0422 21.5959 22.9333C21.6882 22.8245 21.7385 22.6235 21.7385 22.3303V21.5263C21.7385 21.2165 21.6882 21.0071 21.5959 20.8982C21.5036 20.7893 21.3609 20.7307 21.1763 20.7307H20.6645V23.1008V23.0925Z" fill="#E4DFD0"/>
<path d="M9.36182 19.24C9.24435 19.24 9.16044 19.2148 9.1017 19.1562C9.04296 19.0976 9.01779 19.0138 9.01779 18.8966V18.5532C9.01779 18.436 9.04296 18.3522 9.1017 18.2936C9.16044 18.235 9.24435 18.2015 9.36182 18.2015C9.4793 18.2015 9.55482 18.2266 9.60516 18.2852C9.65551 18.3438 9.68907 18.436 9.68907 18.5616H9.45412C9.45412 18.4946 9.44573 18.436 9.42895 18.4108C9.41217 18.3857 9.387 18.369 9.35343 18.369C9.31148 18.369 9.2863 18.3857 9.26952 18.4108C9.25274 18.436 9.24435 18.4946 9.24435 18.5616V18.8631C9.24435 18.9301 9.24435 18.9803 9.26952 19.0138C9.29469 19.0473 9.31148 19.0557 9.35343 19.0557C9.387 19.0557 9.41217 19.039 9.42895 19.0222C9.44573 18.9971 9.45412 18.9468 9.45412 18.8631L9.68907 18.8798C9.68907 19.0055 9.65551 19.0976 9.60516 19.1562C9.55482 19.2148 9.47091 19.24 9.35343 19.24H9.36182Z" fill="#E4DFD0"/>
<path d="M10.9729 19.24C10.8722 19.24 10.7883 19.2065 10.7296 19.1478C10.6708 19.0892 10.6456 19.0055 10.6456 18.905V18.5365C10.6456 18.4276 10.6708 18.3438 10.7296 18.2852C10.7883 18.2266 10.8638 18.1931 10.9729 18.1931C11.082 18.1931 11.1575 18.2266 11.2162 18.2852C11.275 18.3438 11.3001 18.4276 11.3001 18.5365V18.905C11.3001 19.0055 11.275 19.0892 11.2162 19.1478C11.1575 19.2065 11.082 19.24 10.9729 19.24ZM10.9729 19.0641C10.9729 19.0641 11.0316 19.0473 11.04 19.0306C11.0568 19.0055 11.0568 18.9552 11.0568 18.8882V18.5616C11.0568 18.4946 11.0568 18.4443 11.04 18.4192C11.0232 18.3941 11.0065 18.3773 10.9729 18.3773C10.9393 18.3773 10.9142 18.3857 10.9058 18.4192C10.889 18.4443 10.889 18.4946 10.889 18.5616V18.8882C10.889 18.9552 10.889 19.0055 10.9058 19.0306C10.9225 19.0557 10.9393 19.0641 10.9729 19.0641Z" fill="#E4DFD0"/>
<path d="M12.5336 18.9218L12.4497 18.5701L12.4749 19.2233H12.2651V18.2099H12.4749L12.6007 18.6789L12.7266 18.2099H12.928V19.2233H12.7182L12.7434 18.5868L12.6595 18.9218H12.5168H12.5336Z" fill="#E4DFD0"/>
<path d="M14.1615 18.9218L14.0776 18.5701L14.1027 19.2233H13.893V18.2099H14.1027L14.2286 18.6789L14.3545 18.2099H14.5558V19.2233H14.3461L14.3712 18.5868L14.2873 18.9218H14.1447H14.1615Z" fill="#E4DFD0"/>
<path d="M15.8648 19.2401C15.7474 19.2401 15.6719 19.2066 15.6131 19.1479C15.5628 19.0893 15.5292 18.9972 15.5292 18.8716V18.2099H15.7642V18.8716C15.7642 18.9386 15.7642 18.9888 15.7809 19.0139C15.7977 19.0391 15.8145 19.0474 15.8565 19.0474C15.8984 19.0474 15.9152 19.0391 15.932 19.0139C15.9488 18.9888 15.9488 18.9386 15.9488 18.8716V18.2099H16.1837V18.8716C16.1837 18.9972 16.1585 19.0893 16.0998 19.1479C16.0411 19.2066 15.9655 19.2401 15.8481 19.2401H15.8648Z" fill="#E4DFD0"/>
<path d="M17.5514 19.2317L17.3584 18.545V19.2317H17.1571V18.2184H17.4088L17.6186 18.9386V18.2184H17.8199V19.2317H17.5514Z" fill="#E4DFD0"/>
<path d="M18.7933 19.2317V19.0559H19.0031V18.3942H18.7933V18.2184H19.4562V18.3942H19.2464V19.0559H19.4562V19.2317H18.7933Z" fill="#E4DFD0"/>
<path d="M20.6393 19.2317V18.3942H20.4044V18.2184H21.1092V18.3942H20.8743V19.2317H20.6393Z" fill="#E4DFD0"/>
<path d="M22.5021 19.2317H22.2672V18.8549L22.0155 18.2184H22.2504L22.3847 18.6204L22.5189 18.2184H22.7539L22.5021 18.8549V19.2317Z" fill="#E4DFD0"/>
<path d="M18.6003 9.75107C18.7262 10.2201 18.9108 10.8063 19.0702 11.3088C19.2632 11.9286 19.624 12.4562 19.5233 13.2267C19.2884 13.2602 18.8772 13.6203 18.6926 13.4277C18.5584 13.2937 18.5248 12.6069 18.3654 12.4227C18.3318 12.2719 18.55 12.3138 18.5835 12.2636L18.6003 12.1714C18.6171 12.0709 18.6255 12.0626 18.5332 12.0793C18.4157 12.0961 17.8199 12.4227 17.6353 12.5064C17.5514 12.5483 17.4843 12.5818 17.4004 12.6153C16.9976 12.8163 16.6452 13.0508 16.2424 13.1597C16.2173 13.2686 16.3599 13.2267 16.4187 13.2183C16.5697 13.1848 16.7207 13.0676 16.8802 13.0927C16.855 13.3858 16.6368 13.7711 16.9557 13.8632L16.8466 14.0391L15.9739 14.1814L16.125 13.2853H15.546L15.6886 12.9001C15.311 13.0592 14.9167 13.1262 14.5475 13.3188C14.3712 13.4109 13.893 13.8381 13.7923 13.7962L13.7419 13.7376C13.6832 12.8833 13.6664 11.9453 13.6832 11.0743C13.6916 10.7142 13.6832 10.0442 13.7335 9.72595C13.8007 9.18995 14.5391 9.32395 14.8076 9.4412C14.8076 9.59195 14.7237 9.63382 14.6398 9.56682C14.4552 10.5802 14.6398 11.5433 14.581 12.5483C14.7069 13.0089 15.1097 12.6404 15.3949 12.5818C15.6635 12.5316 16.0746 12.5064 16.3012 12.6404L16.5865 11.4679C16.7795 11.3758 16.6452 11.2921 16.6872 11.0911C16.8046 10.5802 17.0564 9.58357 17.2242 9.11457C17.4172 8.6037 17.585 8.5367 18.0046 8.61207C18.5751 8.7042 18.4073 8.91357 18.5164 9.35745C18.55 9.49145 18.5835 9.65895 18.6087 9.7427L18.6003 9.75107ZM17.8535 10.2201C17.7696 10.2033 17.736 10.2452 17.6941 10.3289C17.5766 10.5886 17.4843 11.2502 17.3752 11.5768C17.3417 11.6773 17.1235 12.2301 17.0983 12.2552C17.0396 12.2971 16.9389 12.2133 16.9473 12.3306C17.1319 12.3641 18.2143 12.0291 18.2479 11.8532C18.0717 11.3507 17.9123 10.7644 17.8535 10.2201Z" fill="black"/>
<path d="M20.8995 9.12295C20.8407 9.12295 20.7652 9.14807 20.74 9.22345C20.6813 9.36582 20.6477 10.6639 20.6645 10.8817C20.6645 10.9403 20.74 11.1832 20.7568 11.1748C20.9918 11.0241 20.8071 10.9152 20.8491 10.7896C20.8911 10.6639 21.5539 9.95207 21.6882 9.82645C22.0742 9.48307 22.972 8.89682 23.4168 8.86332C23.6853 8.8382 24.2055 8.93032 24.3482 9.18157C23.8195 9.0727 23.0559 9.44957 22.5441 9.76782C22.3511 9.89345 21.6798 10.4629 21.6379 10.6974C21.663 11.4261 22.393 11.1413 22.8126 11.1664C23.4335 11.1999 24.1971 11.2502 24.7593 11.4931C25.2124 11.6857 25.3635 11.8197 24.86 12.2217C24.5747 12.4478 24.4992 12.3892 24.2726 12.6991C24.2139 12.7828 23.6433 12.9168 23.4839 13.0508C23.3412 13.1764 23.4671 13.1848 23.1902 13.3356C22.821 13.5449 21.9651 14.0642 21.6127 13.9888C21.4197 13.9469 21.4952 13.7878 21.47 13.6119C21.663 13.5868 24.3985 12.0626 24.2642 11.8783C23.9454 11.8113 23.593 11.7108 23.2657 11.6857C22.628 11.6354 21.6882 11.8197 21.1344 11.5601C20.9414 11.4679 20.9246 11.2502 20.7232 11.2334C20.6729 11.8364 20.7904 12.3222 20.9078 12.8749L20.7988 12.9671C20.975 12.9671 20.933 13.3356 20.9498 13.5031C20.74 13.6287 20.2198 13.8716 20.0352 13.7627C19.7834 13.6119 19.9093 13.3188 19.8841 13.0759C19.8002 12.0626 19.7331 11.0324 19.8086 9.98557C19.8254 9.73432 19.8506 9.2402 19.9093 9.02245C20.0016 8.65395 20.7484 8.81307 20.9078 9.02245V9.11457L20.8995 9.12295Z" fill="black"/>
<path d="M12.8525 12.1212C12.8525 12.1212 13.0035 12.2552 13.0119 12.2803C13.0371 12.3724 12.9951 12.4813 13.0203 12.5818C13.0707 12.7661 13.2553 12.8917 13.1294 13.2267L13.2385 13.1597C13.1546 13.4863 13.4063 13.5533 13.3727 13.8632C13.1378 13.8799 12.584 14.2066 12.4078 14.0893L12.0889 12.9001C12.0302 12.7577 11.8875 12.9001 11.8204 12.8833C11.7533 12.8666 11.8204 12.6656 11.6358 12.7074L11.4176 12.9671H11.6777C11.5099 13.0341 10.9561 13.1764 10.8806 13.3439C10.7883 13.5366 11.04 13.9972 10.8135 14.2149C10.7547 14.2736 9.9492 14.4746 9.90725 14.4327L9.99955 13.5366C9.87368 13.5366 9.71425 13.5868 9.64713 13.4444C9.74782 13.1513 10.0918 13.1011 10.159 12.9838C10.2345 12.8498 10.2513 12.5399 10.3016 12.3724C10.545 11.4512 10.696 10.5383 10.8974 9.60032C10.9226 9.46632 10.9981 9.09782 11.0652 9.02244L11.6526 8.67907C11.8623 8.76282 12.2735 8.69582 12.4162 8.93032C12.5001 9.06432 12.4497 9.48307 12.4833 9.70919C12.584 10.5048 12.7182 11.3507 12.8525 12.1128V12.1212ZM11.7197 10.3457C11.6274 10.2117 11.5015 10.7309 11.4848 10.7979C11.4596 10.8901 11.4848 10.9822 11.4512 11.0576C11.3085 11.5852 11.1323 12.1212 10.9981 12.6572C11.0568 12.7326 11.9379 12.4227 11.9714 12.2971L11.7113 10.3457H11.7197ZM12.6427 12.4646C12.584 12.5148 11.6526 12.4981 11.8288 12.7242C12.0973 12.6069 12.4497 12.7744 12.6427 12.4646Z" fill="black"/>
<path d="M10.1506 10.2033C9.81494 10.4211 9.94919 10.2619 9.63033 10.6472C9.40378 10.9236 8.77445 10.9906 8.54789 11.1916C8.5395 11.1999 8.59824 11.2921 8.49755 11.3674C8.32134 11.5014 8.12834 11.4596 7.96891 11.5182C7.93535 11.5349 7.54097 11.8281 7.52419 11.8532C7.49063 11.9872 7.55776 11.9537 7.63327 11.9369C7.76753 11.9034 8.10317 11.7192 8.17869 11.8867L8.30456 13.3774C8.39686 13.4779 8.47238 13.5701 8.39686 13.7459C8.25421 14.0307 7.885 13.7124 7.7927 14.0056C7.63327 14.0391 7.59971 13.8381 7.56615 13.6789C7.52419 13.4528 7.40672 12.0793 7.33959 12.0207C7.21372 11.9286 6.73544 12.2552 6.71866 12.0458C6.6767 11.7527 7.28085 11.6103 7.29763 11.5266C7.28085 10.9822 7.17177 10.4043 7.16338 9.85995C7.16338 9.65895 7.22212 9.43282 7.22212 9.22345C7.22212 9.1062 7.16338 9.01407 7.15499 8.88845C7.1466 8.46132 7.68362 8.38595 7.92696 8.51157C8.29616 8.7042 8.18708 8.56182 8.58146 8.54507C9.03457 8.51995 10.5366 8.62045 10.5617 9.34907C10.5617 9.51657 10.2261 10.1447 10.1422 10.1949L10.1506 10.2033ZM8.04443 10.9236C8.22904 10.9403 8.40525 10.8398 8.57307 10.7393C8.83319 10.5886 9.85689 9.7427 9.70585 9.38257C9.61355 9.16482 8.76606 8.93032 8.54789 8.9387C8.21225 8.9387 8.10317 9.1062 7.87661 9.31557C7.65006 9.52495 7.47385 9.52495 7.47385 9.98557L7.58293 10.0861L8.08639 10.0274L8.04443 10.9236Z" fill="black"/>
<defs>
<linearGradient id="paint0_linear_111_558" x1="25.0278" y1="3.0427" x2="6.94116" y2="28.8199" gradientUnits="userSpaceOnUse">
<stop stop-color="#FDF9F0"/>
<stop offset="1" stop-color="#A29884"/>
</linearGradient>
<linearGradient id="paint1_linear_111_558" x1="24.9691" y1="3.1097" x2="7.02473" y2="28.6941" gradientUnits="userSpaceOnUse">
<stop stop-color="#EDE8D9"/>
<stop offset="0.36" stop-color="#F4EEE0"/>
<stop offset="1" stop-color="#FFF7EB"/>
</linearGradient>
<linearGradient id="paint2_linear_111_558" x1="6.74382" y1="28.0923" x2="25.3802" y2="28.0923" gradientUnits="userSpaceOnUse">
<stop stop-color="#C9C5B8"/>
<stop offset="1" stop-color="#E4DFD0"/>
</linearGradient>
<linearGradient id="paint3_linear_111_558" x1="14.9502" y1="6.38433" x2="16.5401" y2="3.76863" gradientUnits="userSpaceOnUse">
<stop stop-color="#FDF9F0"/>
<stop offset="1" stop-color="#A29884"/>
</linearGradient>
<linearGradient id="paint4_linear_111_558" x1="2.37609" y1="19.7625" x2="2.66535" y2="13.4292" gradientUnits="userSpaceOnUse">
<stop offset="0.05" stop-color="#FFFAEB" stop-opacity="0.7"/>
<stop offset="0.68" stop-color="#FFEDCF" stop-opacity="0"/>
</linearGradient>
</defs>
</svg>
