<svg width="32" height="32" viewBox="0 0 32 32" fill="none" xmlns="http://www.w3.org/2000/svg">
<g clip-path="url(#clip0_93_1007)">
<path d="M23.785 2.445H8.215C7.105 2.445 6.205 3.385 6.205 4.555V27.445C6.205 28.605 7.105 29.555 8.215 29.555H23.785C24.895 29.555 25.795 28.615 25.795 27.445V4.555C25.795 3.395 24.895 2.445 23.785 2.445ZM15.775 6.285C15.105 6.285 14.555 5.715 14.555 5.005C14.555 4.295 15.105 3.725 15.775 3.725C16.445 3.725 16.995 4.295 16.995 5.005C16.995 5.715 16.445 6.285 15.775 6.285Z" fill="url(#paint0_linear_93_1007)"/>
<path d="M23.725 2.515H8.305C7.205 2.515 6.315 3.445 6.315 4.605V27.335C6.315 28.495 7.205 29.425 8.305 29.425H23.725C24.825 29.425 25.715 28.485 25.715 27.335V4.605C25.715 3.445 24.825 2.515 23.725 2.515ZM15.795 6.325C15.125 6.325 14.585 5.755 14.585 5.055C14.585 4.355 15.125 3.785 15.795 3.785C16.465 3.785 17.005 4.355 17.005 5.055C17.005 5.755 16.465 6.325 15.795 6.325Z" fill="url(#paint1_linear_93_1007)"/>
<path d="M6.285 27.475C6.285 28.575 7.145 29.465 8.205 29.465H23.765C24.825 29.465 25.685 28.575 25.685 27.475V17.615H6.285V27.475Z" fill="#BC987A"/>
<path d="M23.735 2.575H8.305C7.205 2.575 6.315 3.465 6.315 4.565V5.475H14.625C14.555 5.305 14.525 5.135 14.525 4.965C14.525 4.265 15.095 3.705 15.785 3.705C16.475 3.705 17.045 4.275 17.045 4.965C17.045 5.145 17.005 5.315 16.945 5.465H25.715V4.575C25.715 3.475 24.825 2.585 23.725 2.585L23.735 2.575Z" fill="#BC987A"/>
<path d="M21.735 5.925L21.475 6.455H21.395L21.645 5.965H21.315V5.905H21.735V5.925Z" fill="#444549"/>
<path d="M21.835 6.435V6.365C21.835 6.365 21.935 6.405 21.985 6.405C22.035 6.405 22.065 6.405 22.095 6.375C22.125 6.345 22.135 6.325 22.135 6.295C22.135 6.225 22.075 6.185 21.955 6.185H21.905V6.135H21.955C22.065 6.135 22.115 6.105 22.115 6.035C22.115 5.975 22.075 5.945 21.995 5.945C21.945 5.945 21.905 5.955 21.865 5.985V5.925C21.865 5.925 21.955 5.895 22.015 5.895C22.075 5.895 22.115 5.905 22.145 5.935C22.175 5.965 22.195 5.995 22.195 6.025C22.195 6.095 22.155 6.145 22.065 6.165C22.065 6.165 22.155 6.185 22.175 6.205C22.205 6.225 22.215 6.255 22.215 6.295C22.215 6.345 22.195 6.385 22.155 6.415C22.115 6.445 22.055 6.465 21.985 6.465C21.925 6.465 21.875 6.465 21.835 6.435Z" fill="#444549"/>
<path d="M22.355 6.445V6.375C22.355 6.375 22.445 6.415 22.495 6.415C22.545 6.415 22.575 6.405 22.605 6.385C22.635 6.365 22.645 6.335 22.645 6.295C22.645 6.255 22.625 6.235 22.605 6.215C22.575 6.195 22.535 6.185 22.485 6.185C22.465 6.185 22.435 6.185 22.385 6.185V5.905H22.705V5.965H22.455V6.125C22.455 6.125 22.495 6.125 22.515 6.125C22.585 6.125 22.635 6.135 22.675 6.165C22.715 6.195 22.735 6.235 22.735 6.285C22.735 6.335 22.715 6.385 22.675 6.415C22.635 6.445 22.575 6.465 22.505 6.465C22.445 6.465 22.395 6.465 22.365 6.445H22.355Z" fill="#444549"/>
<path d="M22.865 6.445V6.375C22.865 6.375 22.955 6.415 23.005 6.415C23.055 6.415 23.085 6.405 23.115 6.385C23.145 6.365 23.155 6.335 23.155 6.295C23.155 6.255 23.135 6.235 23.115 6.215C23.085 6.195 23.045 6.185 22.995 6.185C22.975 6.185 22.945 6.185 22.895 6.185V5.905H23.215V5.965H22.965V6.125C22.965 6.125 23.005 6.125 23.025 6.125C23.095 6.125 23.145 6.135 23.185 6.165C23.225 6.195 23.245 6.235 23.245 6.285C23.245 6.335 23.225 6.385 23.185 6.415C23.145 6.445 23.085 6.465 23.015 6.465C22.955 6.465 22.905 6.465 22.875 6.445H22.865Z" fill="#444549"/>
<path d="M23.725 5.915V5.975C23.725 5.975 23.655 5.955 23.615 5.955C23.555 5.955 23.505 5.975 23.475 6.025C23.445 6.065 23.425 6.125 23.425 6.195C23.455 6.145 23.505 6.115 23.575 6.115C23.635 6.115 23.675 6.135 23.715 6.165C23.755 6.195 23.765 6.235 23.765 6.285C23.765 6.335 23.745 6.385 23.705 6.415C23.665 6.445 23.615 6.465 23.555 6.465C23.485 6.465 23.435 6.445 23.395 6.395C23.355 6.345 23.335 6.285 23.335 6.205C23.335 6.105 23.355 6.035 23.405 5.975C23.455 5.915 23.515 5.885 23.605 5.885C23.655 5.885 23.685 5.885 23.715 5.905L23.725 5.915ZM23.565 6.165C23.565 6.165 23.495 6.175 23.475 6.195C23.455 6.215 23.435 6.245 23.435 6.275C23.435 6.315 23.445 6.345 23.475 6.375C23.505 6.405 23.535 6.415 23.575 6.415C23.615 6.415 23.645 6.405 23.665 6.385C23.685 6.365 23.695 6.335 23.695 6.295C23.695 6.255 23.685 6.225 23.665 6.205C23.645 6.185 23.615 6.175 23.575 6.175L23.565 6.165Z" fill="#444549"/>
<path d="M24.055 6.465C23.985 6.465 23.935 6.445 23.905 6.395C23.875 6.345 23.845 6.285 23.845 6.195C23.845 6.095 23.865 6.025 23.905 5.975C23.945 5.925 23.995 5.895 24.075 5.895C24.215 5.895 24.285 5.985 24.285 6.175C24.285 6.265 24.265 6.335 24.225 6.385C24.185 6.435 24.135 6.455 24.065 6.455L24.055 6.465ZM24.065 5.945C23.975 5.945 23.925 6.025 23.925 6.185C23.925 6.335 23.975 6.405 24.065 6.405C24.155 6.405 24.205 6.325 24.205 6.175C24.205 6.025 24.165 5.935 24.075 5.935L24.065 5.945Z" fill="#444549"/>
<path d="M24.495 6.165C24.415 6.135 24.375 6.085 24.375 6.025C24.375 5.985 24.395 5.955 24.425 5.925C24.465 5.895 24.505 5.885 24.565 5.885C24.615 5.885 24.655 5.895 24.695 5.925C24.725 5.945 24.745 5.975 24.745 6.015C24.745 6.075 24.705 6.125 24.625 6.155C24.725 6.185 24.765 6.235 24.765 6.305C24.765 6.355 24.745 6.385 24.705 6.415C24.665 6.445 24.615 6.455 24.545 6.455C24.485 6.455 24.445 6.445 24.405 6.415C24.365 6.385 24.355 6.355 24.355 6.315C24.355 6.245 24.405 6.195 24.495 6.165ZM24.555 6.195C24.475 6.225 24.425 6.265 24.425 6.315C24.425 6.345 24.435 6.365 24.465 6.385C24.485 6.405 24.525 6.415 24.565 6.415C24.605 6.415 24.635 6.415 24.655 6.385C24.675 6.365 24.695 6.345 24.695 6.315C24.695 6.255 24.645 6.215 24.555 6.195ZM24.665 6.025C24.665 6.025 24.665 5.975 24.635 5.965C24.615 5.955 24.595 5.945 24.555 5.945C24.525 5.945 24.495 5.945 24.475 5.965C24.455 5.985 24.445 5.995 24.445 6.025C24.445 6.075 24.485 6.105 24.555 6.135C24.625 6.115 24.665 6.075 24.665 6.025Z" fill="#444549"/>
<path d="M20.585 29.215H22.085L22.995 27.335H21.495L20.585 29.215Z" fill="#F1E9DE"/>
<path d="M9.10501 29.215H9.49501L10.395 27.335H10.005L9.10501 29.215Z" fill="#F1E9DE"/>
<path d="M14.215 29.215H14.405L15.315 27.335H15.115L14.215 29.215Z" fill="#F1E9DE"/>
<path d="M13.835 29.215H14.035L14.935 27.335H14.745L13.835 29.215Z" fill="#F1E9DE"/>
<path d="M12.525 29.215H12.715L13.615 27.335H13.425L12.525 29.215Z" fill="#F1E9DE"/>
<path d="M25.515 27.335H24.735L23.835 29.195C24.745 29.075 25.455 28.295 25.505 27.335H25.515Z" fill="#F1E9DE"/>
<path d="M7.77501 29.125L8.63501 27.335H7.14501L6.69501 28.275C6.94501 28.685 7.32501 28.995 7.77501 29.135V29.125Z" fill="#F1E9DE"/>
<path d="M17.945 29.215H19.435L20.345 27.335H18.845L17.945 29.215Z" fill="#F1E9DE"/>
<path d="M15.055 29.215H17.595L18.495 27.335H15.965L15.055 29.215Z" fill="#F1E9DE"/>
<path d="M24.615 15.465H24.445V17.365H24.615V15.465Z" fill="#444549"/>
<path d="M24.195 15.465H24.025V17.365H24.195V15.465Z" fill="#444549"/>
<path d="M23.755 15.465H23.585V17.365H23.755V15.465Z" fill="#444549"/>
<path d="M12.985 3.885C12.985 3.885 12.965 3.865 12.965 3.855C12.965 3.855 12.945 3.835 12.935 3.835C12.935 3.835 12.915 3.825 12.905 3.815C12.905 3.815 12.955 3.795 12.975 3.785C12.995 3.775 13.015 3.755 13.025 3.745C13.035 3.725 13.045 3.705 13.055 3.685C13.055 3.665 13.065 3.645 13.065 3.615C13.065 3.585 13.065 3.555 13.045 3.535C13.035 3.515 13.015 3.495 12.995 3.475C12.975 3.455 12.955 3.445 12.925 3.435C12.895 3.435 12.865 3.425 12.835 3.425H12.615V4.145H12.695V3.835H12.765C12.765 3.835 12.795 3.835 12.805 3.835C12.815 3.835 12.825 3.845 12.845 3.855C12.855 3.855 12.865 3.875 12.875 3.885C12.885 3.895 12.895 3.915 12.905 3.935L13.025 4.135H13.125L12.985 3.915C12.985 3.915 12.965 3.885 12.955 3.875L12.985 3.885ZM12.885 3.755C12.885 3.755 12.845 3.755 12.825 3.755H12.715V3.495H12.835C12.835 3.495 12.915 3.505 12.945 3.525C12.975 3.545 12.985 3.575 12.985 3.615C12.985 3.635 12.985 3.655 12.975 3.675C12.975 3.695 12.955 3.705 12.945 3.715C12.935 3.725 12.915 3.735 12.895 3.745L12.885 3.755Z" fill="#515153"/>
<path d="M11.295 3.815H11.555V3.735H11.295V3.495H11.575V3.425H11.205V4.145H11.595V4.065H11.295V3.815Z" fill="#515153"/>
<path d="M9.69501 3.495H9.90501V4.145H9.98501V3.495H10.195V3.425H9.69501V3.495Z" fill="#515153"/>
<path d="M8.595 3.935C8.595 3.985 8.595 4.025 8.595 4.045C8.595 4.045 8.585 4.025 8.565 3.995L8.205 3.425H8.095V4.145H8.175V3.625C8.175 3.575 8.175 3.545 8.175 3.525C8.175 3.525 8.185 3.555 8.195 3.575L8.565 4.155H8.665V3.435H8.585V3.945L8.595 3.935Z" fill="#515153"/>
<path d="M15.985 3.705L16.035 3.555C16.035 3.555 16.035 3.525 16.045 3.505C16.045 3.505 16.045 3.545 16.055 3.555L16.125 3.755C16.125 3.755 16.195 3.785 16.235 3.795L16.095 3.415H16.005L15.905 3.685C15.905 3.685 15.955 3.685 15.985 3.705Z" fill="#515153"/>
<path d="M7.005 3.425H6.925V4.145H7.005V3.425Z" fill="#515153"/>
<path d="M20.225 3.405C20.115 3.405 20.035 3.435 19.965 3.505C19.905 3.575 19.875 3.665 19.875 3.785C19.875 3.895 19.905 3.985 19.965 4.045C20.025 4.115 20.105 4.145 20.215 4.145C20.325 4.145 20.405 4.115 20.465 4.045C20.525 3.975 20.555 3.885 20.555 3.765C20.555 3.655 20.525 3.565 20.465 3.505C20.405 3.435 20.325 3.405 20.225 3.405ZM20.405 3.995C20.355 4.045 20.295 4.075 20.215 4.075C20.145 4.075 20.085 4.045 20.035 3.995C19.985 3.945 19.965 3.865 19.965 3.775C19.965 3.685 19.985 3.615 20.035 3.555C20.085 3.505 20.145 3.475 20.225 3.475C20.305 3.475 20.365 3.505 20.405 3.555C20.445 3.605 20.475 3.685 20.475 3.775C20.475 3.865 20.455 3.945 20.405 3.995Z" fill="#515153"/>
<path d="M23.465 3.425L23.185 4.145H23.275L23.345 3.945H23.655L23.735 4.145H23.825L23.545 3.425H23.455H23.465ZM23.385 3.865L23.495 3.555C23.495 3.555 23.495 3.525 23.505 3.505C23.505 3.505 23.505 3.545 23.515 3.555L23.625 3.865H23.375H23.385Z" fill="#515153"/>
<path d="M24.915 4.065V3.425H24.835V4.145H25.205V4.065H24.915Z" fill="#515153"/>
<path d="M22.095 3.935C22.095 3.985 22.095 4.025 22.095 4.045C22.095 4.045 22.085 4.025 22.065 3.995L21.705 3.425H21.595V4.145H21.675V3.625C21.675 3.575 21.675 3.545 21.675 3.525C21.675 3.525 21.685 3.555 21.695 3.575L22.065 4.155H22.165V3.435H22.085V3.945L22.095 3.935Z" fill="#515153"/>
<path d="M18.825 3.425H18.745V4.145H18.825V3.425Z" fill="#515153"/>
<path d="M14.255 3.565L14.625 4.145H14.725V3.425H14.645V3.935C14.645 3.985 14.645 4.025 14.645 4.045C14.645 4.045 14.635 4.025 14.615 3.995L14.255 3.425H14.145V4.145H14.225V3.625C14.225 3.575 14.225 3.545 14.225 3.525C14.225 3.525 14.235 3.555 14.245 3.575L14.255 3.565Z" fill="#515153"/>
<path d="M17.235 3.495H17.445V4.145H17.525V3.495H17.735V3.425H17.235V3.495Z" fill="#515153"/>
<path d="M15.785 3.765C15.085 3.765 14.525 4.335 14.525 5.045C14.525 5.755 15.095 6.325 15.785 6.325C16.475 6.325 17.045 5.755 17.045 5.045C17.045 4.335 16.475 3.765 15.785 3.765ZM15.785 6.255C15.115 6.255 14.575 5.705 14.575 5.035C14.575 4.365 15.115 3.815 15.785 3.815C16.455 3.815 16.995 4.365 16.995 5.035C16.995 5.705 16.455 6.255 15.785 6.255Z" fill="url(#paint2_linear_93_1007)"/>
<path d="M10.695 24.505L10.185 22.435L10.205 26.575H9.045V19.665H10.365L11.135 22.425L11.895 19.665H13.185V26.575L12.075 26.605L12.035 22.545L11.535 24.505H10.695Z" fill="#F1E9DE"/>
<path d="M17.205 26.585L16.965 24.945H15.645L15.365 26.585H14.105L15.425 19.675H17.195L18.525 26.585H17.205ZM16.775 23.745L16.345 20.835L15.845 23.745H16.775Z" fill="#F1E9DE"/>
<path d="M19.395 26.585V19.675H21.355C21.945 19.675 22.415 19.825 22.745 20.135C23.085 20.445 23.245 20.915 23.245 21.545V22.635C23.245 23.255 23.085 23.715 22.755 24.005C22.425 24.295 21.965 24.435 21.355 24.435H20.745V26.585H19.385H19.395ZM20.755 23.255H21.275C21.465 23.255 21.605 23.205 21.695 23.095C21.785 22.985 21.835 22.785 21.835 22.485V21.675C21.835 21.365 21.785 21.155 21.695 21.035C21.605 20.925 21.465 20.865 21.275 20.865H20.755V23.255Z" fill="#F1E9DE"/>
<path d="M9.345 19.365C9.225 19.365 9.145 19.335 9.085 19.275C9.025 19.215 8.995 19.125 8.995 19.015V18.665C8.995 18.545 9.025 18.455 9.085 18.405C9.145 18.345 9.235 18.315 9.345 18.315C9.455 18.315 9.545 18.345 9.595 18.405C9.645 18.465 9.675 18.555 9.685 18.685H9.445C9.445 18.615 9.435 18.555 9.425 18.535C9.415 18.515 9.385 18.495 9.345 18.495C9.305 18.495 9.275 18.515 9.265 18.535C9.245 18.565 9.245 18.615 9.245 18.695V19.005C9.245 19.075 9.245 19.125 9.265 19.155C9.285 19.185 9.305 19.195 9.345 19.195C9.385 19.195 9.405 19.185 9.425 19.155C9.435 19.125 9.445 19.075 9.455 18.995H9.695C9.695 19.135 9.665 19.225 9.605 19.285C9.545 19.345 9.465 19.375 9.355 19.375L9.345 19.365Z" fill="#F1E9DE"/>
<path d="M10.965 19.365C10.855 19.365 10.775 19.335 10.725 19.275C10.665 19.215 10.645 19.135 10.645 19.025V18.655C10.645 18.545 10.675 18.465 10.735 18.405C10.795 18.345 10.875 18.315 10.975 18.315C11.075 18.315 11.165 18.345 11.215 18.405C11.275 18.465 11.295 18.545 11.295 18.655V19.025C11.295 19.135 11.265 19.215 11.205 19.275C11.145 19.335 11.065 19.365 10.965 19.365ZM10.965 19.185C10.965 19.185 11.025 19.175 11.035 19.145C11.045 19.115 11.055 19.075 11.055 19.005V18.675C11.055 18.605 11.055 18.555 11.035 18.525C11.015 18.495 10.995 18.485 10.965 18.485C10.935 18.485 10.905 18.495 10.895 18.525C10.885 18.555 10.875 18.595 10.875 18.675V19.005C10.875 19.075 10.875 19.125 10.895 19.145C10.915 19.165 10.935 19.185 10.965 19.185Z" fill="#F1E9DE"/>
<path d="M12.545 19.045L12.455 18.685L12.485 19.345H12.275V18.315H12.485L12.615 18.785L12.745 18.315H12.955V19.345H12.745L12.775 18.695L12.695 19.035H12.555L12.545 19.045Z" fill="#F1E9DE"/>
<path d="M14.185 19.045L14.095 18.685L14.125 19.345H13.915V18.315H14.125L14.255 18.785L14.385 18.315H14.595V19.345H14.385L14.415 18.695L14.335 19.035H14.195L14.185 19.045Z" fill="#F1E9DE"/>
<path d="M15.905 19.365C15.795 19.365 15.705 19.335 15.655 19.275C15.605 19.215 15.575 19.125 15.575 18.995V18.325H15.815V18.995C15.815 19.065 15.815 19.115 15.835 19.145C15.845 19.175 15.875 19.185 15.905 19.185C15.935 19.185 15.965 19.175 15.975 19.145C15.985 19.125 15.995 19.075 15.995 18.995V18.325H16.235V18.995C16.235 19.125 16.205 19.215 16.155 19.275C16.105 19.335 16.015 19.365 15.905 19.365Z" fill="#F1E9DE"/>
<path d="M17.615 19.345L17.425 18.645V19.345H17.225V18.315H17.475L17.685 19.045V18.315H17.885V19.345H17.615Z" fill="#F1E9DE"/>
<path d="M18.865 19.345V19.165H19.075V18.495H18.865V18.315H19.535V18.495H19.325V19.165H19.535V19.345H18.865Z" fill="#F1E9DE"/>
<path d="M20.725 19.345V18.495H20.485V18.315H21.195V18.495H20.965V19.345H20.725Z" fill="#F1E9DE"/>
<path d="M22.605 19.345H22.365V18.965L22.115 18.325H22.345L22.485 18.725L22.625 18.325H22.855L22.605 18.965V19.345Z" fill="#F1E9DE"/>
<path d="M24.445 11.445C24.355 11.415 24.255 11.395 24.155 11.395C24.045 11.395 23.925 11.425 23.815 11.455C23.715 11.475 23.665 11.455 23.625 11.355C23.505 11.055 23.375 10.755 23.245 10.455C23.105 10.125 22.975 9.795 22.655 9.595C22.575 9.545 22.445 9.505 22.365 9.535C22.265 9.575 22.185 9.585 22.095 9.555C22.005 9.525 21.955 9.555 21.935 9.645C21.855 9.945 21.755 10.245 21.725 10.555C21.685 10.975 21.695 11.405 21.695 11.835C21.695 11.925 21.675 11.985 21.585 12.035C21.535 12.055 21.485 12.145 21.475 12.205C21.475 12.255 21.545 12.305 21.585 12.355C21.625 12.395 21.695 12.425 21.705 12.465C21.735 12.685 21.755 12.915 21.785 13.145C21.775 13.155 21.765 13.165 21.745 13.185C21.585 13.135 21.425 13.085 21.275 13.025C20.855 12.855 20.445 12.675 20.035 12.485C19.745 12.355 19.465 12.225 19.185 12.085C19.055 12.015 19.055 11.975 19.175 11.895C19.325 11.785 19.485 11.675 19.635 11.555C19.935 11.325 20.215 11.085 20.385 10.735C20.545 10.395 20.385 10.145 20.075 10.085C19.765 10.025 19.445 10.005 19.135 9.995C18.835 9.995 18.535 10.035 18.255 10.165C18.165 10.205 18.035 10.235 17.975 10.105C17.925 10.005 17.855 9.965 17.775 9.965C17.625 9.965 17.465 9.945 17.315 9.995C16.845 10.135 16.375 10.295 15.905 10.445C15.845 10.465 15.785 10.475 15.735 10.485C15.715 10.415 15.725 10.335 15.695 10.315C15.545 10.205 15.415 10.035 15.195 10.145C15.165 10.165 15.115 10.145 15.075 10.145C14.955 10.135 14.885 10.195 14.875 10.305C14.845 10.485 14.805 10.665 14.805 10.845C14.805 11.005 14.725 11.085 14.595 11.145C14.535 10.925 14.495 10.905 14.245 10.935C14.155 10.945 14.055 10.935 13.965 10.955C13.855 10.965 13.815 10.925 13.805 10.825C13.785 10.575 13.755 10.315 13.725 10.065C13.705 9.845 13.685 9.625 13.435 9.545C13.375 9.525 13.305 9.515 13.235 9.515C13.165 9.515 13.095 9.545 13.035 9.555C12.825 9.575 12.785 9.635 12.815 9.845C12.885 10.285 12.935 10.715 12.995 11.155C12.995 11.195 12.975 11.265 12.945 11.275C12.735 11.395 12.525 11.495 12.315 11.605C12.255 11.635 12.205 11.635 12.185 11.545C12.125 11.195 12.065 10.845 12.015 10.485C11.995 10.355 12.005 10.225 11.985 10.085C11.985 10.045 11.945 9.995 11.915 9.975C11.765 9.865 11.595 9.855 11.405 9.895C11.185 9.945 11.155 9.965 11.165 10.195C11.165 10.265 11.165 10.345 11.185 10.415C11.295 11.035 11.425 11.655 11.525 12.275C11.625 12.845 11.695 13.405 11.785 13.975C11.795 14.065 11.825 14.155 11.865 14.235C11.885 14.265 11.935 14.305 11.975 14.305C12.085 14.305 12.205 14.295 12.315 14.295C12.455 14.295 12.605 14.145 12.585 14.005C12.505 13.405 12.435 12.815 12.355 12.225C12.355 12.155 12.355 12.115 12.435 12.085C12.605 12.015 12.775 11.935 12.945 11.855C13.095 11.785 13.105 11.795 13.145 11.955C13.245 12.465 13.355 12.975 13.455 13.485C13.475 13.605 13.525 13.715 13.575 13.825C13.595 13.875 13.665 13.925 13.715 13.925C13.835 13.925 13.955 13.885 14.065 13.865C14.105 13.855 14.175 13.835 14.185 13.805C14.215 13.705 14.255 13.585 14.225 13.485C14.045 12.855 13.995 12.205 13.935 11.565C13.935 11.515 13.965 11.445 14.005 11.425C14.125 11.355 14.255 11.315 14.385 11.265C14.415 11.255 14.485 11.265 14.485 11.265C14.495 11.395 14.625 11.405 14.695 11.475C14.735 11.505 14.765 11.565 14.765 11.615C14.805 11.925 14.825 12.235 14.865 12.545C14.925 12.925 14.985 13.315 15.085 13.685C15.175 14.015 15.525 14.385 15.995 14.225C16.035 14.215 16.085 14.205 16.125 14.205C16.355 14.215 16.565 14.135 16.765 14.025C16.955 13.915 17.135 13.805 17.315 13.685C17.545 13.525 17.775 13.365 17.915 13.125C17.975 13.025 17.945 12.925 17.845 12.905C17.685 12.875 17.515 12.835 17.375 12.985C17.325 13.035 17.275 13.075 17.215 13.105C16.885 13.315 16.545 13.535 16.205 13.745C16.065 13.825 16.015 13.805 15.925 13.665C15.905 13.635 15.875 13.595 15.865 13.565C15.795 13.235 15.725 12.905 15.655 12.565C15.645 12.505 15.665 12.465 15.745 12.445C15.885 12.425 16.035 12.395 16.175 12.355C16.585 12.255 17.005 12.195 17.365 11.965C17.445 11.915 17.505 11.815 17.545 11.725C17.575 11.655 17.545 11.585 17.455 11.575C17.245 11.555 17.045 11.555 16.835 11.635C16.485 11.785 16.105 11.875 15.745 11.985C15.655 12.015 15.605 11.975 15.595 11.875C15.595 11.695 15.565 11.505 15.565 11.325C15.565 11.265 15.625 11.185 15.675 11.155C15.945 11.025 16.215 10.905 16.495 10.785C16.735 10.685 16.985 10.595 17.235 10.505C17.435 10.435 17.635 10.365 17.845 10.285C17.875 10.465 17.925 10.625 17.925 10.785C17.905 11.305 18.005 11.815 18.125 12.315C18.255 12.905 18.385 13.485 18.515 14.075C18.565 14.275 18.565 14.275 18.775 14.245C18.805 14.245 18.845 14.245 18.875 14.245C19.175 14.265 19.315 14.085 19.255 13.805C19.185 13.515 19.135 13.225 19.075 12.935C19.075 12.895 19.075 12.855 19.075 12.795C19.145 12.815 19.185 12.825 19.235 12.845C19.775 13.065 20.315 13.285 20.855 13.505C21.125 13.615 21.405 13.665 21.685 13.535C21.785 13.485 21.835 13.515 21.875 13.615C21.925 13.745 22.025 13.785 22.165 13.755C22.265 13.735 22.375 13.725 22.475 13.685C22.545 13.655 22.635 13.575 22.635 13.515C22.635 13.355 22.585 13.195 22.555 13.035C22.525 12.865 22.505 12.685 22.485 12.515C22.465 12.345 22.485 12.315 22.655 12.275C22.755 12.245 22.865 12.235 22.965 12.195C23.075 12.155 23.135 12.195 23.165 12.305C23.255 12.625 23.335 12.945 23.435 13.255C23.495 13.445 23.565 13.645 23.655 13.825C23.745 14.005 23.885 14.025 24.055 13.915C24.115 13.875 24.195 13.855 24.265 13.835C24.415 13.795 24.425 13.765 24.345 13.625C24.255 13.475 24.165 13.315 24.115 13.145C24.025 12.835 23.975 12.515 23.895 12.205C23.845 12.005 23.835 12.005 24.015 11.915C24.095 11.875 24.175 11.855 24.245 11.815C24.315 11.775 24.395 11.715 24.455 11.655C24.515 11.585 24.515 11.495 24.415 11.465L24.445 11.445ZM12.405 14.065C12.305 13.965 12.135 12.775 12.155 12.435C12.175 12.435 12.185 12.435 12.205 12.435C12.275 12.975 12.335 13.515 12.405 14.075V14.065ZM14.125 13.525C14.125 13.525 14.085 13.525 14.075 13.535C14.005 13.235 13.945 12.945 13.875 12.645H13.915C13.985 12.935 14.055 13.225 14.125 13.525ZM18.925 11.285C18.855 11.335 18.815 11.295 18.805 11.225C18.795 11.135 18.785 11.055 18.775 10.975C18.775 10.935 18.775 10.915 18.775 10.895C18.825 10.395 19.095 10.295 19.545 10.405C19.635 10.425 19.655 10.475 19.605 10.555C19.425 10.845 19.185 11.085 18.905 11.285H18.925ZM22.805 11.675C22.495 11.755 22.485 11.745 22.485 11.435C22.485 11.265 22.505 11.095 22.515 10.925C22.535 10.925 22.545 10.925 22.565 10.915C22.595 10.955 22.625 10.985 22.645 11.025C22.725 11.195 22.805 11.365 22.885 11.535C22.925 11.625 22.895 11.655 22.805 11.685V11.675ZM23.355 11.125C23.385 11.205 23.425 11.285 23.475 11.395C23.4017 11.3683 23.3617 11.2783 23.355 11.125ZM24.045 13.385C24.015 13.255 23.985 13.125 23.955 12.995C23.995 13.125 24.045 13.245 24.085 13.375C24.065 13.375 24.055 13.375 24.035 13.385H24.045ZM23.955 12.965C23.925 12.855 23.895 12.755 23.865 12.645C23.815 12.465 23.765 12.285 23.735 12.095C23.845 12.375 23.935 12.665 23.965 12.965H23.955ZM23.735 11.675C23.845 11.645 23.955 11.625 24.075 11.595C24.075 11.605 24.075 11.625 24.085 11.635C23.985 11.715 23.865 11.705 23.735 11.675ZM23.985 11.545C23.985 11.545 23.985 11.515 23.985 11.495C24.055 11.485 24.125 11.475 24.185 11.465V11.535C24.125 11.535 24.055 11.545 23.985 11.555V11.545Z" fill="black"/>
<path d="M9.40501 12.625C9.46501 12.865 9.52501 13.115 9.58501 13.355C9.59501 13.355 9.61501 13.355 9.62501 13.355C9.62501 13.335 9.63501 13.315 9.62501 13.295C9.60501 13.175 9.58501 13.065 9.56501 12.945C9.54501 12.795 9.55501 12.645 9.53501 12.495C9.47501 11.965 9.41501 11.435 9.35501 10.905C9.32501 10.645 9.33501 10.645 9.57501 10.555C10.155 10.345 10.715 10.085 11.245 9.755C11.295 9.715 11.335 9.645 11.375 9.595C11.315 9.555 11.245 9.475 11.185 9.475C10.995 9.475 10.795 9.475 10.625 9.535C10.205 9.695 9.79501 9.885 9.38501 10.065C9.29501 10.105 9.21501 10.135 9.12501 10.065C9.09501 10.045 9.04501 10.055 9.00501 10.065C8.93501 10.085 8.86501 10.115 8.79501 10.145C8.69501 10.175 8.60501 10.225 8.59501 10.345C8.59501 10.365 8.56501 10.405 8.54501 10.415C8.24501 10.535 7.93501 10.645 7.62501 10.755C7.49501 10.795 7.38501 10.885 7.36501 11.035C7.47501 11.035 7.57501 11.045 7.67501 11.035C7.94501 10.995 8.21501 10.955 8.48501 10.895C8.59501 10.875 8.63501 10.895 8.64501 11.005C8.65501 11.185 8.69501 11.355 8.70501 11.535C8.72501 11.865 8.78501 12.185 8.92501 12.495C8.97501 12.615 9.00501 12.745 9.04501 12.875C9.11501 13.115 9.16501 13.365 9.24501 13.595C9.32501 13.815 9.43501 14.035 9.52501 14.245C9.56501 14.335 9.63501 14.365 9.76501 14.355C9.58501 13.785 9.41501 13.225 9.34501 12.635C9.36501 12.635 9.38501 12.635 9.39501 12.625H9.40501Z" fill="black"/>
<path d="M9.84501 14.125C9.84501 14.125 9.87501 14.125 9.88501 14.115C9.85501 13.985 9.81501 13.855 9.78501 13.735C9.73501 13.885 9.65501 14.035 9.83501 14.135L9.84501 14.125Z" fill="black"/>
<path d="M23.585 13.925L8.495 15.605C7.415 15.775 6.545 16.545 6.545 17.305V20.725L7.465 20.985C7.745 21.065 7.985 21.345 8.015 21.625L8.145 23.055C8.165 23.225 8.335 23.345 8.495 23.285C9.005 23.095 9.625 22.945 10.385 22.945C11.585 22.945 11.885 22.035 12.325 21.705C13.045 21.155 18.345 20.335 20.095 21.565C21.455 22.515 22.035 22.655 23.365 22.765C24.195 22.835 24.925 22.875 25.535 22.915V15.005C25.535 14.245 24.665 13.765 23.585 13.935V13.925Z" fill="url(#paint3_linear_93_1007)"/>
</g>
<defs>
<linearGradient id="paint0_linear_93_1007" x1="25.155" y1="2.975" x2="6.845" y2="29.025" gradientUnits="userSpaceOnUse">
<stop stop-color="#FDFAF1"/>
<stop offset="1" stop-color="#A29885"/>
</linearGradient>
<linearGradient id="paint1_linear_93_1007" x1="25.095" y1="3.045" x2="6.935" y2="28.895" gradientUnits="userSpaceOnUse">
<stop stop-color="#F8F3EB"/>
<stop offset="1" stop-color="#EDE2D5"/>
</linearGradient>
<linearGradient id="paint2_linear_93_1007" x1="14.985" y1="6.355" x2="16.595" y2="3.715" gradientUnits="userSpaceOnUse">
<stop stop-color="#FDFAF1"/>
<stop offset="1" stop-color="#A29885"/>
</linearGradient>
<linearGradient id="paint3_linear_93_1007" x1="16.035" y1="23.545" x2="16.035" y2="17.235" gradientUnits="userSpaceOnUse">
<stop stop-color="#FFFCF3" stop-opacity="0.5"/>
<stop offset="1" stop-color="#FFEDD0" stop-opacity="0"/>
</linearGradient>
<clipPath id="clip0_93_1007">
<rect width="19.59" height="27.11" fill="white" transform="translate(6.205 2.445)"/>
</clipPath>
</defs>
</svg>
