<svg width="32" height="32" viewBox="0 0 32 32" fill="none" xmlns="http://www.w3.org/2000/svg">
<g clip-path="url(#clip0_111_559)">
<path d="M23.4038 2.5H7.98781C6.88906 2.5 6 3.42962 6 4.58537V27.2146C6 28.362 6.88906 29.3 7.98781 29.3H23.4038C24.5026 29.3 25.3916 28.3704 25.3916 27.2146V4.58537C25.3916 3.438 24.5026 2.5 23.4038 2.5ZM15.4777 6.29388C14.8067 6.29388 14.27 5.72437 14.27 5.02925C14.27 4.33412 14.8151 3.76462 15.4777 3.76462C16.1403 3.76462 16.6855 4.33412 16.6855 5.02925C16.6855 5.72437 16.1403 6.29388 15.4777 6.29388Z" fill="url(#paint0_linear_111_559)"/>
<path d="M23.3535 2.567H8.08007C6.98971 2.567 6.10904 3.48825 6.10904 4.63563V27.1141C6.10904 28.2531 6.98971 29.1828 8.08007 29.1828H23.3535C24.4438 29.1828 25.3245 28.2531 25.3245 27.1141V4.63563C25.3245 3.49663 24.4438 2.567 23.3535 2.567ZM15.4945 6.33575C14.8319 6.33575 14.2951 5.77463 14.2951 5.0795C14.2951 4.38438 14.8319 3.82325 15.4945 3.82325C16.1571 3.82325 16.6939 4.38438 16.6939 5.0795C16.6939 5.77463 16.1571 6.33575 15.4945 6.33575Z" fill="url(#paint1_linear_111_559)"/>
<path d="M6.07549 27.2398C6.07549 28.3285 6.931 29.2079 7.97942 29.2079H23.387C24.4354 29.2079 25.291 28.3285 25.291 27.2398V17.4912H6.07549V27.2398Z" fill="#848484"/>
<path d="M23.3535 2.62563H8.08007C6.98971 2.62563 6.10904 3.51338 6.10904 4.60213V5.49825L14.3371 5.4815C14.27 5.33075 14.2364 5.16325 14.2364 4.98738C14.2364 4.30063 14.7984 3.7395 15.4861 3.7395C16.1739 3.7395 16.7358 4.30063 16.7358 4.98738C16.7358 5.16325 16.7023 5.33075 16.6352 5.4815L25.3245 5.49825V4.60213C25.3245 3.51338 24.4438 2.634 23.3535 2.634V2.62563Z" fill="#848484"/>
<path d="M21.3741 5.94225L21.1141 6.46987H21.0386L21.2818 5.98412H20.9547V5.9255H21.3741V5.94225Z" fill="#434549"/>
<path d="M21.4747 6.44469V6.37769C21.5167 6.41119 21.567 6.41956 21.6257 6.41956C21.6676 6.41956 21.7096 6.41119 21.7347 6.39444C21.7599 6.37769 21.7767 6.35256 21.7767 6.31906C21.7767 6.25206 21.718 6.21019 21.5921 6.21019H21.5418V6.15994H21.5921C21.7012 6.15994 21.7515 6.12644 21.7515 6.05944C21.7515 6.00081 21.7096 5.96731 21.6257 5.96731C21.5838 5.96731 21.5334 5.98406 21.4915 6.00919V5.95056C21.4915 5.95056 21.5838 5.91706 21.6425 5.91706C21.7012 5.91706 21.7431 5.92544 21.7767 5.95056C21.8102 5.97569 21.827 6.00919 21.827 6.04269C21.827 6.11806 21.7851 6.15994 21.6928 6.18506C21.7431 6.18506 21.7767 6.20181 21.8018 6.22694C21.827 6.25206 21.8438 6.27719 21.8438 6.31906C21.8438 6.36931 21.827 6.41119 21.7767 6.43631C21.7347 6.46981 21.676 6.47819 21.6089 6.47819C21.5502 6.47819 21.4999 6.46981 21.4579 6.45306L21.4747 6.44469Z" fill="#434549"/>
<path d="M21.9947 6.453V6.386C22.0367 6.41112 22.087 6.4195 22.1289 6.4195C22.1709 6.4195 22.2128 6.41112 22.238 6.386C22.2631 6.36087 22.2799 6.33575 22.2799 6.30225C22.2799 6.26875 22.2631 6.23525 22.238 6.2185C22.2128 6.20175 22.1709 6.185 22.1122 6.185C22.0954 6.185 22.0618 6.185 22.0115 6.185V5.90862H22.3302V5.96725H22.087V6.12637C22.087 6.12637 22.1289 6.12637 22.1457 6.12637C22.2128 6.12637 22.2715 6.14312 22.3051 6.16825C22.3386 6.20175 22.3638 6.23525 22.3638 6.2855C22.3638 6.33575 22.347 6.37762 22.3051 6.41112C22.2631 6.44462 22.2044 6.46137 22.1373 6.46137C22.0786 6.46137 22.0283 6.46137 22.0031 6.43625L21.9947 6.453Z" fill="#434549"/>
<path d="M22.498 6.453V6.386C22.5399 6.41112 22.5902 6.4195 22.6322 6.4195C22.6741 6.4195 22.716 6.41112 22.7412 6.386C22.7664 6.36087 22.7831 6.33575 22.7831 6.30225C22.7831 6.26875 22.7664 6.23525 22.7412 6.2185C22.716 6.20175 22.6741 6.185 22.6154 6.185C22.5986 6.185 22.5651 6.185 22.5147 6.185V5.90862H22.8335V5.96725H22.5902V6.12637C22.5902 6.12637 22.6322 6.12637 22.6489 6.12637C22.716 6.12637 22.7748 6.14312 22.8083 6.16825C22.8419 6.20175 22.867 6.23525 22.867 6.2855C22.867 6.33575 22.8502 6.37762 22.8083 6.41112C22.7664 6.44462 22.7077 6.46137 22.6406 6.46137C22.5818 6.46137 22.5315 6.46137 22.5064 6.43625L22.498 6.453Z" fill="#434549"/>
<path d="M23.3451 5.92544V5.98406C23.3451 5.98406 23.278 5.95894 23.2361 5.95894C23.1774 5.95894 23.1354 5.98406 23.0935 6.02594C23.0599 6.06781 23.0432 6.12644 23.0432 6.20181C23.0767 6.15156 23.127 6.12644 23.1941 6.12644C23.2528 6.12644 23.2948 6.14319 23.3283 6.16831C23.3619 6.20181 23.3786 6.23531 23.3786 6.29394C23.3786 6.35256 23.3619 6.39444 23.3199 6.42794C23.278 6.46144 23.2361 6.47819 23.1774 6.47819C23.1103 6.47819 23.0599 6.45306 23.0264 6.41119C22.9928 6.36931 22.9677 6.31069 22.9677 6.22694C22.9677 6.13481 22.9928 6.05106 23.0432 6.00081C23.0935 5.94219 23.1522 5.91706 23.2361 5.91706C23.278 5.91706 23.3199 5.91706 23.3451 5.93381V5.92544ZM23.1857 6.17669C23.1857 6.17669 23.1186 6.18506 23.0935 6.21019C23.0683 6.23531 23.0599 6.26044 23.0599 6.28556C23.0599 6.31906 23.0683 6.35256 23.0935 6.37769C23.1186 6.40281 23.1522 6.41956 23.1857 6.41956C23.2193 6.41956 23.2528 6.41119 23.278 6.38606C23.3032 6.36094 23.3115 6.33581 23.3115 6.30231C23.3115 6.26044 23.3032 6.23531 23.278 6.21019C23.2528 6.18506 23.2277 6.17669 23.1857 6.17669Z" fill="#434549"/>
<path d="M23.6722 6.46975C23.6051 6.46975 23.5548 6.44462 23.5212 6.40275C23.4877 6.3525 23.4709 6.2855 23.4709 6.20175C23.4709 6.10125 23.4877 6.03425 23.5296 5.984C23.5716 5.93375 23.6219 5.90862 23.6974 5.90862C23.8316 5.90862 23.8987 6.00075 23.8987 6.185C23.8987 6.27712 23.8819 6.34412 23.84 6.39437C23.798 6.44462 23.7477 6.46975 23.6806 6.46975H23.6722ZM23.6806 5.95887C23.5883 5.95887 23.538 6.03425 23.538 6.19337C23.538 6.34412 23.58 6.41112 23.6722 6.41112C23.7645 6.41112 23.8064 6.33575 23.8064 6.185C23.8064 6.03425 23.7645 5.9505 23.6722 5.9505L23.6806 5.95887Z" fill="#434549"/>
<path d="M24.1167 6.17662C24.0412 6.14312 23.9993 6.10125 23.9993 6.04262C23.9993 6.00075 24.0161 5.96725 24.0496 5.94212C24.0832 5.917 24.1335 5.90862 24.1922 5.90862C24.2425 5.90862 24.2845 5.917 24.318 5.94212C24.3516 5.96725 24.3684 5.99237 24.3684 6.03425C24.3684 6.09287 24.3264 6.14312 24.2509 6.17662C24.3432 6.21012 24.3935 6.252 24.3935 6.32737C24.3935 6.36925 24.3767 6.41112 24.3348 6.43625C24.2929 6.46137 24.2425 6.47812 24.1754 6.47812C24.1167 6.47812 24.0748 6.46137 24.0412 6.43625C24.0077 6.41112 23.9909 6.37762 23.9909 6.33575C23.9909 6.26875 24.0412 6.2185 24.1335 6.185L24.1167 6.17662ZM24.1754 6.21012C24.0916 6.23525 24.0496 6.27712 24.0496 6.32737C24.0496 6.3525 24.058 6.37762 24.0832 6.39437C24.1083 6.41112 24.1419 6.4195 24.1754 6.4195C24.209 6.4195 24.2425 6.41112 24.2677 6.39437C24.2929 6.37762 24.3013 6.3525 24.3013 6.32737C24.3013 6.26875 24.2593 6.23525 24.1671 6.20175L24.1754 6.21012ZM24.2845 6.04262C24.2845 6.04262 24.2761 6.00075 24.2593 5.984C24.2425 5.96725 24.2174 5.95887 24.1838 5.95887C24.1503 5.95887 24.1251 5.95887 24.1083 5.984C24.0916 6.00075 24.0748 6.0175 24.0748 6.04262C24.0748 6.09287 24.1083 6.12637 24.1838 6.1515C24.2593 6.12637 24.2929 6.09287 24.2929 6.04262H24.2845Z" fill="#434549"/>
<path d="M21.1392 27.1476H22.6238L21.7263 29.0069H20.2418L21.1392 27.1476ZM8.86848 28.9985H9.2543L10.1517 27.1393H9.76593L8.86848 28.9985ZM13.9345 28.9985H14.1274L15.0248 27.1393H14.8319L13.9345 28.9985ZM13.557 28.9985H13.7499L14.6474 27.1393H14.4545L13.557 28.9985ZM12.257 28.9985H12.4499L13.3473 27.1393H13.1544L12.257 28.9985ZM25.1148 27.1476H24.3432L23.4541 28.9901C24.3516 28.8729 25.0561 28.1024 25.1148 27.1476ZM7.56005 28.9231L8.41556 27.1476H6.931L6.48647 28.0773C6.7297 28.4793 7.10713 28.7891 7.56005 28.9231ZM17.6165 28.9985H19.1011L19.9985 27.1393H18.514L17.6165 28.9985ZM14.7648 28.9985H17.2726L18.1701 27.1393H15.6623L14.7648 28.9985Z" fill="url(#paint2_linear_111_559)"/>
<path d="M24.2342 15.3724H24.0664V17.2484H24.2342V15.3724Z" fill="#434549"/>
<path d="M23.8148 15.3724H23.647V17.2484H23.8148V15.3724Z" fill="#434549"/>
<path d="M23.3703 15.3724H23.2025V17.2484H23.3703V15.3724Z" fill="#434549"/>
<path d="M12.7099 3.92388C12.7099 3.92388 12.6931 3.89875 12.6847 3.89038C12.6847 3.882 12.668 3.87363 12.6596 3.86525C12.6512 3.86525 12.6428 3.8485 12.626 3.8485C12.626 3.8485 12.6763 3.83175 12.6931 3.82338C12.7099 3.815 12.7267 3.79825 12.7434 3.7815C12.7602 3.76475 12.7686 3.748 12.777 3.72288C12.777 3.70613 12.7854 3.681 12.7854 3.65588C12.7854 3.62238 12.7854 3.59725 12.7686 3.57213C12.7602 3.547 12.7434 3.53025 12.7267 3.5135C12.7099 3.49675 12.6847 3.48838 12.6596 3.48C12.6344 3.48 12.6009 3.47163 12.5757 3.47163H12.366V4.1835H12.4499V3.882H12.517C12.517 3.882 12.5505 3.882 12.5589 3.882C12.5673 3.882 12.5841 3.89038 12.5925 3.89875C12.6009 3.89875 12.6176 3.9155 12.626 3.93225C12.6344 3.949 12.6512 3.95738 12.6596 3.9825L12.777 4.1835H12.8776L12.7434 3.96575C12.7434 3.96575 12.7267 3.93225 12.7183 3.92388H12.7099ZM12.6176 3.78988C12.6176 3.78988 12.5841 3.79825 12.5589 3.79825H12.4415V3.53863H12.5589C12.6092 3.53863 12.6428 3.547 12.668 3.57213C12.6931 3.59725 12.7015 3.62238 12.7015 3.66425C12.7015 3.68938 12.7015 3.70613 12.6931 3.72288C12.6931 3.73963 12.6763 3.75638 12.6596 3.76475C12.6428 3.77313 12.6344 3.7815 12.6092 3.78988H12.6176Z" fill="#515253"/>
<path d="M11.0408 3.85681H11.2924V3.78144H11.0408V3.53856H11.3176V3.46319H10.9569V4.18344H11.3344V4.10806H11.0408V3.85681Z" fill="#515253"/>
<path d="M9.4556 3.53856H9.65689V4.18344H9.74077V3.53856H9.95045V3.46319H9.4556V3.53856Z" fill="#515253"/>
<path d="M8.36523 3.96563C8.36523 4.01588 8.36523 4.04938 8.36523 4.0745C8.36523 4.0745 8.34846 4.04938 8.34007 4.02425L7.97941 3.46313H7.87038V4.175H7.95425V3.65575C7.95425 3.6055 7.95425 3.572 7.95425 3.55525C7.95425 3.55525 7.97102 3.58875 7.97941 3.59713L8.34846 4.16663H8.44911V3.45475H8.36523V3.95725V3.96563Z" fill="#515253"/>
<path d="M15.679 3.74794L15.7294 3.59719C15.7294 3.59719 15.7294 3.57206 15.7377 3.54694C15.7377 3.54694 15.7377 3.58881 15.7461 3.59719L15.8132 3.78981C15.8132 3.78981 15.8803 3.81494 15.9223 3.83169L15.7797 3.46319H15.6958L15.5952 3.73119C15.5952 3.73119 15.6455 3.73956 15.6706 3.74794H15.679Z" fill="#515253"/>
<path d="M6.79679 3.46319H6.71292V4.17506H6.79679V3.46319Z" fill="#515253"/>
<path d="M19.8811 3.45475C19.7721 3.45475 19.6882 3.48825 19.6295 3.55525C19.5708 3.62225 19.5372 3.71438 19.5372 3.83163C19.5372 3.9405 19.5708 4.02425 19.6295 4.09125C19.6882 4.15825 19.7721 4.19175 19.8727 4.19175C19.9734 4.19175 20.0572 4.15825 20.1243 4.09125C20.1914 4.02425 20.2166 3.93213 20.2166 3.81488C20.2166 3.706 20.183 3.62225 20.1243 3.55525C20.0656 3.48825 19.9817 3.45475 19.8895 3.45475H19.8811ZM20.0488 4.041C20.0069 4.09125 19.9398 4.11638 19.8643 4.11638C19.7888 4.11638 19.7301 4.09125 19.6882 4.03263C19.6463 3.98238 19.6211 3.907 19.6211 3.82325C19.6211 3.7395 19.6463 3.66413 19.6882 3.61388C19.7385 3.56363 19.7972 3.53013 19.8727 3.53013C19.9482 3.53013 20.0069 3.55525 20.0572 3.6055C20.0992 3.65575 20.1243 3.73113 20.1243 3.82325C20.1243 3.91538 20.0992 3.99075 20.0572 4.041H20.0488Z" fill="#515253"/>
<path d="M23.0851 3.46319L22.8083 4.17506H22.9005L22.976 3.97406H23.278L23.3535 4.17506H23.4457L23.1689 3.46319H23.0851ZM23.0012 3.90706L23.1102 3.60556C23.1102 3.60556 23.1102 3.58044 23.1186 3.55531C23.1186 3.55531 23.1186 3.59719 23.127 3.60556L23.236 3.90706H22.9844H23.0012Z" fill="#515253"/>
<path d="M24.5277 4.10806V3.46319H24.4438V4.18344H24.8129V4.10806H24.5277Z" fill="#515253"/>
<path d="M21.7347 3.96563C21.7347 4.01588 21.7347 4.04938 21.7347 4.0745C21.7347 4.0745 21.7179 4.04938 21.7095 4.02425L21.3489 3.46313H21.2399V4.175H21.3237V3.65575C21.3237 3.6055 21.3237 3.572 21.3237 3.55525C21.3237 3.55525 21.3405 3.58875 21.3489 3.59713L21.7179 4.16663H21.8186V3.45475H21.7347V3.95725V3.96563Z" fill="#515253"/>
<path d="M18.4972 3.46319H18.4133V4.17506H18.4972V3.46319Z" fill="#515253"/>
<path d="M13.968 3.614L14.337 4.1835H14.4377V3.47163H14.3538V3.97413C14.3538 4.02438 14.3538 4.05788 14.3538 4.083C14.3538 4.083 14.337 4.05788 14.3287 4.03275L13.968 3.47163H13.859V4.1835H13.9428V3.66425C13.9428 3.614 13.9428 3.5805 13.9428 3.56375C13.9428 3.56375 13.9596 3.59725 13.968 3.60563V3.614Z" fill="#515253"/>
<path d="M16.9204 3.53856H17.1217V4.18344H17.2055V3.53856H17.4152V3.46319H16.9204V3.53856Z" fill="#515253"/>
<path d="M15.4861 3.8065C14.7984 3.8065 14.2364 4.36763 14.2364 5.07113C14.2364 5.77463 14.7984 6.33575 15.4861 6.33575C16.1739 6.33575 16.7358 5.77463 16.7358 5.07113C16.7358 4.36763 16.1739 3.8065 15.4861 3.8065ZM15.4861 6.26875C14.8235 6.26875 14.2951 5.73275 14.2951 5.06275C14.2951 4.39275 14.8319 3.85675 15.4861 3.85675C16.1403 3.85675 16.6771 4.39275 16.6771 5.06275C16.6771 5.73275 16.1403 6.26875 15.4861 6.26875Z" fill="url(#paint3_linear_111_559)"/>
<path opacity="0.31" d="M25.0393 19.1495V20.925C24.4355 20.657 19.8643 20.4811 19.0424 20.0875C17.7339 19.4594 18.5307 22.4576 16.0313 22.533C14.01 22.6 14.1693 21.7625 13.1712 21.7625C12.3409 21.7625 11.846 20.5062 10.655 20.0875C8.39041 19.2919 6.74648 21.0422 6.24324 20.7659V16.6705C6.24324 15.3556 7.10714 14.3506 8.17234 14.4176L23.1103 16.6621C24.1754 16.7291 25.0393 17.8514 25.0393 19.1579V19.1495Z" fill="url(#paint4_linear_111_559)"/>
<path d="M10.4453 24.3169L9.94206 22.2734L9.95884 26.3688H8.80977V19.5348H10.1182L10.8815 22.2651L11.6363 19.5348H12.9112V26.3688L11.8124 26.4023L11.7789 22.3907L11.2924 24.3253H10.4621L10.4453 24.3169Z" fill="#E4DFD0"/>
<path d="M16.8868 26.3604L16.6436 24.7356H15.3351L15.0584 26.3604H13.817L15.1255 19.5264H16.8784L18.1869 26.3604H16.8784H16.8868ZM16.4674 23.5631L16.0397 20.6821L15.5532 23.5631H16.4758H16.4674Z" fill="#E4DFD0"/>
<path d="M19.0591 26.3604V19.5264H20.9966C21.5837 19.5264 22.045 19.6771 22.3805 19.987C22.716 20.2885 22.8754 20.7575 22.8754 21.3856V22.466C22.8754 23.0774 22.716 23.5296 22.3889 23.8144C22.0702 24.0991 21.6005 24.2415 21.005 24.2415H20.4011V26.3688H19.0591V26.3604ZM20.4011 23.0774H20.9128C21.0973 23.0774 21.2399 23.0271 21.3321 22.9182C21.4244 22.8094 21.4747 22.6084 21.4747 22.3152V21.5113C21.4747 21.2014 21.4244 20.992 21.3321 20.8831C21.2399 20.7743 21.0973 20.7156 20.9128 20.7156H20.4011V23.0857V23.0774Z" fill="#E4DFD0"/>
<path d="M9.10333 19.2249C8.9859 19.2249 8.90203 19.1998 8.84332 19.1412C8.78461 19.0826 8.75945 18.9988 8.75945 18.8816V18.5382C8.75945 18.4209 8.78461 18.3372 8.84332 18.2786C8.90203 18.2199 8.9859 18.1864 9.10333 18.1864C9.22075 18.1864 9.29624 18.2116 9.34656 18.2702C9.39689 18.3288 9.43044 18.4209 9.43044 18.5466H9.19559C9.19559 18.4796 9.1872 18.4209 9.17043 18.3958C9.15365 18.3707 9.12849 18.3539 9.09494 18.3539C9.053 18.3539 9.02784 18.3707 9.01107 18.3958C8.99429 18.4209 8.9859 18.4796 8.9859 18.5466V18.8481C8.9859 18.9151 8.9859 18.9653 9.01107 18.9988C9.03623 19.0323 9.053 19.0407 9.09494 19.0407C9.12849 19.0407 9.15365 19.0239 9.17043 19.0072C9.1872 18.9821 9.19559 18.9318 9.19559 18.8481L9.43044 18.8648C9.43044 18.9904 9.39689 19.0826 9.34656 19.1412C9.29624 19.1998 9.21236 19.2249 9.09494 19.2249H9.10333Z" fill="#E4DFD0"/>
<path d="M10.7137 19.2249C10.6131 19.2249 10.5292 19.1914 10.4705 19.1328C10.4118 19.0741 10.3866 18.9904 10.3866 18.8899V18.5214C10.3866 18.4125 10.4118 18.3288 10.4705 18.2701C10.5292 18.2115 10.6047 18.178 10.7137 18.178C10.8227 18.178 10.8982 18.2115 10.9569 18.2701C11.0156 18.3288 11.0408 18.4125 11.0408 18.5214V18.8899C11.0408 18.9904 11.0156 19.0741 10.9569 19.1328C10.8982 19.1914 10.8227 19.2249 10.7137 19.2249ZM10.7137 19.049C10.7137 19.049 10.7724 19.0323 10.7808 19.0155C10.7976 18.9904 10.7976 18.9401 10.7976 18.8731V18.5465C10.7976 18.4795 10.7976 18.4293 10.7808 18.4041C10.764 18.379 10.7473 18.3623 10.7137 18.3623C10.6802 18.3623 10.655 18.3706 10.6466 18.4041C10.6298 18.4293 10.6298 18.4795 10.6298 18.5465V18.8731C10.6298 18.9401 10.6298 18.9904 10.6466 19.0155C10.6634 19.0406 10.6802 19.049 10.7137 19.049Z" fill="#E4DFD0"/>
<path d="M12.2738 18.9068L12.1899 18.555L12.215 19.2083H12.0054V18.1949H12.215L12.3409 18.6639L12.4667 18.1949H12.668V19.2083H12.4583L12.4834 18.5718L12.3996 18.9068H12.257H12.2738Z" fill="#E4DFD0"/>
<path d="M13.9009 18.9068L13.817 18.555L13.8422 19.2083H13.6325V18.1949H13.8422L13.968 18.6639L14.0938 18.1949H14.2951V19.2083H14.0854L14.1106 18.5718L14.0267 18.9068H13.8841H13.9009Z" fill="#E4DFD0"/>
<path d="M15.6035 19.225C15.4861 19.225 15.4106 19.1915 15.3519 19.1329C15.3016 19.0743 15.2681 18.9821 15.2681 18.8565V18.1949H15.5029V18.8565C15.5029 18.9235 15.5029 18.9738 15.5197 18.9989C15.5364 19.024 15.5532 19.0324 15.5952 19.0324C15.6371 19.0324 15.6539 19.024 15.6706 18.9989C15.6874 18.9738 15.6874 18.9235 15.6874 18.8565V18.1949H15.9223V18.8565C15.9223 18.9821 15.8971 19.0743 15.8384 19.1329C15.7797 19.1915 15.7042 19.225 15.5868 19.225H15.6035Z" fill="#E4DFD0"/>
<path d="M17.2894 19.2167L17.0965 18.5299V19.2167H16.8952V18.2033H17.1468L17.3565 18.9236V18.2033H17.5578V19.2167H17.2894Z" fill="#E4DFD0"/>
<path d="M18.5307 19.2167V19.0408H18.7404V18.3792H18.5307V18.2033H19.1933V18.3792H18.9836V19.0408H19.1933V19.2167H18.5307Z" fill="#E4DFD0"/>
<path d="M20.376 19.2167V18.3792H20.1411V18.2033H20.8457V18.3792H20.6108V19.2167H20.376Z" fill="#E4DFD0"/>
<path d="M22.238 19.2167H22.0031V18.8398L21.7515 18.2033H21.9863L22.1205 18.6053L22.2547 18.2033H22.4896L22.238 18.8398V19.2167Z" fill="#E4DFD0"/>
<path d="M24.7122 9.2L24.6703 9.31725L24.7961 9.35912C24.6116 9.37587 24.4019 9.68575 24.2342 9.535L24.4103 9.47637C24.4103 9.40937 24.4355 9.38425 24.3516 9.401C24.209 9.42612 23.7561 9.65225 23.5716 9.71925C23.5045 9.74437 23.4625 9.81137 23.3954 9.8365C23.169 9.92862 22.8922 9.96212 22.6741 10.0626C22.6741 10.1129 22.7328 10.138 22.7831 10.1464C22.9341 10.1547 23.4877 9.94537 23.6051 9.82812L23.6722 9.94537L22.3302 10.406C22.3302 10.406 22.3889 10.406 22.4057 10.4311C22.498 10.5651 22.1373 11.3189 22.3554 11.3775C22.4057 11.3859 22.9509 11.2184 23.0683 11.2016C23.4793 11.1262 23.9154 11.0676 24.3264 11.0844C24.6032 11.4947 24.1503 11.3524 23.8735 11.3859C23.3283 11.4529 22.8251 11.6706 22.2883 11.7795C22.4309 12.6086 23.1019 13.0274 23.9322 12.5081C24.0664 12.4244 24.3684 12.0224 24.4774 12.2485C24.1084 12.9771 23.1857 13.2619 22.4141 12.8599C22.0283 13.0525 21.5418 13.354 21.0973 13.3959C19.3863 13.555 19.3192 12.1899 19.5288 11.0006C19.5708 10.7661 19.6463 10.54 19.7301 10.3139C19.7301 10.2469 18.7908 10.406 18.7404 10.5567C18.6901 10.7075 18.7153 11.5952 18.732 11.8214C18.7572 12.2987 18.8914 12.8096 18.8662 13.287C18.8579 13.488 18.7404 13.3624 18.6817 13.2535C18.4637 12.8766 18.2791 11.5031 18.2204 11.0174C18.2036 10.8834 18.2204 10.741 18.2204 10.607L16.9036 10.7996C16.761 10.7159 16.7359 10.5149 16.9036 10.4562C17.0965 10.3892 17.5494 10.3641 17.7927 10.3139C18.4385 10.1799 19.1514 9.97887 19.7972 9.92862C19.9231 9.92025 20.2753 9.91187 20.3844 9.94537C20.4598 9.9705 20.636 10.1547 20.5186 10.2217L19.9566 10.2385C19.9314 10.3892 20.0321 10.272 20.0824 10.2887C20.0824 10.2887 20.1831 10.3976 20.1831 10.4144C20.1831 10.5484 20.0824 10.6991 20.0573 10.8247C19.8979 11.6874 19.663 13.1446 21.0637 13.0525C21.2818 13.0357 21.4579 12.9771 21.6425 12.9017C21.7599 12.8515 22.2128 12.7175 22.2212 12.6002C22.2212 12.5332 22.0534 12.3322 22.0115 12.2317C21.9612 12.1145 21.9528 11.947 21.9025 11.8549C21.8689 11.7879 21.7767 11.7962 21.7599 11.7125C21.7431 11.6036 21.8522 11.5366 21.8689 11.4445C21.9276 11.1346 21.8522 10.7326 22.0031 10.4144C22.0031 10.3892 21.5838 10.3809 21.7683 10.1212C21.8773 9.96212 22.1625 10.0291 22.3638 9.98725C22.5064 9.96212 23.3787 9.77787 23.429 9.75275C23.4374 9.75275 23.4458 9.67737 23.5045 9.65225C23.8903 9.468 24.3432 9.35075 24.729 9.1665L24.7122 9.2Z" fill="black"/>
<path d="M10.1937 11.3021L10.4285 11.344C10.5124 11.6706 10.3866 11.9972 10.3614 12.3239C10.3363 12.7007 10.3782 13.6052 10.1014 13.8732C10.0092 13.9654 9.5898 14.1245 9.46399 14.0826C9.32141 13.9319 9.14527 13.8062 9.02785 13.6304C8.8601 13.3791 8.75945 13.0776 8.62526 12.8096C8.60009 12.7677 8.54977 12.6002 8.48267 12.6254C8.27299 12.9017 8.41557 13.8062 8.03814 13.9235C8.00459 13.9319 7.73619 13.9737 7.70264 13.9737C7.39231 13.9486 7.23295 12.9771 7.19101 12.7342C7.1323 12.416 6.90584 10.9001 7.12392 10.7242C7.22456 10.6572 7.77813 10.6907 7.80329 10.7745C7.82007 10.8331 7.72781 10.9504 7.71942 11.0509C7.70264 11.1849 7.71942 12.2904 7.76136 12.3406C7.87039 12.349 7.82845 12.3406 7.84523 12.282C7.91233 12.0726 7.88717 11.7795 8.21427 11.7795C8.28137 11.7795 8.67558 11.8297 8.70913 11.8465C9.01946 11.9721 9.37173 13.0776 9.50593 13.3875C9.53109 13.4377 9.55625 13.4629 9.60658 13.4964C9.64852 13.4712 9.6569 13.3959 9.66529 13.354C9.75755 12.8012 9.84981 12.2401 9.9253 11.679C9.96724 11.3775 9.9253 10.9922 10.0259 10.7075C10.0427 10.6489 10.0679 10.5735 10.1434 10.5567C10.1182 10.808 10.2272 11.0425 10.1937 11.3105V11.3021Z" fill="black"/>
<path d="M13.5738 11.2686C13.557 11.4612 12.7602 11.8214 12.7602 11.9219L13.3054 13.2032L13.2719 13.6555C13.2719 13.6555 13.037 13.4964 13.0119 13.4796C12.7015 13.1614 12.4164 12.6421 12.3157 12.2317L11.5525 12.5081C11.6867 12.9855 11.8041 13.5382 12.1396 13.9235L11.9215 14.024L11.9634 14.1412C11.8879 14.1915 11.5189 13.89 11.4686 13.823C11.2002 13.4964 11.0828 13.0274 10.915 12.6589C10.8899 12.6002 10.8144 12.6086 10.7892 12.5332C10.7137 12.3657 10.546 11.2016 10.5376 10.9755C10.5124 10.4562 10.764 10.4814 11.2253 10.607C11.2002 11.1095 11.2589 11.5869 11.4015 12.0726C11.4518 12.1145 12.0641 11.8465 12.0892 11.7627C12.0473 11.3691 11.9047 10.9755 11.9634 10.5735C12.0054 10.2552 12.408 10.339 12.6093 10.4981C12.5757 10.6321 12.5841 11.4529 12.7183 11.4612C13.0035 11.3105 13.2299 11.1932 13.5654 11.2602L13.5738 11.2686ZM10.8395 10.6656C10.7053 10.6572 10.7724 10.6824 10.764 10.741C10.7473 10.9085 10.8311 11.0676 10.764 11.2351L10.9234 11.6957L10.8395 10.6656Z" fill="black"/>
<path d="M16.3752 10.4227C16.3081 10.4897 16.1068 10.5567 16.0229 10.6321C15.7797 10.8415 15.57 11.344 15.6119 11.6455C15.6371 11.8632 16.199 11.9805 16.4003 12.081C17.3146 12.5416 16.87 13.3959 16.5681 14.091L16.4842 13.7895C16.5597 13.3791 16.61 12.9939 16.3668 12.6337C15.9726 12.0475 14.899 12.3406 15.0584 11.3691C15.1339 10.9252 15.83 9.81137 16.4255 10.272C16.4591 10.3222 16.4255 10.3809 16.392 10.4227H16.3752Z" fill="black"/>
<path d="M14.3035 9.92025C14.2532 10.6572 14.3874 11.3189 14.53 12.0391C14.5551 12.1647 14.6726 12.2485 14.5719 12.3992L14.4377 12.4411C14.6474 12.6254 14.6809 12.9687 14.6977 13.22C14.639 13.2116 14.6138 13.153 14.5803 13.1111C14.1274 12.4579 13.7164 11.3021 13.6577 10.54C13.6157 10.004 13.599 9.61037 14.3035 9.92862V9.92025Z" fill="black"/>
</g>
<defs>
<linearGradient id="paint0_linear_111_559" x1="24.7626" y1="3.02763" x2="6.67325" y2="28.7975" gradientUnits="userSpaceOnUse">
<stop stop-color="#FDF9F0"/>
<stop offset="1" stop-color="#A29884"/>
</linearGradient>
<linearGradient id="paint1_linear_111_559" x1="24.7039" y1="3.09463" x2="6.75685" y2="28.6717" gradientUnits="userSpaceOnUse">
<stop stop-color="#EDE8D9"/>
<stop offset="0.36" stop-color="#F4EEE0"/>
<stop offset="1" stop-color="#FFF7EB"/>
</linearGradient>
<linearGradient id="paint2_linear_111_559" x1="6.48647" y1="28.0773" x2="25.1148" y2="28.0773" gradientUnits="userSpaceOnUse">
<stop stop-color="#C9C5B8"/>
<stop offset="1" stop-color="#E4DFD0"/>
</linearGradient>
<linearGradient id="paint3_linear_111_559" x1="14.6893" y1="6.36925" x2="16.2795" y2="3.75417" gradientUnits="userSpaceOnUse">
<stop stop-color="#FDF9F0"/>
<stop offset="1" stop-color="#A29884"/>
</linearGradient>
<linearGradient id="paint4_linear_111_559" x1="2.13328" y1="19.4714" x2="2.40737" y2="13.4727" gradientUnits="userSpaceOnUse">
<stop offset="0.05" stop-color="#FFFAEB" stop-opacity="0.7"/>
<stop offset="0.68" stop-color="#FFEDCF" stop-opacity="0"/>
</linearGradient>
<clipPath id="clip0_111_559">
<rect width="19.4" height="26.8" fill="white" transform="translate(6 2.5)"/>
</clipPath>
</defs>
</svg>
