<svg width="178" height="64" viewBox="0 0 178 64" fill="none" xmlns="http://www.w3.org/2000/svg">
<g clip-path="url(#clip0_632_1600)">
<path d="M25 0H21L9 64H13L25 0Z" fill="#656565"/>
<path d="M178 0H33.9996L22 64H166L178 0Z" fill="url(#paint0_linear_632_1600)"/>
<path d="M176.25 1.5H33.24L21.6562 62.5H164.666L176.25 1.5Z" fill="url(#paint1_linear_632_1600)"/>
<path opacity="0.4" d="M46.1141 4L54 4L40.8859 61H33L46.1141 4Z" fill="#707070"/>
<path d="M36.7301 4L42 4L30.2699 61H25L36.7301 4Z" fill="#707070"/>
<path opacity="0.4" d="M56.8737 4L72 4L59.1263 61H44L56.8737 4Z" fill="#707070"/>
<path opacity="0.4" d="M75.7813 4L110 4L97.2187 61H63L75.7813 4Z" fill="#707070"/>
<path d="M18 0H27L18 64H3.25L18 0Z" fill="#3A3A3A"/>
<path d="M12 0H21L9 64H0L12 0Z" fill="white"/>
<path d="M24.9997 0H33.9997L22 64H13L24.9997 0Z" fill="white"/>
<path d="M25 0H33L21 64H13L25 0Z" fill="url(#paint2_linear_632_1600)"/>
<path d="M25 0H33L21 64H13L25 0Z" fill="url(#paint3_linear_632_1600)"/>
<path d="M12 0H20L8 64H0L12 0Z" fill="url(#paint4_linear_632_1600)"/>
<path d="M12 0H20L8 64H0L12 0Z" fill="url(#paint5_linear_632_1600)"/>
</g>
<path d="M59.0004 32H81.0004L79.9004 37H57.9004L59.0004 32Z" fill="white"/>
<path d="M84.0004 32H106L104.9 37H82.9004L84.0004 32Z" fill="white"/>
<path d="M109 32H131L129.9 37H107.9L109 32Z" fill="white"/>
<defs>
<linearGradient id="paint0_linear_632_1600" x1="187.49" y1="48.7288" x2="30.4973" y2="20.5012" gradientUnits="userSpaceOnUse">
<stop offset="0.9053" stop-color="#6B6A6A"/>
<stop offset="1" stop-color="#666666"/>
</linearGradient>
<linearGradient id="paint1_linear_632_1600" x1="185.411" y1="47.9446" x2="26.5628" y2="33.7951" gradientUnits="userSpaceOnUse">
<stop offset="0.862691" stop-color="#444242" stop-opacity="0.44"/>
<stop offset="1" stop-color="#393737"/>
</linearGradient>
<linearGradient id="paint2_linear_632_1600" x1="23.4998" y1="1" x2="23.4998" y2="63" gradientUnits="userSpaceOnUse">
<stop stop-color="#E6E6E6"/>
<stop offset="1" stop-color="#DEDEDE"/>
</linearGradient>
<linearGradient id="paint3_linear_632_1600" x1="23.4998" y1="1" x2="23.4998" y2="63" gradientUnits="userSpaceOnUse">
<stop stop-color="#E6E6E6"/>
<stop offset="1" stop-color="#DEDEDE"/>
</linearGradient>
<linearGradient id="paint4_linear_632_1600" x1="10.4998" y1="1" x2="10.4998" y2="63" gradientUnits="userSpaceOnUse">
<stop stop-color="#E6E6E6"/>
<stop offset="1" stop-color="#DEDEDE"/>
</linearGradient>
<linearGradient id="paint5_linear_632_1600" x1="10.4998" y1="1" x2="10.4998" y2="63" gradientUnits="userSpaceOnUse">
<stop stop-color="#E6E6E6"/>
<stop offset="1" stop-color="#DEDEDE"/>
</linearGradient>
<clipPath id="clip0_632_1600">
<rect width="178" height="64" fill="white"/>
</clipPath>
</defs>
</svg>
